<svg xmlns="http://www.w3.org/2000/svg" xmlns:xlink="http://www.w3.org/1999/xlink" width="500" zoomAndPan="magnify" viewBox="0 0 375 374.999991" height="500" preserveAspectRatio="xMidYMid meet" version="1.0"><defs><clipPath id="id1"><path d="M 0 5.453125 L 375 5.453125 L 375 369 L 0 369 Z M 0 5.453125 " clip-rule="nonzero"/></clipPath></defs><g clip-path="url(#id1)"><path fill="rgb(0%, 0%, 0%)" d="M 0.789062 124.632812 L 0.789062 248.992188 L 83.769531 248.992188 L 187.5 352.625 L 187.5 21 L 83.769531 124.632812 Z M 280.855469 186.8125 C 280.855469 150.230469 259.695312 118.621094 228.992188 103.386719 L 228.992188 270.339844 C 259.695312 255 280.855469 223.394531 280.855469 186.8125 Z M 228.992188 5.039062 L 228.992188 47.839844 C 288.945312 65.664062 332.722656 121.109375 332.722656 186.8125 C 332.722656 252.515625 288.945312 307.957031 228.992188 325.78125 L 228.992188 368.582031 C 312.078125 349.722656 374.210938 275.625 374.210938 186.8125 C 374.210938 98 312.078125 23.902344 228.992188 5.039062 Z M 228.992188 5.039062 " fill-opacity="1" fill-rule="nonzero"/></g></svg>