<svg xmlns="http://www.w3.org/2000/svg" xmlns:xlink="http://www.w3.org/1999/xlink" width="500" zoomAndPan="magnify" viewBox="0 0 375 374.999991" height="500" preserveAspectRatio="xMidYMid meet" version="1.0"><path fill="rgb(0%, 0%, 0%)" d="M 281.25 187.5 C 281.25 150.730469 260 118.957031 229.167969 103.644531 L 229.167969 149.6875 L 280.3125 200.832031 C 280.9375 196.457031 281.25 191.980469 281.25 187.5 Z M 333.332031 187.5 C 333.332031 207.082031 329.0625 225.519531 322.082031 242.5 L 353.644531 274.0625 C 367.1875 248.125 375 218.75 375 187.5 C 375 98.332031 312.605469 23.75 229.167969 4.792969 L 229.167969 47.8125 C 289.375 65.730469 333.332031 121.457031 333.332031 187.5 Z M 26.5625 0 L 0 26.5625 L 98.4375 125 L 0 125 L 0 250 L 83.332031 250 L 187.5 354.167969 L 187.5 214.0625 L 276.144531 302.707031 C 262.1875 313.4375 246.457031 322.082031 229.167969 327.292969 L 229.167969 370.3125 C 257.8125 363.75 283.957031 350.625 305.9375 332.605469 L 348.4375 375 L 375 348.4375 Z M 187.5 20.832031 L 143.957031 64.375 L 187.5 107.917969 Z M 187.5 20.832031 " fill-opacity="1" fill-rule="nonzero"/></svg>