<svg xmlns="http://www.w3.org/2000/svg" xmlns:xlink="http://www.w3.org/1999/xlink" width="500" zoomAndPan="magnify" viewBox="0 0 375 374.999991" height="500" preserveAspectRatio="xMidYMid meet" version="1.0"><path fill="rgb(100%, 70.588684%, 35.289001%)" d="M 24.628906 284.5 L 32.03125 284.515625 L 39.4375 284.53125 C 39.402344 295.285156 39.367188 306.042969 39.335938 316.796875 C 34.539062 316.78125 29.742188 316.765625 24.949219 316.75 L 24.628906 284.5 M 42.023438 284.535156 L 48.800781 284.550781 L 55.574219 284.5625 L 55.691406 316.851562 L 41.921875 316.804688 L 42.023438 284.535156 M 58.289062 319.449219 L 74.425781 319.503906 L 90.5625 319.554688 L 90.59375 333.113281 C 79.84375 333.152344 69.089844 333.1875 58.339844 333.226562 L 58.289062 319.449219 M 41.914062 319.394531 L 55.703125 319.441406 L 55.753906 333.234375 C 51.125 333.25 46.5 333.265625 41.871094 333.28125 L 41.914062 319.394531 M 24.972656 319.339844 L 32.148438 319.363281 L 39.328125 319.386719 L 39.285156 333.289062 C 34.558594 333.304688 29.835938 333.324219 25.109375 333.339844 C 25.066406 328.671875 25.019531 324.003906 24.972656 319.339844 M 55.761719 335.824219 L 55.789062 343.003906 L 55.8125 350.183594 C 51.148438 350.140625 46.484375 350.097656 41.820312 350.050781 C 41.835938 345.324219 41.851562 340.597656 41.863281 335.871094 C 46.496094 335.855469 51.128906 335.839844 55.761719 335.824219 M 90.597656 335.703125 L 90.617188 343.109375 L 90.632812 350.515625 C 79.890625 350.414062 69.144531 350.3125 58.402344 350.210938 L 58.351562 335.816406 C 69.097656 335.777344 79.847656 335.742188 90.597656 335.703125 M 15.867188 319.308594 L 22.382812 319.328125 L 22.535156 334.652344 C 22.507812 334.84375 22.601562 335.105469 22.808594 335.433594 C 23.160156 335.796875 23.5 335.964844 23.832031 335.933594 L 39.277344 335.878906 L 39.226562 351.332031 C 39.199219 351.523438 39.289062 351.789062 39.492188 352.121094 C 39.84375 352.488281 40.179688 352.65625 40.511719 352.628906 L 55.824219 352.773438 L 55.847656 359.296875 L 15.867188 359.308594 L 15.867188 319.308594 M 39.535156 252.671875 L 39.445312 281.941406 L 23.324219 281.910156 C 22.75 281.960938 22.359375 282.203125 22.160156 282.640625 C 22.058594 282.875 22.015625 283.070312 22.03125 283.21875 L 22.359375 316.742188 L 14.402344 316.726562 C 13.78125 316.84375 13.410156 317.214844 13.289062 317.839844 L 13.277344 359.308594 L 3.570312 359.3125 L 3.066406 267.878906 L 25.769531 268.234375 C 26.285156 267.972656 26.550781 267.59375 26.570312 267.109375 L 26.351562 252.832031 L 39.535156 252.671875 M 122.445312 335.59375 L 122.285156 348.785156 L 108.085938 348.570312 C 107.582031 348.605469 107.222656 348.800781 107.003906 349.152344 L 107.253906 372.085938 L 15.867188 371.609375 L 15.867188 361.898438 L 57.484375 361.839844 C 58.019531 361.667969 58.332031 361.308594 58.429688 360.757812 L 58.410156 352.800781 L 91.917969 353.121094 C 92.222656 353.117188 92.488281 353.027344 92.714844 352.855469 C 93.046875 352.589844 93.214844 352.246094 93.222656 351.820312 L 93.1875 335.695312 L 122.445312 335.59375 M 1.355469 1.105469 L 1.179688 1.117188 C 0.417969 1.347656 0.046875 1.773438 0.0585938 2.402344 L 0.0625 251.933594 C 0.171875 252.648438 0.570312 253.046875 1.269531 253.140625 L 23.765625 252.867188 L 23.964844 265.71875 L 1.765625 265.261719 C 1.140625 265.289062 0.726562 265.609375 0.515625 266.222656 L 1.371094 361.523438 L 13.277344 361.898438 L 13.289062 373.070312 C 13.410156 373.6875 13.777344 374.054688 14.390625 374.179688 L 108.664062 374.679688 C 109.375 374.578125 109.777344 374.167969 109.867188 373.445312 L 109.410156 351.179688 L 122.253906 351.375 L 121.984375 373.863281 C 122.078125 374.578125 122.480469 374.984375 123.191406 375.085938 L 372.773438 375 C 374.308594 373.914062 374.25 373.054688 372.597656 372.421875 L 124.585938 372.5 L 124.839844 351.414062 L 139.105469 351.628906 L 139.109375 366.613281 C 139.207031 367.316406 139.609375 367.71875 140.316406 367.816406 L 355.824219 367.820312 C 357.222656 367.328125 357.488281 366.554688 356.613281 365.5 L 141.695312 365.230469 L 141.519531 349.707031 L 124.871094 348.824219 L 124.402344 333.175781 L 93.179688 333.105469 L 93.144531 318.261719 C 93.101562 317.625 92.785156 317.210938 92.199219 317.019531 L 58.28125 316.859375 L 58.113281 282.925781 C 57.917969 282.335938 57.503906 282.019531 56.867188 281.976562 L 42.03125 281.949219 L 41.953125 250.710938 L 26.3125 250.246094 L 25.425781 233.589844 L 9.90625 233.417969 L 9.570312 18.390625 C 8.519531 17.519531 7.746094 17.78125 7.253906 19.183594 L 7.320312 234.800781 C 7.421875 235.503906 7.824219 235.90625 8.527344 236.007812 L 23.503906 236.003906 L 23.722656 250.277344 L 2.648438 250.539062 L 2.648438 2.402344 C 2.574219 1.613281 2.144531 1.179688 1.355469 1.105469 Z M 1.355469 1.105469 " fill-opacity="1" fill-rule="nonzero"/></svg>