<svg xmlns="http://www.w3.org/2000/svg" xmlns:xlink="http://www.w3.org/1999/xlink" width="400" zoomAndPan="magnify" viewBox="0 0 300 37.5" height="50" preserveAspectRatio="xMidYMid meet" version="1.0"><defs><clipPath id="id1"><path d="M 133.910156 2.21875 L 165.976562 2.21875 L 165.976562 34.78125 L 133.910156 34.78125 Z M 133.910156 2.21875 " clip-rule="nonzero"/></clipPath><clipPath id="id2"><path d="M 178.285156 11.105469 L 258.277344 11.105469 L 258.277344 13.683594 L 178.285156 13.683594 Z M 178.285156 11.105469 " clip-rule="nonzero"/></clipPath><clipPath id="id3"><path d="M 41.425781 11 L 122 11 L 122 14 L 41.425781 14 Z M 41.425781 11 " clip-rule="nonzero"/></clipPath><clipPath id="id4"><path d="M 178 23 L 258.285156 23 L 258.285156 26 L 178 26 Z M 178 23 " clip-rule="nonzero"/></clipPath><clipPath id="id5"><path d="M 41.425781 23 L 122 23 L 122 26 L 41.425781 26 Z M 41.425781 23 " clip-rule="nonzero"/></clipPath></defs><g clip-path="url(#id1)"><path fill="rgb(100%, 74.119568%, 29.798889%)" d="M 162.378906 18.5 L 149.855469 31.34375 L 137.332031 18.5 L 149.855469 5.65625 Z M 165.742188 18.507812 L 149.855469 2.214844 L 133.964844 18.507812 L 149.855469 34.785156 L 165.742188 18.507812 " fill-opacity="1" fill-rule="nonzero"/></g><path fill="rgb(100%, 74.119568%, 29.798889%)" d="M 240.921875 19.703125 L 189.894531 19.703125 L 189.894531 17.300781 L 240.921875 17.300781 L 240.921875 19.703125 " fill-opacity="1" fill-rule="nonzero"/><path fill="rgb(100%, 74.119568%, 29.798889%)" d="M 58.785156 19.703125 L 109.8125 19.703125 L 109.8125 17.300781 L 58.785156 17.300781 L 58.785156 19.703125 " fill-opacity="1" fill-rule="nonzero"/><g clip-path="url(#id2)"><path fill="rgb(100%, 74.119568%, 29.798889%)" d="M 258.277344 13.566406 L 178.332031 13.566406 L 178.332031 11.164062 L 258.277344 11.164062 L 258.277344 13.566406 " fill-opacity="1" fill-rule="nonzero"/></g><g clip-path="url(#id3)"><path fill="rgb(100%, 74.119568%, 29.798889%)" d="M 41.433594 13.566406 L 121.378906 13.566406 L 121.378906 11.164062 L 41.433594 11.164062 L 41.433594 13.566406 " fill-opacity="1" fill-rule="nonzero"/></g><g clip-path="url(#id4)"><path fill="rgb(100%, 74.119568%, 29.798889%)" d="M 258.074219 25.757812 L 178.128906 25.757812 L 178.128906 23.355469 L 258.074219 23.355469 L 258.074219 25.757812 " fill-opacity="1" fill-rule="nonzero"/></g><g clip-path="url(#id5)"><path fill="rgb(100%, 74.119568%, 29.798889%)" d="M 41.636719 25.757812 L 121.582031 25.757812 L 121.582031 23.355469 L 41.636719 23.355469 L 41.636719 25.757812 " fill-opacity="1" fill-rule="nonzero"/></g><path fill="rgb(100%, 74.119568%, 29.798889%)" d="M 149.855469 14.082031 L 162.585938 26.894531 L 162.65625 26.828125 L 162.734375 26.894531 L 178.347656 11.171875 L 180.050781 12.867188 L 162.808594 30.226562 L 162.648438 30.082031 L 162.578125 30.152344 L 161.652344 29.375 L 149.855469 17.492188 L 138.054688 29.375 L 137.132812 30.152344 L 137.058594 30.082031 L 136.902344 30.226562 L 119.660156 12.867188 L 121.359375 11.171875 L 136.972656 26.894531 L 137.054688 26.828125 L 137.121094 26.894531 L 149.855469 14.082031 " fill-opacity="1" fill-rule="nonzero"/><path fill="rgb(100%, 74.119568%, 29.798889%)" d="M 149.855469 19.664062 L 162.65625 6.773438 L 179.835938 24.074219 L 178.136719 25.769531 L 162.65625 10.179688 L 149.855469 23.070312 L 137.054688 10.179688 L 121.574219 25.769531 L 119.871094 24.074219 L 137.054688 6.773438 L 149.855469 19.664062 " fill-opacity="1" fill-rule="nonzero"/></svg>