<svg xmlns="http://www.w3.org/2000/svg" xmlns:xlink="http://www.w3.org/1999/xlink" width="500" zoomAndPan="magnify" viewBox="0 0 375 374.999991" height="500" preserveAspectRatio="xMidYMid meet" version="1.0"><defs><g/><clipPath id="id1"><path d="M 288 155 L 349 155 L 349 292 L 288 292 Z M 288 155 " clip-rule="nonzero"/></clipPath><clipPath id="id2"><path d="M 297.960938 128.023438 L 373.464844 134.089844 L 360.253906 298.558594 L 284.75 292.496094 Z M 297.960938 128.023438 " clip-rule="nonzero"/></clipPath><clipPath id="id3"><path d="M 373.265625 134.074219 L 174.40625 118.101562 L 161.195312 282.570312 L 360.054688 298.542969 Z M 373.265625 134.074219 " clip-rule="nonzero"/></clipPath><clipPath id="id4"><path d="M 293 267 L 307 267 L 307 291 L 293 291 Z M 293 267 " clip-rule="nonzero"/></clipPath><clipPath id="id5"><path d="M 297.960938 128.023438 L 373.464844 134.089844 L 360.253906 298.558594 L 284.75 292.496094 Z M 297.960938 128.023438 " clip-rule="nonzero"/></clipPath><clipPath id="id6"><path d="M 373.265625 134.074219 L 174.40625 118.101562 L 161.195312 282.570312 L 360.054688 298.542969 Z M 373.265625 134.074219 " clip-rule="nonzero"/></clipPath><clipPath id="id7"><path d="M 311 255 L 321 255 L 321 282 L 311 282 Z M 311 255 " clip-rule="nonzero"/></clipPath><clipPath id="id8"><path d="M 297.960938 128.023438 L 373.464844 134.089844 L 360.253906 298.558594 L 284.75 292.496094 Z M 297.960938 128.023438 " clip-rule="nonzero"/></clipPath><clipPath id="id9"><path d="M 373.265625 134.074219 L 174.40625 118.101562 L 161.195312 282.570312 L 360.054688 298.542969 Z M 373.265625 134.074219 " clip-rule="nonzero"/></clipPath><clipPath id="id10"><path d="M 323 242 L 333 242 L 333 269 L 323 269 Z M 323 242 " clip-rule="nonzero"/></clipPath><clipPath id="id11"><path d="M 297.960938 128.023438 L 373.464844 134.089844 L 360.253906 298.558594 L 284.75 292.496094 Z M 297.960938 128.023438 " clip-rule="nonzero"/></clipPath><clipPath id="id12"><path d="M 373.265625 134.074219 L 174.40625 118.101562 L 161.195312 282.570312 L 360.054688 298.542969 Z M 373.265625 134.074219 " clip-rule="nonzero"/></clipPath><clipPath id="id13"><path d="M 331 225 L 341 225 L 341 254 L 331 254 Z M 331 225 " clip-rule="nonzero"/></clipPath><clipPath id="id14"><path d="M 297.960938 128.023438 L 373.464844 134.089844 L 360.253906 298.558594 L 284.75 292.496094 Z M 297.960938 128.023438 " clip-rule="nonzero"/></clipPath><clipPath id="id15"><path d="M 373.265625 134.074219 L 174.40625 118.101562 L 161.195312 282.570312 L 360.054688 298.542969 Z M 373.265625 134.074219 " clip-rule="nonzero"/></clipPath><clipPath id="id16"><path d="M 333 208 L 346 208 L 346 235 L 333 235 Z M 333 208 " clip-rule="nonzero"/></clipPath><clipPath id="id17"><path d="M 297.960938 128.023438 L 373.464844 134.089844 L 360.253906 298.558594 L 284.75 292.496094 Z M 297.960938 128.023438 " clip-rule="nonzero"/></clipPath><clipPath id="id18"><path d="M 373.265625 134.074219 L 174.40625 118.101562 L 161.195312 282.570312 L 360.054688 298.542969 Z M 373.265625 134.074219 " clip-rule="nonzero"/></clipPath><clipPath id="id19"><path d="M 331 189 L 349 189 L 349 214 L 331 214 Z M 331 189 " clip-rule="nonzero"/></clipPath><clipPath id="id20"><path d="M 297.960938 128.023438 L 373.464844 134.089844 L 360.253906 298.558594 L 284.75 292.496094 Z M 297.960938 128.023438 " clip-rule="nonzero"/></clipPath><clipPath id="id21"><path d="M 373.265625 134.074219 L 174.40625 118.101562 L 161.195312 282.570312 L 360.054688 298.542969 Z M 373.265625 134.074219 " clip-rule="nonzero"/></clipPath><clipPath id="id22"><path d="M 324 172 L 348 172 L 348 190 L 324 190 Z M 324 172 " clip-rule="nonzero"/></clipPath><clipPath id="id23"><path d="M 297.960938 128.023438 L 373.464844 134.089844 L 360.253906 298.558594 L 284.75 292.496094 Z M 297.960938 128.023438 " clip-rule="nonzero"/></clipPath><clipPath id="id24"><path d="M 373.265625 134.074219 L 174.40625 118.101562 L 161.195312 282.570312 L 360.054688 298.542969 Z M 373.265625 134.074219 " clip-rule="nonzero"/></clipPath><clipPath id="id25"><path d="M 314 157 L 340 157 L 340 170 L 314 170 Z M 314 157 " clip-rule="nonzero"/></clipPath><clipPath id="id26"><path d="M 297.960938 128.023438 L 373.464844 134.089844 L 360.253906 298.558594 L 284.75 292.496094 Z M 297.960938 128.023438 " clip-rule="nonzero"/></clipPath><clipPath id="id27"><path d="M 373.265625 134.074219 L 174.40625 118.101562 L 161.195312 282.570312 L 360.054688 298.542969 Z M 373.265625 134.074219 " clip-rule="nonzero"/></clipPath><clipPath id="id28"><path d="M 306 285 L 332 285 L 332 296 L 306 296 Z M 306 285 " clip-rule="nonzero"/></clipPath><clipPath id="id29"><path d="M 297.960938 128.023438 L 373.464844 134.089844 L 360.253906 298.558594 L 284.75 292.496094 Z M 297.960938 128.023438 " clip-rule="nonzero"/></clipPath><clipPath id="id30"><path d="M 373.265625 134.074219 L 174.40625 118.101562 L 161.195312 282.570312 L 360.054688 298.542969 Z M 373.265625 134.074219 " clip-rule="nonzero"/></clipPath><clipPath id="id31"><path d="M 332.058594 286.859375 L 306.183594 284.78125 L 305.425781 294.214844 L 331.300781 296.292969 Z M 332.058594 286.859375 " clip-rule="nonzero"/></clipPath><clipPath id="id32"><path d="M 332.058594 286.859375 L 306.183594 284.78125 L 305.433594 294.160156 L 331.304688 296.238281 Z M 332.058594 286.859375 " clip-rule="nonzero"/></clipPath><clipPath id="id33"><path d="M 323 270 L 349 270 L 349 280 L 323 280 Z M 323 270 " clip-rule="nonzero"/></clipPath><clipPath id="id34"><path d="M 297.960938 128.023438 L 373.464844 134.089844 L 360.253906 298.558594 L 284.75 292.496094 Z M 297.960938 128.023438 " clip-rule="nonzero"/></clipPath><clipPath id="id35"><path d="M 373.265625 134.074219 L 174.40625 118.101562 L 161.195312 282.570312 L 360.054688 298.542969 Z M 373.265625 134.074219 " clip-rule="nonzero"/></clipPath><clipPath id="id36"><path d="M 333 248 L 357 248 L 357 264 L 333 264 Z M 333 248 " clip-rule="nonzero"/></clipPath><clipPath id="id37"><path d="M 297.960938 128.023438 L 373.464844 134.089844 L 360.253906 298.558594 L 284.75 292.496094 Z M 297.960938 128.023438 " clip-rule="nonzero"/></clipPath><clipPath id="id38"><path d="M 373.265625 134.074219 L 174.40625 118.101562 L 161.195312 282.570312 L 360.054688 298.542969 Z M 373.265625 134.074219 " clip-rule="nonzero"/></clipPath><clipPath id="id39"><path d="M 341 229 L 364 229 L 364 246 L 341 246 Z M 341 229 " clip-rule="nonzero"/></clipPath><clipPath id="id40"><path d="M 297.960938 128.023438 L 373.464844 134.089844 L 360.253906 298.558594 L 284.75 292.496094 Z M 297.960938 128.023438 " clip-rule="nonzero"/></clipPath><clipPath id="id41"><path d="M 373.265625 134.074219 L 174.40625 118.101562 L 161.195312 282.570312 L 360.054688 298.542969 Z M 373.265625 134.074219 " clip-rule="nonzero"/></clipPath><clipPath id="id42"><path d="M 346 205 L 365 205 L 365 226 L 346 226 Z M 346 205 " clip-rule="nonzero"/></clipPath><clipPath id="id43"><path d="M 297.960938 128.023438 L 373.464844 134.089844 L 360.253906 298.558594 L 284.75 292.496094 Z M 297.960938 128.023438 " clip-rule="nonzero"/></clipPath><clipPath id="id44"><path d="M 373.265625 134.074219 L 174.40625 118.101562 L 161.195312 282.570312 L 360.054688 298.542969 Z M 373.265625 134.074219 " clip-rule="nonzero"/></clipPath><clipPath id="id45"><path d="M 347 177 L 360 177 L 360 202 L 347 202 Z M 347 177 " clip-rule="nonzero"/></clipPath><clipPath id="id46"><path d="M 297.960938 128.023438 L 373.464844 134.089844 L 360.253906 298.558594 L 284.75 292.496094 Z M 297.960938 128.023438 " clip-rule="nonzero"/></clipPath><clipPath id="id47"><path d="M 373.265625 134.074219 L 174.40625 118.101562 L 161.195312 282.570312 L 360.054688 298.542969 Z M 373.265625 134.074219 " clip-rule="nonzero"/></clipPath><clipPath id="id48"><path d="M 342 153 L 353 153 L 353 179 L 342 179 Z M 342 153 " clip-rule="nonzero"/></clipPath><clipPath id="id49"><path d="M 297.960938 128.023438 L 373.464844 134.089844 L 360.253906 298.558594 L 284.75 292.496094 Z M 297.960938 128.023438 " clip-rule="nonzero"/></clipPath><clipPath id="id50"><path d="M 373.265625 134.074219 L 174.40625 118.101562 L 161.195312 282.570312 L 360.054688 298.542969 Z M 373.265625 134.074219 " clip-rule="nonzero"/></clipPath><clipPath id="id51"><path d="M 325 133 L 336 133 L 336 159 L 325 159 Z M 325 133 " clip-rule="nonzero"/></clipPath><clipPath id="id52"><path d="M 297.960938 128.023438 L 373.464844 134.089844 L 360.253906 298.558594 L 284.75 292.496094 Z M 297.960938 128.023438 " clip-rule="nonzero"/></clipPath><clipPath id="id53"><path d="M 373.265625 134.074219 L 174.40625 118.101562 L 161.195312 282.570312 L 360.054688 298.542969 Z M 373.265625 134.074219 " clip-rule="nonzero"/></clipPath><clipPath id="id54"><path d="M 74.058594 63.855469 L 300.875 63.855469 L 300.875 311.160156 L 74.058594 311.160156 Z M 74.058594 63.855469 " clip-rule="nonzero"/></clipPath><clipPath id="id55"><path d="M 75.109375 66.972656 L 299.929688 66.972656 L 299.929688 307.78125 L 75.109375 307.78125 Z M 75.109375 66.972656 " clip-rule="nonzero"/></clipPath><clipPath id="id56"><path d="M 77.609375 67.726562 L 297.429688 67.726562 L 297.429688 307.035156 L 77.609375 307.035156 Z M 77.609375 67.726562 " clip-rule="nonzero"/></clipPath><clipPath id="id57"><path d="M 25 155 L 86 155 L 86 292 L 25 292 Z M 25 155 " clip-rule="nonzero"/></clipPath><clipPath id="id58"><path d="M 0.75 134.367188 L 76.234375 128.023438 L 90.054688 292.441406 L 14.570312 298.789062 Z M 0.75 134.367188 " clip-rule="nonzero"/></clipPath><clipPath id="id59"><path d="M 0.75 134.367188 L 199.550781 117.65625 L 213.371094 282.078125 L 14.570312 298.789062 Z M 0.75 134.367188 " clip-rule="nonzero"/></clipPath><clipPath id="id60"><path d="M 68 267 L 82 267 L 82 291 L 68 291 Z M 68 267 " clip-rule="nonzero"/></clipPath><clipPath id="id61"><path d="M 0.75 134.367188 L 76.234375 128.023438 L 90.054688 292.441406 L 14.570312 298.789062 Z M 0.75 134.367188 " clip-rule="nonzero"/></clipPath><clipPath id="id62"><path d="M 0.75 134.367188 L 199.550781 117.65625 L 213.371094 282.078125 L 14.570312 298.789062 Z M 0.75 134.367188 " clip-rule="nonzero"/></clipPath><clipPath id="id63"><path d="M 54 255 L 63 255 L 63 283 L 54 283 Z M 54 255 " clip-rule="nonzero"/></clipPath><clipPath id="id64"><path d="M 0.75 134.367188 L 76.234375 128.023438 L 90.054688 292.441406 L 14.570312 298.789062 Z M 0.75 134.367188 " clip-rule="nonzero"/></clipPath><clipPath id="id65"><path d="M 0.75 134.367188 L 199.550781 117.65625 L 213.371094 282.078125 L 14.570312 298.789062 Z M 0.75 134.367188 " clip-rule="nonzero"/></clipPath><clipPath id="id66"><path d="M 42 242 L 52 242 L 52 269 L 42 269 Z M 42 242 " clip-rule="nonzero"/></clipPath><clipPath id="id67"><path d="M 0.75 134.367188 L 76.234375 128.023438 L 90.054688 292.441406 L 14.570312 298.789062 Z M 0.75 134.367188 " clip-rule="nonzero"/></clipPath><clipPath id="id68"><path d="M 0.75 134.367188 L 199.550781 117.65625 L 213.371094 282.078125 L 14.570312 298.789062 Z M 0.75 134.367188 " clip-rule="nonzero"/></clipPath><clipPath id="id69"><path d="M 34 225 L 43 225 L 43 254 L 34 254 Z M 34 225 " clip-rule="nonzero"/></clipPath><clipPath id="id70"><path d="M 0.75 134.367188 L 76.234375 128.023438 L 90.054688 292.441406 L 14.570312 298.789062 Z M 0.75 134.367188 " clip-rule="nonzero"/></clipPath><clipPath id="id71"><path d="M 0.75 134.367188 L 199.550781 117.65625 L 213.371094 282.078125 L 14.570312 298.789062 Z M 0.75 134.367188 " clip-rule="nonzero"/></clipPath><clipPath id="id72"><path d="M 28 208 L 41 208 L 41 235 L 28 235 Z M 28 208 " clip-rule="nonzero"/></clipPath><clipPath id="id73"><path d="M 0.75 134.367188 L 76.234375 128.023438 L 90.054688 292.441406 L 14.570312 298.789062 Z M 0.75 134.367188 " clip-rule="nonzero"/></clipPath><clipPath id="id74"><path d="M 0.75 134.367188 L 199.550781 117.65625 L 213.371094 282.078125 L 14.570312 298.789062 Z M 0.75 134.367188 " clip-rule="nonzero"/></clipPath><clipPath id="id75"><path d="M 25 190 L 43 190 L 43 214 L 25 214 Z M 25 190 " clip-rule="nonzero"/></clipPath><clipPath id="id76"><path d="M 0.75 134.367188 L 76.234375 128.023438 L 90.054688 292.441406 L 14.570312 298.789062 Z M 0.75 134.367188 " clip-rule="nonzero"/></clipPath><clipPath id="id77"><path d="M 0.75 134.367188 L 199.550781 117.65625 L 213.371094 282.078125 L 14.570312 298.789062 Z M 0.75 134.367188 " clip-rule="nonzero"/></clipPath><clipPath id="id78"><path d="M 27 172 L 50 172 L 50 190 L 27 190 Z M 27 172 " clip-rule="nonzero"/></clipPath><clipPath id="id79"><path d="M 0.75 134.367188 L 76.234375 128.023438 L 90.054688 292.441406 L 14.570312 298.789062 Z M 0.75 134.367188 " clip-rule="nonzero"/></clipPath><clipPath id="id80"><path d="M 0.75 134.367188 L 199.550781 117.65625 L 213.371094 282.078125 L 14.570312 298.789062 Z M 0.75 134.367188 " clip-rule="nonzero"/></clipPath><clipPath id="id81"><path d="M 34 157 L 61 157 L 61 170 L 34 170 Z M 34 157 " clip-rule="nonzero"/></clipPath><clipPath id="id82"><path d="M 0.75 134.367188 L 76.234375 128.023438 L 90.054688 292.441406 L 14.570312 298.789062 Z M 0.75 134.367188 " clip-rule="nonzero"/></clipPath><clipPath id="id83"><path d="M 0.75 134.367188 L 199.550781 117.65625 L 213.371094 282.078125 L 14.570312 298.789062 Z M 0.75 134.367188 " clip-rule="nonzero"/></clipPath><clipPath id="id84"><path d="M 43 285 L 69 285 L 69 296 L 43 296 Z M 43 285 " clip-rule="nonzero"/></clipPath><clipPath id="id85"><path d="M 0.75 134.367188 L 76.234375 128.023438 L 90.054688 292.441406 L 14.570312 298.789062 Z M 0.75 134.367188 " clip-rule="nonzero"/></clipPath><clipPath id="id86"><path d="M 0.75 134.367188 L 199.550781 117.65625 L 213.371094 282.078125 L 14.570312 298.789062 Z M 0.75 134.367188 " clip-rule="nonzero"/></clipPath><clipPath id="id87"><path d="M 42.527344 287 L 68.390625 284.828125 L 69.183594 294.257812 L 43.320312 296.429688 Z M 42.527344 287 " clip-rule="nonzero"/></clipPath><clipPath id="id88"><path d="M 42.527344 287 L 68.390625 284.828125 L 69.179688 294.203125 L 43.316406 296.378906 Z M 42.527344 287 " clip-rule="nonzero"/></clipPath><clipPath id="id89"><path d="M 25 270 L 52 270 L 52 280 L 25 280 Z M 25 270 " clip-rule="nonzero"/></clipPath><clipPath id="id90"><path d="M 0.75 134.367188 L 76.234375 128.023438 L 90.054688 292.441406 L 14.570312 298.789062 Z M 0.75 134.367188 " clip-rule="nonzero"/></clipPath><clipPath id="id91"><path d="M 0.75 134.367188 L 199.550781 117.65625 L 213.371094 282.078125 L 14.570312 298.789062 Z M 0.75 134.367188 " clip-rule="nonzero"/></clipPath><clipPath id="id92"><path d="M 17 248 L 41 248 L 41 264 L 17 264 Z M 17 248 " clip-rule="nonzero"/></clipPath><clipPath id="id93"><path d="M 0.75 134.367188 L 76.234375 128.023438 L 90.054688 292.441406 L 14.570312 298.789062 Z M 0.75 134.367188 " clip-rule="nonzero"/></clipPath><clipPath id="id94"><path d="M 0.75 134.367188 L 199.550781 117.65625 L 213.371094 282.078125 L 14.570312 298.789062 Z M 0.75 134.367188 " clip-rule="nonzero"/></clipPath><clipPath id="id95"><path d="M 11 229 L 33 229 L 33 247 L 11 247 Z M 11 229 " clip-rule="nonzero"/></clipPath><clipPath id="id96"><path d="M 0.75 134.367188 L 76.234375 128.023438 L 90.054688 292.441406 L 14.570312 298.789062 Z M 0.75 134.367188 " clip-rule="nonzero"/></clipPath><clipPath id="id97"><path d="M 0.75 134.367188 L 199.550781 117.65625 L 213.371094 282.078125 L 14.570312 298.789062 Z M 0.75 134.367188 " clip-rule="nonzero"/></clipPath><clipPath id="id98"><path d="M 9 206 L 28 206 L 28 226 L 9 226 Z M 9 206 " clip-rule="nonzero"/></clipPath><clipPath id="id99"><path d="M 0.75 134.367188 L 76.234375 128.023438 L 90.054688 292.441406 L 14.570312 298.789062 Z M 0.75 134.367188 " clip-rule="nonzero"/></clipPath><clipPath id="id100"><path d="M 0.75 134.367188 L 199.550781 117.65625 L 213.371094 282.078125 L 14.570312 298.789062 Z M 0.75 134.367188 " clip-rule="nonzero"/></clipPath><clipPath id="id101"><path d="M 15 177 L 27 177 L 27 202 L 15 202 Z M 15 177 " clip-rule="nonzero"/></clipPath><clipPath id="id102"><path d="M 0.75 134.367188 L 76.234375 128.023438 L 90.054688 292.441406 L 14.570312 298.789062 Z M 0.75 134.367188 " clip-rule="nonzero"/></clipPath><clipPath id="id103"><path d="M 0.75 134.367188 L 199.550781 117.65625 L 213.371094 282.078125 L 14.570312 298.789062 Z M 0.75 134.367188 " clip-rule="nonzero"/></clipPath><clipPath id="id104"><path d="M 21 153 L 32 153 L 32 179 L 21 179 Z M 21 153 " clip-rule="nonzero"/></clipPath><clipPath id="id105"><path d="M 0.75 134.367188 L 76.234375 128.023438 L 90.054688 292.441406 L 14.570312 298.789062 Z M 0.75 134.367188 " clip-rule="nonzero"/></clipPath><clipPath id="id106"><path d="M 0.75 134.367188 L 199.550781 117.65625 L 213.371094 282.078125 L 14.570312 298.789062 Z M 0.75 134.367188 " clip-rule="nonzero"/></clipPath><clipPath id="id107"><path d="M 38 133 L 49 133 L 49 159 L 38 159 Z M 38 133 " clip-rule="nonzero"/></clipPath><clipPath id="id108"><path d="M 0.75 134.367188 L 76.234375 128.023438 L 90.054688 292.441406 L 14.570312 298.789062 Z M 0.75 134.367188 " clip-rule="nonzero"/></clipPath><clipPath id="id109"><path d="M 0.75 134.367188 L 199.550781 117.65625 L 213.371094 282.078125 L 14.570312 298.789062 Z M 0.75 134.367188 " clip-rule="nonzero"/></clipPath></defs><g clip-path="url(#id1)"><g clip-path="url(#id2)"><g clip-path="url(#id3)"><path fill="rgb(100%, 100%, 100%)" d="M 289.015625 291.546875 C 289.03125 291.550781 289.042969 291.550781 289.058594 291.550781 C 300.195312 290.824219 310.761719 286.425781 319.617188 278.832031 C 330.136719 269.808594 338.21875 256.484375 343.636719 239.230469 C 355.554688 201.292969 344.777344 170.257812 331.929688 155.210938 C 331.824219 155.085938 331.640625 155.074219 331.515625 155.179688 C 331.390625 155.285156 331.375 155.472656 331.480469 155.59375 C 344.230469 170.527344 354.917969 201.347656 343.074219 239.054688 C 333.214844 270.445312 313.511719 289.363281 289.023438 290.957031 C 288.859375 290.96875 288.734375 291.109375 288.746094 291.273438 C 288.753906 291.421875 288.871094 291.535156 289.015625 291.546875 " fill-opacity="1" fill-rule="nonzero"/></g></g></g><g clip-path="url(#id4)"><g clip-path="url(#id5)"><g clip-path="url(#id6)"><path fill="rgb(100%, 100%, 100%)" d="M 293.832031 290.496094 C 293.832031 290.496094 303.0625 292.644531 305.078125 275.859375 C 306.726562 262.136719 308.445312 267.367188 300.816406 273.960938 C 291.101562 282.355469 293.832031 290.496094 293.832031 290.496094 " fill-opacity="1" fill-rule="nonzero"/></g></g></g><g clip-path="url(#id7)"><g clip-path="url(#id8)"><g clip-path="url(#id9)"><path fill="rgb(100%, 100%, 100%)" d="M 314.636719 281.96875 C 314.636719 281.96875 323.941406 280.15625 318.960938 264.007812 C 314.882812 250.804688 318.582031 254.878906 314.292969 264.019531 C 308.832031 275.652344 314.636719 281.96875 314.636719 281.96875 " fill-opacity="1" fill-rule="nonzero"/></g></g></g><g clip-path="url(#id10)"><g clip-path="url(#id11)"><g clip-path="url(#id12)"><path fill="rgb(100%, 100%, 100%)" d="M 328.851562 268.078125 C 328.851562 268.078125 337.269531 263.710938 327.953125 249.625 C 320.335938 238.109375 325.027344 240.972656 323.476562 250.953125 C 321.507812 263.65625 328.851562 268.078125 328.851562 268.078125 " fill-opacity="1" fill-rule="nonzero"/></g></g></g><g clip-path="url(#id13)"><g clip-path="url(#id14)"><g clip-path="url(#id15)"><path fill="rgb(100%, 100%, 100%)" d="M 337.695312 253.316406 C 337.695312 253.316406 344.957031 246.058594 335.640625 231.976562 C 328.023438 220.457031 333.871094 226.210938 332.324219 236.191406 C 330.355469 248.898438 337.695312 253.316406 337.695312 253.316406 " fill-opacity="1" fill-rule="nonzero"/></g></g></g><g clip-path="url(#id16)"><g clip-path="url(#id17)"><g clip-path="url(#id18)"><path fill="rgb(100%, 100%, 100%)" d="M 344.53125 234.585938 C 344.53125 234.585938 350.355469 226.128906 338.640625 213.976562 C 329.0625 204.039062 335.855469 208.632812 336.144531 218.726562 C 336.507812 231.578125 344.53125 234.585938 344.53125 234.585938 " fill-opacity="1" fill-rule="nonzero"/></g></g></g><g clip-path="url(#id19)"><g clip-path="url(#id20)"><g clip-path="url(#id21)"><path fill="rgb(100%, 100%, 100%)" d="M 347.996094 213.308594 C 347.996094 213.308594 351.972656 203.839844 338.023438 194.34375 C 326.617188 186.582031 334.207031 189.6875 336.546875 199.507812 C 339.527344 212.007812 347.996094 213.308594 347.996094 213.308594 " fill-opacity="1" fill-rule="nonzero"/></g></g></g><g clip-path="url(#id22)"><g clip-path="url(#id23)"><g clip-path="url(#id24)"><path fill="rgb(100%, 100%, 100%)" d="M 347.074219 189.742188 C 347.074219 189.742188 348.074219 179.511719 331.945312 174.589844 C 318.757812 170.558594 326.925781 171.269531 332.0625 179.957031 C 338.601562 191.011719 347.074219 189.742188 347.074219 189.742188 " fill-opacity="1" fill-rule="nonzero"/></g></g></g><g clip-path="url(#id25)"><g clip-path="url(#id26)"><g clip-path="url(#id27)"><path fill="rgb(100%, 100%, 100%)" d="M 339.9375 168.621094 C 339.9375 168.621094 338.355469 158.46875 321.511719 157.738281 C 307.738281 157.144531 315.820312 155.785156 322.960938 162.910156 C 332.046875 171.976562 339.9375 168.621094 339.9375 168.621094 " fill-opacity="1" fill-rule="nonzero"/></g></g></g><g clip-path="url(#id28)"><g clip-path="url(#id29)"><g clip-path="url(#id30)"><g clip-path="url(#id31)"><g clip-path="url(#id32)"><path fill="rgb(100%, 100%, 100%)" d="M 306.105469 287.078125 C 306.105469 287.078125 304.96875 296.9375 322.527344 294.75 C 336.214844 293.050781 331.546875 296.074219 323.390625 290.152344 C 313.003906 282.617188 306.105469 287.078125 306.105469 287.078125 " fill-opacity="1" fill-rule="nonzero"/></g></g></g></g></g><g clip-path="url(#id33)"><g clip-path="url(#id34)"><g clip-path="url(#id35)"><path fill="rgb(100%, 100%, 100%)" d="M 323.085938 275.292969 C 323.085938 275.292969 326.183594 284.71875 341.210938 275.34375 C 352.917969 268.042969 349.949219 272.75 340.0625 270.8125 C 327.480469 268.34375 323.085938 275.292969 323.085938 275.292969 " fill-opacity="1" fill-rule="nonzero"/></g></g></g><g clip-path="url(#id36)"><g clip-path="url(#id37)"><g clip-path="url(#id38)"><path fill="rgb(100%, 100%, 100%)" d="M 333.957031 260.828125 C 333.957031 260.828125 339.929688 268.734375 351.121094 254.992188 C 359.839844 244.28125 358.554688 249.695312 348.574219 251.074219 C 335.871094 252.824219 333.957031 260.828125 333.957031 260.828125 " fill-opacity="1" fill-rule="nonzero"/></g></g></g><g clip-path="url(#id39)"><g clip-path="url(#id40)"><g clip-path="url(#id41)"><path fill="rgb(100%, 100%, 100%)" d="M 341.605469 244.191406 C 341.605469 244.191406 348.3125 251.480469 358.121094 236.714844 C 365.765625 225.207031 365.007812 230.726562 355.210938 233.0625 C 342.734375 236.042969 341.605469 244.191406 341.605469 244.191406 " fill-opacity="1" fill-rule="nonzero"/></g></g></g><g clip-path="url(#id42)"><g clip-path="url(#id43)"><g clip-path="url(#id44)"><path fill="rgb(100%, 100%, 100%)" d="M 346.722656 224.515625 C 346.722656 224.515625 354.796875 230.25 361.335938 213.765625 C 366.433594 200.917969 366.835938 206.472656 357.730469 210.800781 C 346.140625 216.308594 346.722656 224.515625 346.722656 224.515625 " fill-opacity="1" fill-rule="nonzero"/></g></g></g><g clip-path="url(#id45)"><g clip-path="url(#id46)"><g clip-path="url(#id47)"><path fill="rgb(100%, 100%, 100%)" d="M 348.636719 201.414062 C 348.636719 201.414062 358.210938 203.925781 358.535156 186.191406 C 358.789062 172.371094 361.117188 177.425781 354.117188 184.6875 C 345.207031 193.9375 348.636719 201.414062 348.636719 201.414062 " fill-opacity="1" fill-rule="nonzero"/></g></g></g><g clip-path="url(#id48)"><g clip-path="url(#id49)"><g clip-path="url(#id50)"><path fill="rgb(100%, 100%, 100%)" d="M 343.972656 178.191406 C 343.972656 178.191406 353.746094 179.753906 352.339844 162.070312 C 351.238281 148.292969 354.046875 153.09375 347.792969 161.011719 C 339.828125 171.089844 343.972656 178.191406 343.972656 178.191406 " fill-opacity="1" fill-rule="nonzero"/></g></g></g><g clip-path="url(#id51)"><g clip-path="url(#id52)"><g clip-path="url(#id53)"><path fill="rgb(100%, 100%, 100%)" d="M 333.914062 158.28125 C 333.914062 158.28125 339.84375 153.425781 330.433594 141 C 322.097656 129.992188 326.832031 132.605469 326.078125 142.675781 C 325.117188 155.496094 333.914062 158.28125 333.914062 158.28125 " fill-opacity="1" fill-rule="nonzero"/></g></g></g><g clip-path="url(#id54)"><path fill="rgb(100%, 100%, 100%)" d="M 298.175781 126.363281 L 190.019531 64.539062 C 188.433594 63.628906 186.5 63.628906 184.914062 64.539062 L 76.757812 126.363281 C 75.152344 127.28125 74.160156 128.988281 74.160156 130.835938 L 74.160156 244.179688 C 74.160156 246.027344 75.152344 247.734375 76.757812 248.652344 L 184.914062 310.480469 C 185.707031 310.933594 186.582031 311.160156 187.464844 311.160156 C 188.351562 311.160156 189.226562 310.933594 190.019531 310.480469 L 298.175781 248.652344 C 299.78125 247.734375 300.769531 246.027344 300.769531 244.179688 L 300.769531 130.835938 C 300.769531 128.988281 299.78125 127.28125 298.175781 126.363281 Z M 290.472656 241.191406 L 187.464844 300.070312 L 84.460938 241.191406 L 84.460938 133.824219 L 187.464844 74.945312 L 290.472656 133.824219 Z M 290.472656 241.191406 " fill-opacity="1" fill-rule="nonzero"/></g><g clip-path="url(#id55)"><path fill="rgb(100%, 100%, 100%)" d="M 244.863281 132.5 C 236.671875 132.488281 228.894531 134.269531 221.90625 137.472656 C 213.035156 141.535156 205.429688 147.894531 199.855469 155.785156 L 199.613281 156.125 L 189.261719 169.988281 L 186.785156 173.308594 L 162.34375 206.046875 L 162.257812 205.980469 C 155.730469 216.507812 143.828125 223.554688 130.222656 223.554688 C 109.601562 223.554688 92.882812 207.363281 92.882812 187.390625 C 92.882812 167.417969 109.601562 151.226562 130.222656 151.226562 C 150.84375 151.226562 167.5625 167.417969 167.5625 187.390625 C 167.5625 188.78125 167.480469 190.152344 167.320312 191.503906 L 184.960938 167.875 L 185.179688 167.582031 L 185.179688 66.984375 C 175.449219 66.984375 167.5625 74.859375 167.5625 84.578125 L 167.5625 147.121094 C 163.308594 143.183594 158.429688 139.910156 153.089844 137.464844 C 146.105469 134.269531 138.328125 132.488281 130.136719 132.5 C 99.730469 132.546875 75.265625 157.019531 75.265625 187.390625 C 75.265625 217.707031 99.871094 242.28125 130.222656 242.28125 C 138.390625 242.28125 146.136719 240.503906 153.105469 237.308594 C 162.144531 233.167969 169.871094 226.648438 175.46875 218.550781 L 185.570312 205.296875 L 188.292969 201.722656 L 189.824219 199.710938 L 189.824219 199.707031 L 212.160156 169.792969 C 218.542969 158.71875 230.761719 151.226562 244.785156 151.226562 C 265.410156 151.226562 282.128906 167.417969 282.128906 187.390625 C 282.128906 207.363281 265.410156 223.554688 244.785156 223.554688 C 224.164062 223.554688 207.445312 207.363281 207.445312 187.390625 C 207.445312 186.160156 207.511719 184.9375 207.636719 183.738281 L 190.171875 207.199219 L 189.832031 207.652344 L 189.832031 307.796875 C 199.5625 307.796875 207.445312 299.921875 207.445312 290.203125 L 207.445312 227.660156 C 211.699219 231.597656 216.582031 234.871094 221.921875 237.316406 C 228.882812 240.503906 236.625 242.28125 244.785156 242.28125 C 275.140625 242.28125 299.742188 217.707031 299.742188 187.390625 C 299.742188 157.015625 275.277344 132.539062 244.863281 132.5 " fill-opacity="1" fill-rule="nonzero"/></g><g clip-path="url(#id56)"><path fill="rgb(100%, 100%, 100%)" d="M 294.8125 128.210938 L 189.996094 68.382812 C 188.457031 67.507812 186.582031 67.507812 185.042969 68.382812 L 80.226562 128.210938 C 78.667969 129.097656 77.710938 130.753906 77.710938 132.539062 L 77.710938 242.222656 C 77.710938 244.007812 78.667969 245.660156 80.226562 246.550781 L 185.042969 306.375 C 185.8125 306.816406 186.660156 307.035156 187.519531 307.035156 C 188.378906 307.035156 189.226562 306.816406 189.996094 306.375 L 294.8125 246.550781 C 296.371094 245.660156 297.328125 244.007812 297.328125 242.222656 L 297.328125 132.539062 C 297.328125 130.753906 296.371094 129.097656 294.8125 128.210938 Z M 287.347656 239.328125 L 187.519531 296.304688 L 87.691406 239.328125 L 87.691406 135.429688 L 187.519531 78.457031 L 287.347656 135.429688 Z M 287.347656 239.328125 " fill-opacity="1" fill-rule="nonzero"/></g><g fill="rgb(100%, 100%, 100%)" fill-opacity="1"><g transform="translate(52.826895, 127.62951)"><g><path d="M -5.503906 -24.074219 C -6.9375 -24.1875 -8.21875 -24.015625 -9.328125 -23.539062 C -10.441406 -23.066406 -11.371094 -22.3125 -12.054688 -21.289062 L -16.511719 -14.636719 C -16.597656 -14.507812 -16.605469 -14.382812 -16.519531 -14.273438 C -16.445312 -14.144531 -16.324219 -14.089844 -16.191406 -14.128906 C -15.605469 -14.214844 -15.042969 -14.101562 -14.550781 -13.773438 L 0.125 -3.941406 C 0.617188 -3.609375 0.933594 -3.132812 1.078125 -2.558594 C 1.109375 -2.40625 1.1875 -2.328125 1.335938 -2.308594 C 1.46875 -2.273438 1.566406 -2.339844 1.652344 -2.46875 L 6.109375 -9.121094 C 6.796875 -10.144531 7.15625 -11.277344 7.171875 -12.484375 C 7.1875 -13.691406 6.878906 -14.933594 6.230469 -16.214844 C 5.726562 -17.160156 5.050781 -18.089844 4.203125 -19 C 3.359375 -19.914062 2.382812 -20.75 1.269531 -21.496094 C 0.171875 -22.230469 -0.972656 -22.8125 -2.136719 -23.25 C -3.300781 -23.6875 -4.417969 -23.957031 -5.503906 -24.074219 Z M 2.34375 -14.210938 C 2.550781 -13.808594 2.683594 -13.453125 2.746094 -13.148438 C 2.804688 -12.84375 2.828125 -12.5625 2.804688 -12.367188 C 2.785156 -12.140625 2.742188 -11.957031 2.65625 -11.828125 C 2.589844 -11.691406 2.527344 -11.597656 2.492188 -11.542969 L 1.121094 -9.496094 C 0.996094 -9.3125 0.832031 -9.1875 0.601562 -9.15625 C 0.375 -9.097656 0.171875 -9.152344 -0.0078125 -9.273438 L -9.347656 -15.53125 C -9.585938 -15.6875 -9.738281 -15.898438 -9.796875 -16.203125 C -9.859375 -16.507812 -9.800781 -16.789062 -9.632812 -17.042969 L -8.417969 -18.851562 C -8.148438 -19.253906 -7.726562 -19.527344 -7.195312 -19.648438 C -6.648438 -19.757812 -6.03125 -19.769531 -5.359375 -19.664062 C -4.703125 -19.539062 -3.996094 -19.332031 -3.25 -19.019531 C -2.519531 -18.6875 -1.8125 -18.320312 -1.15625 -17.878906 C -0.351562 -17.339844 0.355469 -16.734375 0.96875 -16.109375 C 1.574219 -15.46875 2.027344 -14.84375 2.34375 -14.210938 Z M 2.34375 -14.210938 "/></g></g></g><g fill="rgb(100%, 100%, 100%)" fill-opacity="1"><g transform="translate(63.121957, 111.991736)"><g><path d="M -4.109375 -28.558594 L -7.300781 -24.890625 C -7.402344 -24.773438 -7.425781 -24.648438 -7.371094 -24.542969 C -7.3125 -24.40625 -7.230469 -24.335938 -7.089844 -24.328125 C -6.542969 -24.320312 -6.066406 -24.167969 -5.683594 -23.835938 L 3.992188 -15.417969 C 4.507812 -14.972656 4.789062 -14.492188 4.855469 -14.027344 C 4.933594 -13.550781 4.902344 -13.113281 4.773438 -12.699219 C 4.648438 -12.285156 4.484375 -11.929688 4.289062 -11.632812 C 4.089844 -11.339844 3.945312 -11.175781 3.886719 -11.109375 C 3.832031 -11.042969 3.671875 -10.859375 3.40625 -10.621094 C 3.144531 -10.386719 2.816406 -10.175781 2.421875 -9.992188 C 2.03125 -9.808594 1.597656 -9.714844 1.113281 -9.730469 C 0.648438 -9.726562 0.148438 -9.957031 -0.367188 -10.40625 L -10.042969 -18.820312 C -10.441406 -19.167969 -10.675781 -19.605469 -10.742188 -20.128906 C -10.78125 -20.25 -10.867188 -20.324219 -10.992188 -20.375 C -11.121094 -20.398438 -11.242188 -20.359375 -11.328125 -20.261719 L -14.519531 -16.589844 C -14.621094 -16.476562 -14.640625 -16.347656 -14.589844 -16.242188 C -14.53125 -16.109375 -14.449219 -16.035156 -14.308594 -16.03125 C -13.777344 -16.035156 -13.316406 -15.863281 -12.917969 -15.519531 L -3.238281 -7.101562 C -2.410156 -6.378906 -1.5 -5.882812 -0.515625 -5.609375 C 0.46875 -5.335938 1.472656 -5.277344 2.519531 -5.476562 C 3.410156 -5.632812 4.246094 -5.957031 5.039062 -6.433594 C 5.851562 -6.894531 6.554688 -7.503906 7.191406 -8.234375 C 7.828125 -8.964844 8.320312 -9.734375 8.664062 -10.597656 C 9.023438 -11.449219 9.230469 -12.320312 9.261719 -13.226562 C 9.308594 -14.292969 9.117188 -15.277344 8.707031 -16.214844 C 8.300781 -17.152344 7.679688 -17.984375 6.851562 -18.703125 L -2.824219 -27.121094 C -3.191406 -27.4375 -3.425781 -27.875 -3.523438 -28.429688 C -3.550781 -28.566406 -3.632812 -28.640625 -3.777344 -28.675781 C -3.902344 -28.699219 -4.023438 -28.660156 -4.109375 -28.558594 Z M -4.109375 -28.558594 "/></g></g></g><g fill="rgb(100%, 100%, 100%)" fill-opacity="1"><g transform="translate(76.37419, 96.675317)"><g><path d="M 4.851562 -19.328125 C 4.742188 -19.316406 4.652344 -19.351562 4.578125 -19.433594 C 4.503906 -19.488281 4.460938 -19.566406 4.449219 -19.675781 C 4.378906 -20.320312 4.210938 -20.9375 3.945312 -21.527344 C 3.667969 -22.105469 3.339844 -22.636719 2.914062 -23.113281 C 2.386719 -23.703125 1.710938 -24.191406 0.957031 -24.578125 C 0.179688 -24.949219 -0.648438 -25.148438 -1.535156 -25.183594 C -2.421875 -25.21875 -3.332031 -25.050781 -4.300781 -24.714844 C -5.257812 -24.363281 -6.207031 -23.777344 -7.128906 -22.957031 L -12.359375 -18.28125 C -12.472656 -18.179688 -12.511719 -18.054688 -12.457031 -17.929688 C -12.417969 -17.785156 -12.3125 -17.703125 -12.171875 -17.710938 C -11.585938 -17.644531 -11.070312 -17.398438 -10.671875 -16.957031 L 1.085938 -3.804688 C 1.496094 -3.34375 1.683594 -2.804688 1.683594 -2.210938 C 1.703125 -2.054688 1.777344 -1.972656 1.898438 -1.933594 C 2.019531 -1.867188 2.132812 -1.90625 2.246094 -2.007812 L 8.183594 -7.316406 C 9.101562 -8.136719 9.804688 -9 10.261719 -9.910156 C 10.714844 -10.820312 10.96875 -11.722656 11.035156 -12.609375 C 11.101562 -13.492188 11.007812 -14.324219 10.722656 -15.132812 C 10.441406 -15.914062 10.042969 -16.621094 9.488281 -17.246094 C 8.902344 -17.898438 8.195312 -18.390625 7.40625 -18.746094 C 6.617188 -19.101562 5.753906 -19.308594 4.851562 -19.328125 Z M -3.496094 -15.464844 L -5.417969 -17.613281 C -5.550781 -17.757812 -5.617188 -17.933594 -5.605469 -18.152344 C -5.578125 -18.351562 -5.503906 -18.535156 -5.339844 -18.683594 L -4.210938 -19.695312 C -3.800781 -20.058594 -3.394531 -20.332031 -2.996094 -20.515625 C -2.613281 -20.679688 -2.246094 -20.800781 -1.917969 -20.828125 C -1.574219 -20.839844 -1.296875 -20.792969 -1.023438 -20.683594 C -0.75 -20.574219 -0.507812 -20.40625 -0.332031 -20.207031 C 0.0351562 -19.800781 0.175781 -19.308594 0.113281 -18.75 C 0.0390625 -17.976562 -0.441406 -17.191406 -1.292969 -16.429688 L -2.425781 -15.417969 C -2.585938 -15.273438 -2.761719 -15.203125 -2.980469 -15.214844 C -3.183594 -15.210938 -3.351562 -15.300781 -3.496094 -15.464844 Z M 6.6875 -12.882812 C 6.613281 -12.109375 6.132812 -11.324219 5.28125 -10.5625 L 3.410156 -8.890625 C 3.246094 -8.746094 3.070312 -8.675781 2.855469 -8.6875 C 2.652344 -8.683594 2.46875 -8.789062 2.324219 -8.953125 L 0.417969 -11.085938 C 0.285156 -11.230469 0.21875 -11.40625 0.230469 -11.625 C 0.242188 -11.84375 0.316406 -12.023438 0.480469 -12.171875 L 2.347656 -13.84375 C 2.757812 -14.210938 3.164062 -14.484375 3.546875 -14.648438 C 3.929688 -14.8125 4.308594 -14.917969 4.636719 -14.945312 C 4.980469 -14.957031 5.277344 -14.925781 5.550781 -14.816406 C 5.824219 -14.707031 6.0625 -14.539062 6.238281 -14.339844 C 6.59375 -13.949219 6.734375 -13.457031 6.6875 -12.882812 Z M 6.6875 -12.882812 "/></g></g></g><g fill="rgb(100%, 100%, 100%)" fill-opacity="1"><g transform="translate(90.308056, 84.09251)"><g><path d="M 7.148438 -18.601562 C 7.039062 -18.605469 6.953125 -18.652344 6.890625 -18.742188 C 6.820312 -18.800781 6.789062 -18.886719 6.792969 -18.996094 C 6.796875 -19.640625 6.703125 -20.273438 6.515625 -20.894531 C 6.308594 -21.5 6.046875 -22.066406 5.679688 -22.589844 C 5.226562 -23.242188 4.617188 -23.808594 3.914062 -24.28125 C 3.191406 -24.742188 2.390625 -25.042969 1.515625 -25.183594 C 0.640625 -25.324219 -0.285156 -25.269531 -1.289062 -25.054688 C -2.28125 -24.820312 -3.292969 -24.355469 -4.304688 -23.648438 L -10.0625 -19.636719 C -10.191406 -19.550781 -10.242188 -19.433594 -10.203125 -19.300781 C -10.179688 -19.152344 -10.085938 -19.058594 -9.949219 -19.046875 C -9.371094 -18.914062 -8.886719 -18.605469 -8.550781 -18.117188 L 1.535156 -3.644531 C 1.886719 -3.140625 2.007812 -2.578125 1.9375 -1.992188 C 1.941406 -1.832031 2.003906 -1.742188 2.121094 -1.691406 C 2.230469 -1.609375 2.347656 -1.636719 2.472656 -1.722656 L 9.007812 -6.273438 C 10.015625 -6.980469 10.820312 -7.753906 11.382812 -8.601562 C 11.945312 -9.449219 12.304688 -10.316406 12.476562 -11.183594 C 12.648438 -12.054688 12.652344 -12.890625 12.472656 -13.730469 C 12.285156 -14.539062 11.976562 -15.289062 11.5 -15.972656 C 10.996094 -16.695312 10.355469 -17.269531 9.613281 -17.71875 C 8.871094 -18.164062 8.042969 -18.472656 7.148438 -18.601562 Z M -1.605469 -15.773438 L -3.253906 -18.136719 C -3.367188 -18.296875 -3.414062 -18.480469 -3.375 -18.695312 C -3.324219 -18.890625 -3.230469 -19.0625 -3.046875 -19.191406 L -1.804688 -20.058594 C -1.351562 -20.371094 -0.917969 -20.59375 -0.5 -20.726562 C -0.0976562 -20.84375 0.277344 -20.917969 0.609375 -20.90625 C 0.949219 -20.878906 1.21875 -20.796875 1.480469 -20.65625 C 1.738281 -20.515625 1.957031 -20.316406 2.109375 -20.101562 C 2.421875 -19.648438 2.503906 -19.144531 2.375 -18.601562 C 2.207031 -17.839844 1.636719 -17.121094 0.699219 -16.464844 L -0.546875 -15.597656 C -0.726562 -15.472656 -0.910156 -15.425781 -1.121094 -15.464844 C -1.324219 -15.484375 -1.480469 -15.589844 -1.605469 -15.773438 Z M 8.195312 -11.980469 C 8.027344 -11.222656 7.453125 -10.503906 6.515625 -9.847656 L 4.457031 -8.414062 C 4.277344 -8.289062 4.097656 -8.242188 3.882812 -8.28125 C 3.679688 -8.300781 3.511719 -8.425781 3.386719 -8.605469 L 1.753906 -10.953125 C 1.640625 -11.117188 1.59375 -11.296875 1.632812 -11.511719 C 1.667969 -11.726562 1.761719 -11.898438 1.945312 -12.023438 L 4 -13.457031 C 4.453125 -13.773438 4.886719 -13.996094 5.289062 -14.113281 C 5.6875 -14.230469 6.078125 -14.289062 6.40625 -14.277344 C 6.75 -14.246094 7.039062 -14.179688 7.296875 -14.039062 C 7.554688 -13.898438 7.773438 -13.699219 7.925781 -13.484375 C 8.226562 -13.050781 8.308594 -12.546875 8.195312 -11.980469 Z M 8.195312 -11.980469 "/></g></g></g><g fill="rgb(100%, 100%, 100%)" fill-opacity="1"><g transform="translate(105.775685, 73.299792)"><g><path d="M 11.765625 -11.875 L 11.636719 -11.554688 C 11.527344 -11.246094 11.335938 -11.042969 11.085938 -10.90625 L 5.085938 -7.667969 C 4.949219 -7.597656 4.8125 -7.570312 4.691406 -7.605469 C 4.554688 -7.632812 4.453125 -7.726562 4.371094 -7.882812 L -2.777344 -21.125 C -3.015625 -21.570312 -3.082031 -22.058594 -2.960938 -22.574219 L -2.953125 -22.605469 C -2.945312 -22.730469 -2.996094 -22.828125 -3.097656 -22.925781 C -3.210938 -22.988281 -3.335938 -22.996094 -3.453125 -22.933594 L -7.730469 -20.625 C -7.867188 -20.550781 -7.933594 -20.441406 -7.917969 -20.324219 C -7.914062 -20.175781 -7.863281 -20.078125 -7.734375 -20.023438 C -7.234375 -19.84375 -6.859375 -19.519531 -6.621094 -19.074219 L 2.617188 -1.960938 C 2.6875 -1.828125 2.789062 -1.730469 2.929688 -1.707031 C 3.058594 -1.652344 3.195312 -1.675781 3.332031 -1.746094 L 13.164062 -7.054688 C 13.417969 -7.191406 13.699219 -7.21875 14.007812 -7.160156 L 14.34375 -7.09375 C 14.484375 -7.066406 14.582031 -7.121094 14.664062 -7.242188 C 14.742188 -7.332031 14.746094 -7.460938 14.671875 -7.59375 L 12.363281 -11.871094 C 12.300781 -11.988281 12.191406 -12.054688 12.0625 -12.058594 C 11.925781 -12.035156 11.828125 -11.984375 11.765625 -11.875 Z M 11.765625 -11.875 "/></g></g></g><g fill="rgb(100%, 100%, 100%)" fill-opacity="1"><g transform="translate(120.190235, 65.386002)"><g><path d="M 6.585938 -26.417969 C 6.371094 -25.953125 6.019531 -25.644531 5.570312 -25.464844 L -5.296875 -21.066406 C -5.441406 -21.007812 -5.515625 -20.90625 -5.507812 -20.765625 C -5.519531 -20.617188 -5.480469 -20.515625 -5.355469 -20.449219 L -5.269531 -20.410156 C -4.796875 -20.175781 -4.457031 -19.8125 -4.261719 -19.324219 L 2.441406 -2.765625 C 2.539062 -2.523438 2.589844 -2.28125 2.597656 -2.023438 C 2.605469 -1.765625 2.566406 -1.511719 2.46875 -1.285156 L 2.433594 -1.199219 C 2.402344 -1.042969 2.441406 -0.941406 2.554688 -0.84375 C 2.644531 -0.738281 2.761719 -0.738281 2.90625 -0.796875 L 13.773438 -5.195312 C 14.222656 -5.375 14.695312 -5.378906 15.167969 -5.210938 C 15.308594 -5.152344 15.441406 -5.179688 15.539062 -5.292969 C 15.644531 -5.382812 15.683594 -5.515625 15.617188 -5.679688 L 13.777344 -10.226562 C 13.726562 -10.347656 13.625 -10.425781 13.480469 -10.4375 C 13.339844 -10.429688 13.226562 -10.359375 13.175781 -10.246094 C 12.949219 -9.75 12.589844 -9.414062 12.097656 -9.214844 L 6.105469 -6.789062 C 5.960938 -6.730469 5.824219 -6.722656 5.679688 -6.785156 C 5.542969 -6.824219 5.453125 -6.929688 5.386719 -7.09375 L 4.148438 -10.152344 C 4.09375 -10.292969 4.082031 -10.433594 4.144531 -10.574219 C 4.214844 -10.699219 4.3125 -10.808594 4.453125 -10.867188 L 6.25 -11.59375 C 6.738281 -11.792969 7.238281 -11.78125 7.738281 -11.605469 C 7.875 -11.5625 7.976562 -11.605469 8.074219 -11.714844 C 8.171875 -11.824219 8.191406 -11.953125 8.140625 -12.074219 L 6.308594 -16.601562 C 6.261719 -16.722656 6.164062 -16.78125 6.019531 -16.792969 C 5.871094 -16.804688 5.769531 -16.761719 5.691406 -16.660156 C 5.464844 -16.164062 5.105469 -15.828125 4.613281 -15.632812 L 2.820312 -14.90625 C 2.675781 -14.847656 2.539062 -14.839844 2.394531 -14.898438 C 2.261719 -14.9375 2.167969 -15.046875 2.105469 -15.207031 L 0.867188 -18.265625 C 0.808594 -18.410156 0.800781 -18.546875 0.859375 -18.691406 C 0.929688 -18.816406 1.027344 -18.925781 1.167969 -18.984375 L 7.164062 -21.410156 C 7.652344 -21.605469 8.15625 -21.597656 8.65625 -21.417969 C 8.777344 -21.351562 8.910156 -21.378906 9.007812 -21.488281 C 9.113281 -21.582031 9.132812 -21.707031 9.074219 -21.851562 L 7.226562 -26.417969 C 7.175781 -26.539062 7.054688 -26.609375 6.90625 -26.621094 C 6.769531 -26.613281 6.652344 -26.542969 6.585938 -26.417969 Z M 6.585938 -26.417969 "/></g></g></g><g fill="rgb(100%, 100%, 100%)" fill-opacity="1"><g transform="translate(148.249527, 55.089899)"><g><path d="M 14.902344 -24.855469 C 14.8125 -24.972656 14.710938 -25.023438 14.605469 -25 L 14.601562 -25.023438 L 9.175781 -23.996094 C 9.023438 -23.964844 8.929688 -23.878906 8.910156 -23.742188 C 8.871094 -23.601562 8.914062 -23.476562 9.039062 -23.410156 C 9.253906 -23.226562 9.316406 -23.015625 9.226562 -22.773438 L 7.40625 -17.390625 C 7.378906 -17.296875 7.296875 -17.257812 7.210938 -17.242188 C 7.125 -17.222656 7.054688 -17.234375 6.996094 -17.3125 L 3.328125 -21.65625 C 3.152344 -21.867188 3.132812 -22.085938 3.292969 -22.320312 C 3.363281 -22.421875 3.335938 -22.550781 3.269531 -22.671875 C 3.203125 -22.792969 3.082031 -22.839844 2.953125 -22.816406 L -2.496094 -21.78125 L -2.46875 -21.765625 C -2.597656 -21.738281 -2.695312 -21.65625 -2.714844 -21.515625 C -2.738281 -21.421875 -2.726562 -21.355469 -2.695312 -21.296875 C -2.65625 -21.214844 -2.605469 -21.179688 -2.53125 -21.148438 L -2.507812 -21.128906 C -2.183594 -20.96875 -1.878906 -20.777344 -1.613281 -20.5625 C -1.347656 -20.34375 -1.078125 -20.101562 -0.847656 -19.832031 L 5.121094 -12.792969 C 5.75 -12.0625 6.15625 -11.21875 6.335938 -10.269531 L 7.648438 -3.351562 C 7.738281 -2.878906 7.648438 -2.414062 7.394531 -1.984375 C 7.289062 -1.828125 7.285156 -1.71875 7.375 -1.601562 C 7.445312 -1.476562 7.5625 -1.433594 7.738281 -1.46875 L 12.578125 -2.382812 C 12.707031 -2.410156 12.808594 -2.472656 12.828125 -2.609375 C 12.84375 -2.75 12.824219 -2.855469 12.71875 -2.949219 C 12.277344 -3.269531 12.019531 -3.6875 11.917969 -4.207031 L 10.617188 -11.082031 C 10.441406 -12.007812 10.488281 -12.9375 10.804688 -13.871094 L 13.78125 -22.605469 C 14.011719 -23.277344 14.367188 -23.882812 14.867188 -24.445312 C 14.980469 -24.558594 15 -24.695312 14.902344 -24.855469 Z M 14.902344 -24.855469 "/></g></g></g><g fill="rgb(100%, 100%, 100%)" fill-opacity="1"><g transform="translate(166.968216, 51.452156)"><g><path d="M 15.390625 -19.480469 C 14.484375 -20.523438 13.441406 -21.292969 12.304688 -21.8125 C 11.148438 -22.3125 9.964844 -22.542969 8.734375 -22.460938 C 7.507812 -22.382812 6.339844 -21.996094 5.257812 -21.351562 C 4.179688 -20.6875 3.269531 -19.789062 2.503906 -18.636719 C 1.78125 -17.554688 1.265625 -16.351562 0.953125 -15.054688 C 0.621094 -13.753906 0.511719 -12.378906 0.605469 -10.972656 C 0.695312 -9.570312 0.984375 -8.222656 1.484375 -6.976562 C 1.964844 -5.707031 2.628906 -4.601562 3.488281 -3.644531 C 4.394531 -2.601562 5.414062 -1.808594 6.570312 -1.3125 C 7.730469 -0.792969 8.933594 -0.585938 10.164062 -0.664062 C 11.390625 -0.746094 12.535156 -1.105469 13.617188 -1.773438 C 14.679688 -2.414062 15.609375 -3.335938 16.371094 -4.488281 C 17.097656 -5.550781 17.613281 -6.730469 17.945312 -8.054688 C 18.257812 -9.351562 18.386719 -10.726562 18.296875 -12.132812 C 18.203125 -13.535156 17.894531 -14.882812 17.417969 -16.128906 C 16.917969 -17.375 16.25 -18.5 15.390625 -19.480469 Z M 9.878906 -5.011719 C 9.265625 -4.972656 8.660156 -5.109375 8.109375 -5.425781 C 7.539062 -5.738281 7.023438 -6.167969 6.589844 -6.734375 C 6.136719 -7.300781 5.761719 -7.984375 5.46875 -8.757812 C 5.171875 -9.53125 5.007812 -10.359375 4.949219 -11.257812 C 4.894531 -12.136719 4.945312 -13 5.136719 -13.804688 C 5.324219 -14.613281 5.609375 -15.3125 5.988281 -15.957031 C 6.34375 -16.574219 6.796875 -17.089844 7.320312 -17.476562 C 7.824219 -17.863281 8.40625 -18.074219 9.019531 -18.117188 C 9.636719 -18.15625 10.21875 -18.019531 10.789062 -17.703125 C 11.339844 -17.386719 11.855469 -16.933594 12.289062 -16.367188 C 12.722656 -15.777344 13.097656 -15.121094 13.390625 -14.347656 C 13.683594 -13.570312 13.871094 -12.722656 13.929688 -11.847656 C 13.988281 -10.945312 13.910156 -10.101562 13.71875 -9.296875 C 13.53125 -8.492188 13.246094 -7.765625 12.890625 -7.148438 C 12.535156 -6.53125 12.082031 -6.039062 11.578125 -5.652344 C 11.050781 -5.265625 10.492188 -5.050781 9.878906 -5.011719 Z M 9.878906 -5.011719 "/></g></g></g><g fill="rgb(100%, 100%, 100%)" fill-opacity="1"><g transform="translate(185.681535, 50.07824)"><g><path d="M 20.132812 -20.667969 L 15.28125 -20.960938 C 15.128906 -20.96875 15.011719 -20.910156 14.960938 -20.804688 C 14.890625 -20.675781 14.882812 -20.566406 14.964844 -20.453125 C 15.289062 -20.011719 15.460938 -19.539062 15.429688 -19.035156 L 14.65625 -6.234375 C 14.617188 -5.554688 14.40625 -5.035156 14.078125 -4.703125 C 13.75 -4.347656 13.382812 -4.105469 12.976562 -3.953125 C 12.570312 -3.804688 12.191406 -3.714844 11.835938 -3.691406 C 11.484375 -3.671875 11.261719 -3.683594 11.175781 -3.6875 C 11.085938 -3.695312 10.847656 -3.707031 10.496094 -3.773438 C 10.148438 -3.839844 9.78125 -3.972656 9.398438 -4.171875 C 9.011719 -4.371094 8.675781 -4.65625 8.390625 -5.046875 C 8.105469 -5.417969 7.984375 -5.953125 8.023438 -6.632812 L 8.796875 -19.433594 C 8.828125 -19.960938 9.03125 -20.414062 9.410156 -20.785156 C 9.480469 -20.890625 9.488281 -21.003906 9.453125 -21.136719 C 9.390625 -21.25 9.285156 -21.324219 9.15625 -21.332031 L 4.300781 -21.625 C 4.148438 -21.632812 4.035156 -21.574219 3.984375 -21.464844 C 3.910156 -21.339844 3.902344 -21.230469 3.984375 -21.113281 C 4.3125 -20.699219 4.460938 -20.226562 4.429688 -19.699219 L 3.65625 -6.898438 C 3.589844 -5.800781 3.75 -4.777344 4.132812 -3.828125 C 4.515625 -2.878906 5.082031 -2.050781 5.875 -1.34375 C 6.546875 -0.730469 7.308594 -0.265625 8.171875 0.0742188 C 9.03125 0.433594 9.945312 0.621094 10.910156 0.679688 C 11.878906 0.738281 12.785156 0.660156 13.683594 0.40625 C 14.578125 0.175781 15.394531 -0.195312 16.132812 -0.722656 C 17.003906 -1.332031 17.667969 -2.085938 18.164062 -2.980469 C 18.65625 -3.875 18.9375 -4.875 19.003906 -5.972656 L 19.777344 -18.773438 C 19.804688 -19.253906 20.007812 -19.707031 20.386719 -20.125 C 20.480469 -20.230469 20.488281 -20.339844 20.429688 -20.472656 C 20.371094 -20.585938 20.265625 -20.660156 20.132812 -20.667969 Z M 20.132812 -20.667969 "/></g></g></g><g fill="rgb(100%, 100%, 100%)" fill-opacity="1"><g transform="translate(205.887389, 51.228206)"><g><path d="M 17.78125 2.808594 L 17.507812 2.488281 C 17.214844 2.140625 16.976562 1.738281 16.8125 1.304688 L 14.945312 -3.484375 C 14.882812 -3.628906 14.867188 -3.789062 14.941406 -3.953125 C 15.015625 -4.097656 15.125 -4.210938 15.296875 -4.289062 C 15.910156 -4.578125 16.46875 -4.917969 16.953125 -5.34375 C 17.671875 -5.945312 18.28125 -6.679688 18.753906 -7.53125 C 19.230469 -8.382812 19.582031 -9.300781 19.769531 -10.292969 C 19.957031 -11.289062 19.96875 -12.292969 19.839844 -13.257812 C 19.707031 -14.222656 19.410156 -15.128906 18.964844 -15.976562 C 18.429688 -16.929688 17.710938 -17.734375 16.84375 -18.371094 C 15.953125 -18.988281 14.941406 -19.425781 13.816406 -19.636719 L 6.984375 -20.929688 C 6.835938 -20.960938 6.714844 -20.914062 6.648438 -20.792969 C 6.558594 -20.675781 6.558594 -20.5625 6.644531 -20.4375 C 6.917969 -19.980469 7.027344 -19.492188 6.929688 -18.972656 L 3.574219 -1.25 C 3.476562 -0.75 3.222656 -0.351562 2.828125 -0.046875 C 2.675781 0.0585938 2.632812 0.164062 2.671875 0.304688 C 2.691406 0.441406 2.789062 0.527344 2.960938 0.5625 L 7.800781 1.476562 C 7.933594 1.503906 8.046875 1.480469 8.117188 1.359375 C 8.183594 1.238281 8.203125 1.128906 8.140625 0.980469 C 7.847656 0.523438 7.757812 0.0585938 7.855469 -0.460938 L 8.453125 -3.617188 C 8.484375 -3.789062 8.558594 -3.929688 8.710938 -4.035156 C 8.867188 -4.140625 9.03125 -4.179688 9.203125 -4.144531 L 9.722656 -4.046875 C 9.9375 -4.007812 10.113281 -3.859375 10.203125 -3.640625 L 12.054688 1.140625 C 12.125 1.355469 12.070312 1.523438 11.90625 1.671875 L 11.882812 1.691406 C 11.769531 1.804688 11.75 1.910156 11.789062 2.054688 C 11.808594 2.191406 11.910156 2.253906 12.058594 2.285156 L 17.527344 3.320312 C 17.679688 3.347656 17.777344 3.300781 17.847656 3.179688 C 17.914062 3.058594 17.890625 2.941406 17.78125 2.808594 Z M 14.160156 -8.691406 C 13.488281 -8.101562 12.648438 -7.925781 11.632812 -8.117188 L 10.011719 -8.425781 C 9.839844 -8.457031 9.699219 -8.53125 9.59375 -8.683594 C 9.488281 -8.835938 9.472656 -8.996094 9.503906 -9.171875 L 10.636719 -15.136719 C 10.667969 -15.308594 10.738281 -15.453125 10.894531 -15.558594 C 11.046875 -15.660156 11.210938 -15.699219 11.382812 -15.664062 L 13.003906 -15.359375 C 13.785156 -15.210938 14.335938 -14.925781 14.703125 -14.5 C 15.066406 -14.070312 15.296875 -13.625 15.429688 -13.152344 C 15.542969 -12.683594 15.597656 -12.25 15.566406 -11.851562 C 15.535156 -11.453125 15.507812 -11.191406 15.492188 -11.105469 C 15.394531 -10.585938 15.214844 -10.125 15.003906 -9.71875 C 14.773438 -9.316406 14.480469 -8.964844 14.160156 -8.691406 Z M 14.160156 -8.691406 "/></g></g></g><g fill="rgb(100%, 100%, 100%)" fill-opacity="1"><g transform="translate(236.544827, 58.212897)"><g><path d="M 22.585938 -15.675781 C 22.109375 -15.488281 21.640625 -15.507812 21.191406 -15.6875 L 19.191406 -16.492188 C 17.703125 -17.089844 16.242188 -17.347656 14.792969 -17.289062 C 13.347656 -17.230469 11.980469 -16.832031 10.65625 -16.128906 C 9.5 -15.503906 8.492188 -14.699219 7.609375 -13.679688 C 6.722656 -12.660156 6.046875 -11.507812 5.523438 -10.203125 C 5.015625 -8.9375 4.71875 -7.609375 4.640625 -6.242188 C 4.558594 -4.855469 4.714844 -3.535156 5.15625 -2.265625 C 5.585938 -0.980469 6.273438 0.199219 7.226562 1.246094 C 8.175781 2.3125 9.445312 3.15625 11.039062 3.796875 L 13.039062 4.601562 C 13.488281 4.78125 13.832031 5.109375 14.054688 5.554688 C 14.117188 5.695312 14.230469 5.765625 14.378906 5.753906 C 14.515625 5.761719 14.617188 5.683594 14.683594 5.523438 L 16.511719 0.96875 C 16.5625 0.847656 16.542969 0.722656 16.445312 0.609375 C 16.339844 0.519531 16.226562 0.5 16.113281 0.546875 C 15.585938 0.738281 15.09375 0.730469 14.621094 0.542969 L 12.664062 -0.246094 C 11.5625 -0.6875 10.726562 -1.261719 10.183594 -1.976562 C 9.632812 -2.671875 9.273438 -3.433594 9.121094 -4.230469 C 8.957031 -5.007812 8.921875 -5.800781 9.039062 -6.5625 C 9.152344 -7.320312 9.335938 -8.007812 9.5625 -8.578125 C 9.890625 -9.394531 10.328125 -10.121094 10.875 -10.777344 C 11.414062 -11.414062 12.042969 -11.921875 12.714844 -12.292969 C 14.199219 -13.09375 15.8125 -13.15625 17.570312 -12.449219 L 19.527344 -11.664062 C 19.996094 -11.476562 20.351562 -11.117188 20.609375 -10.636719 C 20.648438 -10.5 20.742188 -10.441406 20.890625 -10.453125 C 21.027344 -10.445312 21.132812 -10.519531 21.1875 -10.664062 L 23.027344 -15.234375 C 23.074219 -15.359375 23.054688 -15.484375 22.957031 -15.597656 C 22.851562 -15.6875 22.71875 -15.714844 22.585938 -15.675781 Z M 22.585938 -15.675781 "/></g></g></g><g fill="rgb(100%, 100%, 100%)" fill-opacity="1"><g transform="translate(252.242663, 64.351595)"><g><path d="M 16.066406 8.121094 L 15.902344 7.730469 C 15.730469 7.3125 15.628906 6.855469 15.605469 6.390625 L 15.292969 1.261719 C 15.277344 1.105469 15.3125 0.949219 15.4375 0.8125 C 15.546875 0.699219 15.6875 0.625 15.875 0.601562 C 16.546875 0.519531 17.183594 0.363281 17.773438 0.109375 C 18.640625 -0.246094 19.449219 -0.757812 20.160156 -1.421875 C 20.871094 -2.085938 21.488281 -2.851562 21.972656 -3.742188 C 22.457031 -4.628906 22.777344 -5.582031 22.945312 -6.542969 C 23.117188 -7.5 23.113281 -8.457031 22.949219 -9.398438 C 22.730469 -10.46875 22.292969 -11.457031 21.664062 -12.328125 C 21.003906 -13.1875 20.171875 -13.914062 19.167969 -14.460938 L 13.0625 -17.785156 C 12.925781 -17.859375 12.800781 -17.851562 12.699219 -17.757812 C 12.578125 -17.671875 12.542969 -17.566406 12.585938 -17.417969 C 12.707031 -16.902344 12.660156 -16.402344 12.40625 -15.9375 L 3.785156 -0.09375 C 3.542969 0.351562 3.175781 0.652344 2.707031 0.824219 C 2.527344 0.875 2.457031 0.960938 2.453125 1.109375 C 2.425781 1.246094 2.492188 1.355469 2.648438 1.441406 L 6.972656 3.796875 C 7.089844 3.859375 7.207031 3.875 7.308594 3.777344 C 7.410156 3.683594 7.464844 3.585938 7.449219 3.429688 C 7.3125 2.902344 7.367188 2.433594 7.617188 1.96875 L 9.15625 -0.851562 C 9.238281 -1.007812 9.351562 -1.121094 9.53125 -1.171875 C 9.710938 -1.226562 9.875 -1.210938 10.03125 -1.125 L 10.496094 -0.875 C 10.6875 -0.769531 10.808594 -0.578125 10.828125 -0.339844 L 11.125 4.777344 C 11.125 5.003906 11.023438 5.148438 10.820312 5.242188 L 10.792969 5.25 C 10.652344 5.324219 10.597656 5.417969 10.59375 5.566406 C 10.570312 5.703125 10.644531 5.796875 10.78125 5.867188 L 15.667969 8.53125 C 15.804688 8.601562 15.914062 8.585938 16.015625 8.492188 C 16.117188 8.398438 16.128906 8.28125 16.066406 8.121094 Z M 16.144531 -3.933594 C 15.324219 -3.578125 14.46875 -3.667969 13.5625 -4.164062 L 12.113281 -4.953125 C 11.957031 -5.035156 11.84375 -5.148438 11.792969 -5.328125 C 11.738281 -5.507812 11.773438 -5.664062 11.859375 -5.816406 L 14.761719 -11.148438 C 14.84375 -11.304688 14.957031 -11.417969 15.136719 -11.472656 C 15.316406 -11.523438 15.480469 -11.507812 15.636719 -11.425781 L 17.085938 -10.636719 C 17.78125 -10.257812 18.21875 -9.816406 18.4375 -9.296875 C 18.65625 -8.777344 18.734375 -8.285156 18.71875 -7.792969 C 18.683594 -7.3125 18.597656 -6.882812 18.449219 -6.511719 C 18.296875 -6.144531 18.191406 -5.902344 18.148438 -5.824219 C 17.894531 -5.359375 17.585938 -4.976562 17.261719 -4.652344 C 16.914062 -4.339844 16.53125 -4.097656 16.144531 -3.933594 Z M 16.144531 -3.933594 "/></g></g></g><g fill="rgb(100%, 100%, 100%)" fill-opacity="1"><g transform="translate(269.15696, 73.453366)"><g><path d="M 28.269531 -6.371094 C 28.292969 -6.515625 28.261719 -6.621094 28.171875 -6.6875 L 28.183594 -6.703125 L 23.695312 -9.917969 C 23.570312 -10.007812 23.445312 -10.019531 23.332031 -9.9375 C 23.199219 -9.867188 23.140625 -9.75 23.179688 -9.613281 C 23.195312 -9.332031 23.085938 -9.140625 22.847656 -9.039062 L 17.695312 -6.640625 C 17.609375 -6.597656 17.523438 -6.628906 17.453125 -6.679688 C 17.382812 -6.734375 17.339844 -6.789062 17.355469 -6.886719 L 17.96875 -12.535156 C 18 -12.808594 18.148438 -12.976562 18.421875 -13.023438 C 18.546875 -13.042969 18.625 -13.148438 18.664062 -13.28125 C 18.707031 -13.414062 18.65625 -13.53125 18.546875 -13.609375 L 14.042969 -16.839844 L 14.046875 -16.808594 C 13.9375 -16.882812 13.8125 -16.894531 13.699219 -16.8125 C 13.613281 -16.765625 13.574219 -16.714844 13.550781 -16.648438 C 13.519531 -16.5625 13.527344 -16.5 13.558594 -16.425781 L 13.5625 -16.398438 C 13.667969 -16.050781 13.738281 -15.699219 13.765625 -15.359375 C 13.789062 -15.015625 13.800781 -14.65625 13.765625 -14.300781 L 12.789062 -5.125 C 12.699219 -4.160156 12.367188 -3.289062 11.804688 -2.5 L 7.703125 3.222656 C 7.421875 3.613281 7.023438 3.871094 6.539062 3.980469 C 6.355469 4.011719 6.273438 4.089844 6.25 4.234375 C 6.207031 4.367188 6.257812 4.484375 6.402344 4.585938 L 10.40625 7.457031 C 10.515625 7.535156 10.628906 7.5625 10.742188 7.480469 C 10.855469 7.398438 10.917969 7.308594 10.910156 7.167969 C 10.835938 6.628906 10.964844 6.152344 11.269531 5.722656 L 15.34375 0.0351562 C 15.894531 -0.734375 16.601562 -1.339844 17.492188 -1.753906 L 25.871094 -5.628906 C 26.515625 -5.921875 27.199219 -6.082031 27.953125 -6.113281 C 28.109375 -6.109375 28.222656 -6.1875 28.269531 -6.371094 Z M 28.269531 -6.371094 "/></g></g></g><g fill="rgb(100%, 100%, 100%)" fill-opacity="1"><g transform="translate(284.716766, 84.537981)"><g><path d="M 24.582031 -3.574219 C 24.625 -4.667969 24.4375 -5.730469 24.035156 -6.726562 C 23.601562 -7.71875 22.96875 -8.625 22.125 -9.398438 L 16.945312 -14.132812 C 16.832031 -14.234375 16.707031 -14.261719 16.585938 -14.195312 C 16.449219 -14.140625 16.390625 -14.046875 16.398438 -13.890625 C 16.390625 -13.296875 16.199219 -12.761719 15.796875 -12.320312 L 3.894531 0.699219 C 3.476562 1.152344 2.972656 1.378906 2.382812 1.433594 C 2.214844 1.457031 2.125 1.523438 2.082031 1.667969 C 2.027344 1.792969 2.078125 1.898438 2.191406 2.003906 L 5.859375 5.359375 C 5.957031 5.449219 6.070312 5.488281 6.191406 5.421875 C 6.3125 5.355469 6.386719 5.273438 6.410156 5.117188 C 6.402344 4.632812 6.558594 4.238281 6.855469 3.914062 L 9.023438 1.542969 C 9.171875 1.378906 9.351562 1.277344 9.601562 1.269531 C 9.820312 1.257812 10.023438 1.328125 10.203125 1.488281 L 11.273438 2.46875 C 12.117188 3.242188 13.0625 3.808594 14.089844 4.148438 C 15.101562 4.480469 16.179688 4.570312 17.277344 4.414062 C 18.207031 4.277344 19.109375 3.972656 19.960938 3.5 C 20.8125 3.023438 21.59375 2.429688 22.277344 1.683594 C 22.960938 0.933594 23.5 0.0859375 23.894531 -0.804688 C 24.292969 -1.691406 24.515625 -2.621094 24.582031 -3.574219 Z M 16.664062 0.0976562 C 15.785156 0.246094 14.976562 -0.046875 14.214844 -0.746094 L 12.980469 -1.871094 C 12.851562 -1.992188 12.78125 -2.113281 12.773438 -2.300781 C 12.75 -2.46875 12.808594 -2.597656 12.925781 -2.726562 L 17.082031 -7.273438 C 17.1875 -7.386719 17.308594 -7.453125 17.496094 -7.460938 C 17.679688 -7.46875 17.824219 -7.429688 17.953125 -7.3125 L 19.1875 -6.183594 C 19.769531 -5.648438 20.089844 -5.117188 20.175781 -4.5625 C 20.265625 -4.003906 20.226562 -3.503906 20.089844 -3.03125 C 19.9375 -2.574219 19.753906 -2.175781 19.519531 -1.855469 C 19.285156 -1.53125 19.125 -1.320312 19.0625 -1.257812 C 18.707031 -0.867188 18.316406 -0.570312 17.921875 -0.335938 C 17.511719 -0.113281 17.082031 0.03125 16.664062 0.0976562 Z M 16.664062 0.0976562 "/></g></g></g><g fill="rgb(100%, 100%, 100%)" fill-opacity="1"><g transform="translate(297.964339, 96.488157)"><g><path d="M 28.222656 -1.597656 L 28.191406 -1.601562 C 27.667969 -1.671875 27.246094 -1.890625 26.917969 -2.273438 L 19.53125 -10.832031 C 19.1875 -11.234375 19.03125 -11.683594 19.039062 -12.210938 L 19.058594 -12.226562 C 19.019531 -12.367188 18.949219 -12.453125 18.8125 -12.507812 C 18.675781 -12.566406 18.582031 -12.542969 18.480469 -12.457031 L 14.78125 -9.265625 C 14.667969 -9.164062 14.613281 -9.058594 14.664062 -8.929688 C 14.699219 -8.789062 14.773438 -8.703125 14.925781 -8.664062 C 15.449219 -8.59375 15.886719 -8.390625 16.234375 -7.988281 L 18.214844 -5.691406 C 18.289062 -5.605469 18.328125 -5.496094 18.316406 -5.371094 C 18.308594 -5.246094 18.253906 -5.140625 18.171875 -5.070312 L 6.710938 4.816406 C 6.308594 5.160156 5.84375 5.328125 5.332031 5.304688 L 5.300781 5.304688 C 5.144531 5.324219 5.0625 5.394531 5.003906 5.53125 C 4.933594 5.652344 4.972656 5.761719 5.070312 5.878906 L 8.261719 9.578125 C 8.347656 9.675781 8.4375 9.714844 8.582031 9.679688 C 8.726562 9.644531 8.808594 9.570312 8.863281 9.433594 C 8.921875 8.894531 9.136719 8.472656 9.539062 8.128906 L 21.015625 -1.773438 C 21.097656 -1.84375 21.210938 -1.882812 21.335938 -1.871094 C 21.457031 -1.863281 21.550781 -1.824219 21.636719 -1.726562 L 23.617188 0.574219 C 23.964844 0.972656 24.101562 1.433594 24.078125 1.949219 L 24.09375 1.964844 C 24.097656 2.105469 24.167969 2.1875 24.304688 2.246094 C 24.425781 2.316406 24.550781 2.292969 24.667969 2.195312 L 28.367188 -0.996094 C 28.464844 -1.082031 28.488281 -1.1875 28.453125 -1.332031 C 28.417969 -1.476562 28.34375 -1.558594 28.222656 -1.597656 Z M 28.222656 -1.597656 "/></g></g></g><g fill="rgb(100%, 100%, 100%)" fill-opacity="1"><g transform="translate(310.353801, 110.702596)"><g><path d="M 24.570312 3.550781 C 25.019531 2.246094 25.164062 0.957031 25.042969 -0.285156 C 24.894531 -1.535156 24.5 -2.675781 23.816406 -3.699219 C 23.128906 -4.722656 22.210938 -5.539062 21.113281 -6.152344 C 19.996094 -6.753906 18.761719 -7.09375 17.382812 -7.175781 C 16.082031 -7.257812 14.785156 -7.101562 13.503906 -6.71875 C 12.210938 -6.355469 10.96875 -5.761719 9.796875 -4.976562 C 8.628906 -4.195312 7.605469 -3.269531 6.777344 -2.210938 C 5.921875 -1.160156 5.300781 -0.03125 4.902344 1.191406 C 4.453125 2.496094 4.28125 3.777344 4.429688 5.027344 C 4.558594 6.292969 4.984375 7.4375 5.671875 8.460938 C 6.355469 9.484375 7.242188 10.292969 8.359375 10.894531 C 9.449219 11.488281 10.710938 11.835938 12.089844 11.917969 C 13.371094 12.011719 14.652344 11.867188 15.964844 11.492188 C 17.242188 11.109375 18.5 10.535156 19.667969 9.75 C 20.839844 8.964844 21.847656 8.023438 22.6875 6.984375 C 23.515625 5.929688 24.152344 4.785156 24.570312 3.550781 Z M 9.289062 6.035156 C 8.945312 5.523438 8.761719 4.933594 8.757812 4.296875 C 8.746094 3.644531 8.859375 2.984375 9.132812 2.328125 C 9.394531 1.648438 9.792969 0.984375 10.316406 0.339844 C 10.839844 -0.300781 11.472656 -0.859375 12.222656 -1.359375 C 12.953125 -1.847656 13.726562 -2.234375 14.519531 -2.476562 C 15.3125 -2.714844 16.0625 -2.820312 16.808594 -2.816406 C 17.519531 -2.820312 18.191406 -2.6875 18.792969 -2.425781 C 19.378906 -2.183594 19.855469 -1.785156 20.199219 -1.273438 C 20.539062 -0.761719 20.710938 -0.191406 20.726562 0.460938 C 20.726562 1.097656 20.59375 1.769531 20.324219 2.425781 C 20.03125 3.097656 19.648438 3.753906 19.125 4.394531 C 18.601562 5.035156 17.960938 5.625 17.230469 6.113281 C 16.484375 6.617188 15.714844 6.972656 14.921875 7.210938 C 14.128906 7.453125 13.359375 7.570312 12.648438 7.570312 C 11.933594 7.574219 11.28125 7.429688 10.695312 7.183594 C 10.09375 6.925781 9.632812 6.546875 9.289062 6.035156 Z M 9.289062 6.035156 "/></g></g></g><g fill="rgb(100%, 100%, 100%)" fill-opacity="1"><g transform="translate(87.063606, 314.465041)"><g><path d="M 24.144531 -5.195312 C 24.273438 -6.625 24.117188 -7.910156 23.660156 -9.027344 C 23.199219 -10.144531 22.457031 -11.082031 21.441406 -11.78125 L 14.847656 -16.324219 C 14.722656 -16.410156 14.59375 -16.417969 14.480469 -16.335938 C 14.351562 -16.265625 14.296875 -16.144531 14.335938 -16.007812 C 14.414062 -15.421875 14.292969 -14.863281 13.957031 -14.371094 L 3.9375 0.175781 C 3.601562 0.664062 3.121094 0.972656 2.546875 1.113281 C 2.394531 1.140625 2.3125 1.21875 2.292969 1.363281 C 2.253906 1.5 2.320312 1.597656 2.445312 1.683594 L 9.039062 6.226562 C 10.054688 6.925781 11.183594 7.300781 12.390625 7.332031 C 13.597656 7.363281 14.84375 7.070312 16.132812 6.4375 C 17.085938 5.945312 18.023438 5.28125 18.945312 4.449219 C 19.867188 3.613281 20.71875 2.648438 21.480469 1.542969 C 22.226562 0.457031 22.824219 -0.679688 23.273438 -1.839844 C 23.726562 -2.996094 24.011719 -4.109375 24.144531 -5.195312 Z M 14.179688 2.527344 C 13.773438 2.726562 13.417969 2.855469 13.109375 2.914062 C 12.804688 2.96875 12.523438 2.988281 12.328125 2.960938 C 12.105469 2.941406 11.921875 2.894531 11.792969 2.808594 C 11.65625 2.738281 11.566406 2.675781 11.511719 2.640625 L 9.480469 1.242188 C 9.300781 1.117188 9.175781 0.949219 9.148438 0.71875 C 9.089844 0.492188 9.148438 0.289062 9.273438 0.109375 L 15.648438 -9.148438 C 15.8125 -9.382812 16.019531 -9.53125 16.328125 -9.589844 C 16.632812 -9.644531 16.914062 -9.585938 17.164062 -9.410156 L 18.960938 -8.175781 C 19.359375 -7.902344 19.625 -7.476562 19.738281 -6.945312 C 19.839844 -6.394531 19.84375 -5.777344 19.730469 -5.109375 C 19.597656 -4.453125 19.378906 -3.746094 19.058594 -3.007812 C 18.71875 -2.28125 18.339844 -1.578125 17.890625 -0.925781 C 17.34375 -0.128906 16.726562 0.570312 16.097656 1.175781 C 15.445312 1.769531 14.816406 2.21875 14.179688 2.527344 Z M 14.179688 2.527344 "/></g></g></g><g fill="rgb(100%, 100%, 100%)" fill-opacity="1"><g transform="translate(105.39301, 326.994933)"><g><path d="M 26.609375 -11.15625 L 22.257812 -13.324219 C 22.117188 -13.390625 21.992188 -13.382812 21.902344 -13.300781 C 21.785156 -13.214844 21.734375 -13.117188 21.765625 -12.976562 C 21.894531 -12.445312 21.867188 -11.945312 21.640625 -11.492188 L 15.925781 -0.0117188 C 15.625 0.601562 15.230469 0.996094 14.796875 1.171875 C 14.355469 1.371094 13.921875 1.449219 13.488281 1.429688 C 13.058594 1.410156 12.671875 1.34375 12.339844 1.226562 C 12.003906 1.109375 11.808594 1.011719 11.726562 0.972656 C 11.648438 0.933594 11.433594 0.824219 11.136719 0.628906 C 10.84375 0.433594 10.554688 0.167969 10.28125 -0.167969 C 10.003906 -0.5 9.804688 -0.894531 9.699219 -1.367188 C 9.578125 -1.820312 9.675781 -2.359375 9.980469 -2.96875 L 15.691406 -14.453125 C 15.929688 -14.925781 16.292969 -15.257812 16.78125 -15.457031 C 16.890625 -15.527344 16.941406 -15.625 16.960938 -15.761719 C 16.949219 -15.890625 16.878906 -16 16.761719 -16.058594 L 12.410156 -18.222656 C 12.273438 -18.292969 12.144531 -18.28125 12.054688 -18.203125 C 11.9375 -18.113281 11.890625 -18.015625 11.917969 -17.878906 C 12.058594 -17.367188 12.007812 -16.875 11.773438 -16.402344 L 6.058594 -4.921875 C 5.570312 -3.9375 5.316406 -2.933594 5.300781 -1.910156 C 5.28125 -0.886719 5.480469 0.0976562 5.933594 1.0625 C 6.308594 1.886719 6.832031 2.613281 7.492188 3.261719 C 8.144531 3.929688 8.910156 4.460938 9.777344 4.890625 C 10.644531 5.320312 11.511719 5.605469 12.4375 5.722656 C 13.351562 5.859375 14.246094 5.835938 15.132812 5.636719 C 16.171875 5.417969 17.078125 4.984375 17.882812 4.355469 C 18.6875 3.722656 19.335938 2.914062 19.828125 1.929688 L 25.539062 -9.550781 C 25.753906 -9.984375 26.117188 -10.320312 26.628906 -10.558594 C 26.757812 -10.617188 26.808594 -10.714844 26.804688 -10.863281 C 26.796875 -10.988281 26.726562 -11.097656 26.609375 -11.15625 Z M 26.609375 -11.15625 "/></g></g></g><g fill="rgb(100%, 100%, 100%)" fill-opacity="1"><g transform="translate(126.724975, 337.401199)"><g><path d="M 19.179688 -5.410156 C 19.117188 -5.5 19.101562 -5.597656 19.136719 -5.703125 C 19.144531 -5.792969 19.191406 -5.867188 19.28125 -5.929688 C 19.804688 -6.316406 20.253906 -6.769531 20.636719 -7.289062 C 20.996094 -7.820312 21.296875 -8.367188 21.496094 -8.972656 C 21.746094 -9.726562 21.835938 -10.554688 21.792969 -11.402344 C 21.730469 -12.257812 21.492188 -13.078125 21.078125 -13.863281 C 20.667969 -14.648438 20.070312 -15.359375 19.296875 -16.03125 C 18.515625 -16.683594 17.535156 -17.21875 16.367188 -17.605469 L 9.707031 -19.816406 C 9.558594 -19.867188 9.433594 -19.835938 9.351562 -19.726562 C 9.246094 -19.621094 9.226562 -19.488281 9.300781 -19.371094 C 9.539062 -18.828125 9.582031 -18.257812 9.394531 -17.695312 L 3.839844 -0.953125 C 3.644531 -0.367188 3.269531 0.0664062 2.753906 0.359375 C 2.628906 0.457031 2.59375 0.558594 2.625 0.683594 C 2.625 0.824219 2.714844 0.902344 2.859375 0.949219 L 10.417969 3.457031 C 11.585938 3.84375 12.6875 4.023438 13.703125 3.96875 C 14.71875 3.910156 15.628906 3.679688 16.429688 3.296875 C 17.226562 2.914062 17.902344 2.417969 18.464844 1.769531 C 19 1.136719 19.414062 0.441406 19.679688 -0.351562 C 19.957031 -1.1875 20.03125 -2.042969 19.945312 -2.90625 C 19.863281 -3.769531 19.609375 -4.617188 19.179688 -5.410156 Z M 11.671875 -10.726562 L 12.578125 -13.464844 C 12.640625 -13.652344 12.761719 -13.796875 12.953125 -13.894531 C 13.140625 -13.972656 13.335938 -14 13.546875 -13.929688 L 14.988281 -13.453125 C 15.507812 -13.28125 15.945312 -13.0625 16.300781 -12.808594 C 16.636719 -12.558594 16.921875 -12.300781 17.109375 -12.03125 C 17.292969 -11.738281 17.390625 -11.472656 17.429688 -11.179688 C 17.472656 -10.890625 17.445312 -10.597656 17.363281 -10.347656 C 17.191406 -9.824219 16.835938 -9.457031 16.320312 -9.230469 C 15.613281 -8.910156 14.695312 -8.9375 13.609375 -9.296875 L 12.167969 -9.777344 C 11.957031 -9.84375 11.8125 -9.964844 11.714844 -10.15625 C 11.609375 -10.332031 11.601562 -10.519531 11.671875 -10.726562 Z M 14.503906 -0.609375 C 13.792969 -0.289062 12.875 -0.316406 11.789062 -0.675781 L 9.410156 -1.464844 C 9.199219 -1.535156 9.054688 -1.652344 8.957031 -1.847656 C 8.851562 -2.023438 8.851562 -2.230469 8.921875 -2.441406 L 9.820312 -5.152344 C 9.882812 -5.339844 10.003906 -5.488281 10.199219 -5.585938 C 10.390625 -5.683594 10.585938 -5.710938 10.796875 -5.640625 L 13.175781 -4.851562 C 13.699219 -4.679688 14.136719 -4.464844 14.46875 -4.214844 C 14.804688 -3.964844 15.082031 -3.6875 15.269531 -3.414062 C 15.453125 -3.125 15.570312 -2.851562 15.613281 -2.558594 C 15.65625 -2.269531 15.628906 -1.976562 15.542969 -1.726562 C 15.378906 -1.222656 15.023438 -0.855469 14.503906 -0.609375 Z M 14.503906 -0.609375 "/></g></g></g><g fill="rgb(100%, 100%, 100%)" fill-opacity="1"><g transform="translate(147.765417, 344.254385)"><g><path d="M 18.265625 -7.964844 C 18.191406 -8.042969 18.164062 -8.140625 18.183594 -8.246094 C 18.179688 -8.335938 18.21875 -8.421875 18.296875 -8.496094 C 18.761719 -8.945312 19.148438 -9.453125 19.457031 -10.023438 C 19.742188 -10.597656 19.960938 -11.183594 20.078125 -11.808594 C 20.222656 -12.589844 20.199219 -13.421875 20.042969 -14.253906 C 19.863281 -15.09375 19.515625 -15.875 19.003906 -16.597656 C 18.488281 -17.320312 17.796875 -17.941406 16.941406 -18.503906 C 16.078125 -19.042969 15.035156 -19.441406 13.824219 -19.664062 L 6.925781 -20.953125 C 6.773438 -20.980469 6.652344 -20.933594 6.585938 -20.8125 C 6.496094 -20.695312 6.496094 -20.5625 6.585938 -20.457031 C 6.894531 -19.949219 7.015625 -19.390625 6.90625 -18.808594 L 3.675781 -1.464844 C 3.5625 -0.859375 3.25 -0.378906 2.777344 -0.0195312 C 2.667969 0.09375 2.648438 0.203125 2.691406 0.324219 C 2.710938 0.460938 2.8125 0.523438 2.960938 0.550781 L 10.789062 2.011719 C 12.003906 2.238281 13.117188 2.265625 14.113281 2.070312 C 15.113281 1.875 15.984375 1.523438 16.722656 1.035156 C 17.464844 0.546875 18.0625 -0.0351562 18.535156 -0.753906 C 18.976562 -1.453125 19.296875 -2.199219 19.449219 -3.023438 C 19.609375 -3.886719 19.566406 -4.746094 19.367188 -5.585938 C 19.167969 -6.429688 18.800781 -7.238281 18.265625 -7.964844 Z M 10.109375 -12.214844 L 10.636719 -15.046875 C 10.671875 -15.242188 10.769531 -15.402344 10.949219 -15.523438 C 11.125 -15.625 11.3125 -15.679688 11.53125 -15.640625 L 13.023438 -15.363281 C 13.5625 -15.261719 14.027344 -15.109375 14.414062 -14.902344 C 14.777344 -14.699219 15.09375 -14.484375 15.320312 -14.242188 C 15.539062 -13.976562 15.671875 -13.726562 15.75 -13.445312 C 15.832031 -13.160156 15.847656 -12.867188 15.796875 -12.609375 C 15.695312 -12.066406 15.394531 -11.652344 14.917969 -11.363281 C 14.257812 -10.949219 13.34375 -10.851562 12.21875 -11.058594 L 10.726562 -11.335938 C 10.511719 -11.378906 10.351562 -11.476562 10.226562 -11.652344 C 10.101562 -11.8125 10.066406 -11.996094 10.109375 -12.214844 Z M 14.285156 -2.574219 C 13.625 -2.160156 12.714844 -2.0625 11.589844 -2.269531 L 9.125 -2.730469 C 8.90625 -2.769531 8.746094 -2.867188 8.625 -3.046875 C 8.496094 -3.207031 8.46875 -3.410156 8.507812 -3.628906 L 9.03125 -6.441406 C 9.066406 -6.632812 9.164062 -6.796875 9.34375 -6.917969 C 9.523438 -7.042969 9.714844 -7.097656 9.929688 -7.054688 L 12.394531 -6.597656 C 12.933594 -6.496094 13.398438 -6.339844 13.765625 -6.140625 C 14.128906 -5.9375 14.441406 -5.699219 14.667969 -5.457031 C 14.886719 -5.191406 15.039062 -4.941406 15.121094 -4.65625 C 15.203125 -4.371094 15.214844 -4.078125 15.167969 -3.820312 C 15.070312 -3.300781 14.769531 -2.886719 14.285156 -2.574219 Z M 14.285156 -2.574219 "/></g></g></g><g fill="rgb(100%, 100%, 100%)" fill-opacity="1"><g transform="translate(169.437962, 348.103198)"><g><path d="M 16.242188 -3.953125 L 15.964844 -3.75 C 15.710938 -3.542969 15.441406 -3.46875 15.15625 -3.484375 L 8.347656 -3.871094 C 8.195312 -3.878906 8.066406 -3.929688 7.980469 -4.023438 C 7.878906 -4.117188 7.839844 -4.25 7.851562 -4.425781 L 8.699219 -19.449219 C 8.726562 -19.953125 8.925781 -20.40625 9.300781 -20.78125 L 9.324219 -20.800781 C 9.394531 -20.90625 9.402344 -21.019531 9.367188 -21.152344 C 9.304688 -21.265625 9.199219 -21.335938 9.070312 -21.34375 L 4.214844 -21.617188 C 4.0625 -21.628906 3.949219 -21.566406 3.898438 -21.460938 C 3.824219 -21.332031 3.816406 -21.222656 3.898438 -21.109375 C 4.230469 -20.691406 4.378906 -20.222656 4.351562 -19.714844 L 3.253906 -0.300781 C 3.246094 -0.148438 3.285156 -0.0117188 3.386719 0.0820312 C 3.46875 0.195312 3.597656 0.246094 3.753906 0.253906 L 14.910156 0.882812 C 15.195312 0.902344 15.453125 1.023438 15.683594 1.238281 L 15.933594 1.472656 C 16.039062 1.566406 16.148438 1.570312 16.285156 1.511719 C 16.398438 1.476562 16.46875 1.367188 16.476562 1.214844 L 16.75 -3.636719 C 16.757812 -3.769531 16.699219 -3.882812 16.59375 -3.957031 C 16.464844 -4.007812 16.355469 -4.011719 16.242188 -3.953125 Z M 16.242188 -3.953125 "/></g></g></g><g fill="rgb(100%, 100%, 100%)" fill-opacity="1"><g transform="translate(188.91648, 349.142178)"><g><path d="M 14.480469 -23.058594 C 14.132812 -22.679688 13.703125 -22.496094 13.21875 -22.464844 L 1.523438 -21.667969 C 1.367188 -21.65625 1.265625 -21.582031 1.230469 -21.449219 C 1.171875 -21.3125 1.179688 -21.203125 1.273438 -21.097656 L 1.34375 -21.039062 C 1.722656 -20.667969 1.929688 -20.21875 1.964844 -19.691406 L 3.179688 -1.871094 C 3.199219 -1.605469 3.171875 -1.363281 3.097656 -1.113281 C 3.027344 -0.867188 2.910156 -0.640625 2.746094 -0.453125 L 2.6875 -0.382812 C 2.605469 -0.242188 2.613281 -0.132812 2.6875 -0.0078125 C 2.742188 0.121094 2.855469 0.160156 3.007812 0.148438 L 14.707031 -0.648438 C 15.1875 -0.683594 15.640625 -0.535156 16.035156 -0.234375 C 16.152344 -0.128906 16.285156 -0.117188 16.414062 -0.191406 C 16.542969 -0.246094 16.621094 -0.359375 16.609375 -0.535156 L 16.277344 -5.429688 C 16.269531 -5.5625 16.195312 -5.667969 16.058594 -5.722656 C 15.921875 -5.757812 15.792969 -5.726562 15.710938 -5.632812 C 15.34375 -5.234375 14.894531 -5.027344 14.367188 -4.992188 L 7.914062 -4.550781 C 7.761719 -4.542969 7.625 -4.578125 7.507812 -4.679688 C 7.394531 -4.757812 7.339844 -4.886719 7.328125 -5.0625 L 7.105469 -8.355469 C 7.09375 -8.507812 7.128906 -8.644531 7.230469 -8.761719 C 7.335938 -8.855469 7.460938 -8.929688 7.613281 -8.941406 L 9.546875 -9.074219 C 10.074219 -9.109375 10.546875 -8.941406 10.964844 -8.617188 C 11.082031 -8.539062 11.191406 -8.546875 11.320312 -8.621094 C 11.445312 -8.695312 11.503906 -8.808594 11.496094 -8.941406 L 11.164062 -13.8125 C 11.15625 -13.945312 11.082031 -14.027344 10.945312 -14.085938 C 10.808594 -14.140625 10.699219 -14.132812 10.59375 -14.0625 C 10.226562 -13.660156 9.777344 -13.453125 9.25 -13.417969 L 7.320312 -13.285156 C 7.164062 -13.277344 7.03125 -13.3125 6.914062 -13.414062 C 6.796875 -13.492188 6.746094 -13.621094 6.734375 -13.796875 L 6.507812 -17.089844 C 6.5 -17.242188 6.53125 -17.378906 6.636719 -17.496094 C 6.738281 -17.589844 6.867188 -17.664062 7.019531 -17.675781 L 13.472656 -18.117188 C 14 -18.152344 14.472656 -17.984375 14.890625 -17.660156 C 14.988281 -17.558594 15.121094 -17.542969 15.246094 -17.621094 C 15.375 -17.671875 15.433594 -17.785156 15.425781 -17.941406 L 15.089844 -22.855469 C 15.082031 -22.988281 14.984375 -23.089844 14.847656 -23.148438 C 14.714844 -23.183594 14.585938 -23.152344 14.480469 -23.058594 Z M 14.480469 -23.058594 "/></g></g></g><g fill="rgb(100%, 100%, 100%)" fill-opacity="1"><g transform="translate(209.865947, 347.634515)"><g><path d="M 13.019531 -20.988281 C 12.078125 -22.074219 11.042969 -22.851562 9.921875 -23.296875 C 8.796875 -23.742188 7.605469 -23.859375 6.398438 -23.613281 L -1.445312 -22.019531 C -1.597656 -21.988281 -1.691406 -21.902344 -1.707031 -21.761719 C -1.746094 -21.621094 -1.699219 -21.496094 -1.574219 -21.433594 C -1.097656 -21.078125 -0.777344 -20.605469 -0.660156 -20.023438 L 2.859375 -2.714844 C 2.980469 -2.132812 2.867188 -1.570312 2.566406 -1.0625 C 2.480469 -0.929688 2.480469 -0.820312 2.574219 -0.703125 C 2.644531 -0.582031 2.757812 -0.5625 2.910156 -0.589844 L 10.757812 -2.1875 C 11.964844 -2.433594 13.019531 -2.984375 13.878906 -3.832031 C 14.738281 -4.679688 15.390625 -5.777344 15.832031 -7.148438 C 16.140625 -8.175781 16.3125 -9.308594 16.351562 -10.550781 C 16.390625 -11.796875 16.285156 -13.078125 16.019531 -14.390625 C 15.757812 -15.683594 15.351562 -16.902344 14.832031 -18.03125 C 14.308594 -19.160156 13.707031 -20.140625 13.019531 -20.988281 Z M 11.660156 -8.453125 C 11.523438 -8.023438 11.367188 -7.675781 11.195312 -7.417969 C 11.027344 -7.15625 10.84375 -6.941406 10.691406 -6.820312 C 10.519531 -6.671875 10.359375 -6.574219 10.207031 -6.542969 C 10.0625 -6.492188 9.953125 -6.46875 9.890625 -6.457031 L 7.472656 -5.964844 C 7.257812 -5.921875 7.050781 -5.945312 6.867188 -6.085938 C 6.664062 -6.203125 6.558594 -6.382812 6.515625 -6.601562 L 4.273438 -17.613281 C 4.21875 -17.894531 4.257812 -18.148438 4.429688 -18.410156 C 4.597656 -18.667969 4.835938 -18.828125 5.136719 -18.890625 L 7.273438 -19.324219 C 7.746094 -19.421875 8.238281 -19.320312 8.699219 -19.03125 C 9.167969 -18.722656 9.613281 -18.296875 10.015625 -17.75 C 10.398438 -17.199219 10.753906 -16.554688 11.0625 -15.808594 C 11.351562 -15.058594 11.59375 -14.300781 11.75 -13.523438 C 11.945312 -12.574219 12.019531 -11.648438 12.019531 -10.773438 C 11.996094 -9.890625 11.882812 -9.128906 11.660156 -8.453125 Z M 11.660156 -8.453125 "/></g></g></g><g fill="rgb(100%, 100%, 100%)" fill-opacity="1"><g transform="translate(231.580482, 343.124143)"><g><path d="M 18.738281 -7.054688 C 18.707031 -7.136719 18.644531 -7.183594 18.566406 -7.203125 C 17.953125 -7.429688 17.464844 -7.816406 17.078125 -8.378906 L 6.058594 -23.753906 C 5.839844 -24.046875 5.789062 -24.382812 5.949219 -24.71875 C 5.976562 -24.84375 5.941406 -24.949219 5.855469 -25.058594 C 5.746094 -25.160156 5.621094 -25.183594 5.496094 -25.140625 L 0.0234375 -23.203125 C -0.101562 -23.160156 -0.183594 -23.058594 -0.199219 -22.914062 C -0.21875 -22.765625 -0.183594 -22.664062 -0.0625 -22.589844 C 0.273438 -22.429688 0.445312 -22.140625 0.460938 -21.769531 L 1.597656 -2.875 C 1.636719 -2.234375 1.480469 -1.621094 1.148438 -1.035156 C 1.109375 -0.953125 1.089844 -0.875 1.113281 -0.8125 C 1.128906 -0.703125 1.179688 -0.628906 1.269531 -0.566406 C 1.359375 -0.503906 1.453125 -0.515625 1.574219 -0.558594 L 6.386719 -2.261719 C 6.511719 -2.304688 6.601562 -2.382812 6.597656 -2.523438 C 6.59375 -2.660156 6.558594 -2.765625 6.4375 -2.839844 C 6.101562 -3 5.929688 -3.289062 5.894531 -3.648438 L 5.773438 -6.035156 C 5.757812 -6.285156 5.8125 -6.515625 5.957031 -6.707031 C 6.078125 -6.890625 6.257812 -7.046875 6.503906 -7.132812 L 10.589844 -8.578125 C 10.820312 -8.660156 11.054688 -8.652344 11.285156 -8.59375 C 11.496094 -8.527344 11.6875 -8.382812 11.851562 -8.183594 L 13.234375 -6.25 C 13.4375 -5.945312 13.457031 -5.625 13.335938 -5.304688 L 13.34375 -5.285156 C 13.304688 -5.128906 13.34375 -5.027344 13.441406 -4.945312 C 13.527344 -4.835938 13.644531 -4.832031 13.789062 -4.882812 L 14.121094 -5 L 18.558594 -6.570312 C 18.664062 -6.605469 18.738281 -6.65625 18.769531 -6.761719 C 18.804688 -6.867188 18.796875 -6.957031 18.738281 -7.054688 Z M 8.433594 -12.4375 L 5.757812 -11.488281 C 5.675781 -11.460938 5.605469 -11.457031 5.542969 -11.503906 C 5.457031 -11.546875 5.40625 -11.621094 5.417969 -11.71875 L 5.128906 -16.820312 C 5.113281 -16.929688 5.152344 -17.015625 5.277344 -17.058594 C 5.402344 -17.105469 5.488281 -17.0625 5.566406 -16.972656 L 8.53125 -12.820312 C 8.578125 -12.746094 8.589844 -12.652344 8.570312 -12.578125 C 8.550781 -12.5 8.496094 -12.457031 8.433594 -12.4375 Z M 8.433594 -12.4375 "/></g></g></g><g fill="rgb(100%, 100%, 100%)" fill-opacity="1"><g transform="translate(253.349194, 335.214674)"><g><path d="M 5.15625 -24.300781 C 4.144531 -24.71875 3.082031 -24.910156 2.007812 -24.878906 C 0.925781 -24.816406 -0.140625 -24.535156 -1.15625 -24.011719 L -7.394531 -20.789062 C -7.53125 -20.71875 -7.597656 -20.609375 -7.574219 -20.472656 C -7.574219 -20.324219 -7.503906 -20.238281 -7.355469 -20.191406 C -6.800781 -19.980469 -6.363281 -19.613281 -6.09375 -19.085938 L 2.003906 -3.410156 C 2.285156 -2.863281 2.320312 -2.3125 2.171875 -1.738281 C 2.132812 -1.574219 2.164062 -1.464844 2.285156 -1.378906 C 2.382812 -1.28125 2.5 -1.292969 2.636719 -1.363281 L 7.054688 -3.644531 C 7.171875 -3.703125 7.25 -3.792969 7.230469 -3.929688 C 7.207031 -4.070312 7.15625 -4.167969 7.019531 -4.242188 C 6.5625 -4.40625 6.246094 -4.683594 6.042969 -5.078125 L 4.570312 -7.929688 C 4.46875 -8.125 4.4375 -8.332031 4.511719 -8.570312 C 4.578125 -8.777344 4.714844 -8.945312 4.929688 -9.054688 L 6.21875 -9.722656 C 7.234375 -10.246094 8.09375 -10.9375 8.769531 -11.78125 C 9.429688 -12.617188 9.886719 -13.597656 10.121094 -14.683594 C 10.316406 -15.601562 10.339844 -16.554688 10.191406 -17.515625 C 10.042969 -18.480469 9.753906 -19.417969 9.289062 -20.320312 C 8.824219 -21.21875 8.214844 -22.015625 7.515625 -22.695312 C 6.820312 -23.375 6.023438 -23.90625 5.15625 -24.300781 Z M 5.859375 -15.601562 C 5.691406 -14.722656 5.140625 -14.066406 4.222656 -13.59375 L 2.734375 -12.824219 C 2.578125 -12.746094 2.441406 -12.722656 2.265625 -12.78125 C 2.097656 -12.816406 1.996094 -12.914062 1.914062 -13.070312 L -0.910156 -18.542969 C -0.980469 -18.679688 -1.003906 -18.816406 -0.945312 -18.996094 C -0.886719 -19.171875 -0.800781 -19.292969 -0.644531 -19.375 L 0.839844 -20.140625 C 1.542969 -20.503906 2.152344 -20.621094 2.703125 -20.507812 C 3.257812 -20.398438 3.710938 -20.1875 4.109375 -19.898438 C 4.488281 -19.597656 4.796875 -19.285156 5.015625 -18.953125 C 5.238281 -18.625 5.378906 -18.398438 5.417969 -18.320312 C 5.660156 -17.851562 5.804688 -17.382812 5.890625 -16.929688 C 5.953125 -16.46875 5.941406 -16.015625 5.859375 -15.601562 Z M 5.859375 -15.601562 "/></g></g></g><g fill="rgb(100%, 100%, 100%)" fill-opacity="1"><g transform="translate(272.021525, 325.448037)"><g><path d="M 1.96875 -24.761719 C 0.914062 -25.046875 -0.167969 -25.101562 -1.226562 -24.929688 C -2.289062 -24.726562 -3.3125 -24.3125 -4.253906 -23.660156 L -10.019531 -19.660156 C -10.148438 -19.574219 -10.199219 -19.457031 -10.160156 -19.320312 C -10.140625 -19.175781 -10.058594 -19.097656 -9.90625 -19.070312 C -9.328125 -18.933594 -8.847656 -18.625 -8.507812 -18.136719 L 1.542969 -3.640625 C 1.894531 -3.132812 2.003906 -2.59375 1.929688 -2.007812 C 1.914062 -1.835938 1.957031 -1.730469 2.085938 -1.660156 C 2.199219 -1.578125 2.3125 -1.605469 2.441406 -1.691406 L 6.527344 -4.523438 C 6.632812 -4.601562 6.699219 -4.699219 6.660156 -4.832031 C 6.621094 -4.964844 6.558594 -5.058594 6.410156 -5.113281 C 5.9375 -5.214844 5.585938 -5.453125 5.335938 -5.816406 L 3.507812 -8.453125 C 3.378906 -8.636719 3.320312 -8.835938 3.367188 -9.082031 C 3.40625 -9.292969 3.519531 -9.480469 3.714844 -9.617188 L 4.910156 -10.445312 C 5.851562 -11.097656 6.609375 -11.890625 7.171875 -12.816406 C 7.71875 -13.730469 8.046875 -14.761719 8.136719 -15.867188 C 8.210938 -16.804688 8.113281 -17.753906 7.839844 -18.6875 C 7.566406 -19.621094 7.160156 -20.519531 6.582031 -21.351562 C 6.007812 -22.179688 5.296875 -22.894531 4.519531 -23.476562 C 3.738281 -24.0625 2.882812 -24.484375 1.96875 -24.761719 Z M 3.789062 -16.226562 C 3.738281 -15.335938 3.277344 -14.613281 2.425781 -14.023438 L 1.054688 -13.070312 C 0.910156 -12.972656 0.777344 -12.933594 0.59375 -12.964844 C 0.421875 -12.980469 0.308594 -13.0625 0.210938 -13.207031 L -3.300781 -18.269531 C -3.386719 -18.398438 -3.425781 -18.53125 -3.394531 -18.714844 C -3.359375 -18.898438 -3.289062 -19.027344 -3.144531 -19.128906 L -1.773438 -20.078125 C -1.121094 -20.53125 -0.53125 -20.726562 0.03125 -20.6875 C 0.589844 -20.648438 1.070312 -20.5 1.5 -20.261719 C 1.914062 -20.011719 2.261719 -19.746094 2.523438 -19.445312 C 2.785156 -19.144531 2.953125 -18.941406 3.003906 -18.867188 C 3.304688 -18.433594 3.507812 -17.984375 3.652344 -17.550781 C 3.773438 -17.101562 3.820312 -16.648438 3.789062 -16.226562 Z M 3.789062 -16.226562 "/></g></g></g><g clip-path="url(#id57)"><g clip-path="url(#id58)"><g clip-path="url(#id59)"><path fill="rgb(100%, 100%, 100%)" d="M 85.585938 291.527344 C 85.570312 291.53125 85.558594 291.53125 85.539062 291.53125 C 74.402344 290.847656 63.820312 286.488281 54.9375 278.925781 C 44.382812 269.941406 36.253906 256.648438 30.769531 239.414062 C 18.714844 201.523438 29.375 170.445312 42.164062 155.351562 C 42.269531 155.226562 42.457031 155.210938 42.582031 155.316406 C 42.703125 155.421875 42.71875 155.609375 42.617188 155.734375 C 29.921875 170.714844 19.347656 201.574219 31.332031 239.234375 C 41.308594 270.589844 61.082031 289.4375 85.578125 290.9375 C 85.738281 290.949219 85.863281 291.089844 85.855469 291.253906 C 85.84375 291.402344 85.730469 291.515625 85.585938 291.527344 " fill-opacity="1" fill-rule="nonzero"/></g></g></g><g clip-path="url(#id60)"><g clip-path="url(#id61)"><g clip-path="url(#id62)"><path fill="rgb(100%, 100%, 100%)" d="M 80.765625 290.496094 C 80.765625 290.496094 71.542969 292.675781 69.464844 275.898438 C 67.765625 262.183594 66.066406 267.421875 73.71875 273.988281 C 83.46875 282.34375 80.765625 290.496094 80.765625 290.496094 " fill-opacity="1" fill-rule="nonzero"/></g></g></g><g clip-path="url(#id63)"><g clip-path="url(#id64)"><g clip-path="url(#id65)"><path fill="rgb(100%, 100%, 100%)" d="M 59.925781 282.046875 C 59.925781 282.046875 50.617188 280.269531 55.539062 264.101562 C 59.566406 250.882812 55.882812 254.96875 60.207031 264.09375 C 65.710938 275.707031 59.925781 282.046875 59.925781 282.046875 " fill-opacity="1" fill-rule="nonzero"/></g></g></g><g clip-path="url(#id66)"><g clip-path="url(#id67)"><g clip-path="url(#id68)"><path fill="rgb(100%, 100%, 100%)" d="M 45.664062 268.207031 C 45.664062 268.207031 37.226562 263.871094 46.492188 249.75 C 54.066406 238.203125 49.386719 241.085938 50.972656 251.058594 C 52.992188 263.757812 45.664062 268.207031 45.664062 268.207031 " fill-opacity="1" fill-rule="nonzero"/></g></g></g><g clip-path="url(#id69)"><g clip-path="url(#id70)"><g clip-path="url(#id71)"><path fill="rgb(100%, 100%, 100%)" d="M 36.761719 253.480469 C 36.761719 253.480469 29.472656 246.25 38.738281 232.128906 C 46.316406 220.582031 40.488281 226.359375 42.070312 236.332031 C 44.089844 249.03125 36.761719 253.480469 36.761719 253.480469 " fill-opacity="1" fill-rule="nonzero"/></g></g></g><g clip-path="url(#id72)"><g clip-path="url(#id73)"><g clip-path="url(#id74)"><path fill="rgb(100%, 100%, 100%)" d="M 29.859375 234.773438 C 29.859375 234.773438 24 226.339844 35.671875 214.140625 C 45.214844 204.171875 38.4375 208.789062 38.1875 218.882812 C 37.871094 231.734375 29.859375 234.773438 29.859375 234.773438 " fill-opacity="1" fill-rule="nonzero"/></g></g></g><g clip-path="url(#id75)"><g clip-path="url(#id76)"><g clip-path="url(#id77)"><path fill="rgb(100%, 100%, 100%)" d="M 26.316406 213.507812 C 26.316406 213.507812 22.304688 204.054688 36.21875 194.507812 C 47.59375 186.703125 40.015625 189.835938 37.714844 199.664062 C 34.78125 212.179688 26.316406 213.507812 26.316406 213.507812 " fill-opacity="1" fill-rule="nonzero"/></g></g></g><g clip-path="url(#id78)"><g clip-path="url(#id79)"><g clip-path="url(#id80)"><path fill="rgb(100%, 100%, 100%)" d="M 27.152344 189.9375 C 27.152344 189.9375 26.109375 179.714844 42.222656 174.730469 C 55.394531 170.652344 47.230469 171.390625 42.125 180.097656 C 35.628906 191.175781 27.152344 189.9375 27.152344 189.9375 " fill-opacity="1" fill-rule="nonzero"/></g></g></g><g clip-path="url(#id81)"><g clip-path="url(#id82)"><g clip-path="url(#id83)"><path fill="rgb(100%, 100%, 100%)" d="M 34.207031 168.789062 C 34.207031 168.789062 35.75 158.632812 52.59375 157.84375 C 66.367188 157.195312 58.277344 155.867188 51.164062 163.015625 C 42.109375 172.117188 34.207031 168.789062 34.207031 168.789062 " fill-opacity="1" fill-rule="nonzero"/></g></g></g><g clip-path="url(#id84)"><g clip-path="url(#id85)"><g clip-path="url(#id86)"><g clip-path="url(#id87)"><g clip-path="url(#id88)"><path fill="rgb(100%, 100%, 100%)" d="M 68.480469 287.121094 C 68.480469 287.121094 69.652344 296.976562 52.085938 294.855469 C 38.394531 293.207031 43.070312 296.210938 51.207031 290.261719 C 61.5625 282.6875 68.480469 287.121094 68.480469 287.121094 " fill-opacity="1" fill-rule="nonzero"/></g></g></g></g></g><g clip-path="url(#id89)"><g clip-path="url(#id90)"><g clip-path="url(#id91)"><path fill="rgb(100%, 100%, 100%)" d="M 51.457031 275.402344 C 51.457031 275.402344 48.394531 284.835938 33.332031 275.519531 C 21.59375 268.261719 24.582031 272.957031 34.460938 270.980469 C 47.035156 268.464844 51.457031 275.402344 51.457031 275.402344 " fill-opacity="1" fill-rule="nonzero"/></g></g></g><g clip-path="url(#id92)"><g clip-path="url(#id93)"><g clip-path="url(#id94)"><path fill="rgb(100%, 100%, 100%)" d="M 40.53125 260.976562 C 40.53125 260.976562 34.585938 268.90625 23.34375 255.203125 C 14.585938 244.523438 15.890625 249.9375 25.878906 251.277344 C 38.585938 252.980469 40.53125 260.976562 40.53125 260.976562 " fill-opacity="1" fill-rule="nonzero"/></g></g></g><g clip-path="url(#id95)"><g clip-path="url(#id96)"><g clip-path="url(#id97)"><path fill="rgb(100%, 100%, 100%)" d="M 32.820312 244.367188 C 32.820312 244.367188 26.140625 251.683594 16.277344 236.953125 C 8.589844 225.472656 9.367188 230.988281 19.175781 233.289062 C 31.660156 236.222656 32.820312 244.367188 32.820312 244.367188 " fill-opacity="1" fill-rule="nonzero"/></g></g></g><g clip-path="url(#id98)"><g clip-path="url(#id99)"><g clip-path="url(#id100)"><path fill="rgb(100%, 100%, 100%)" d="M 27.632812 224.710938 C 27.632812 224.710938 19.578125 230.472656 12.976562 214.015625 C 7.832031 201.1875 7.453125 206.742188 16.570312 211.035156 C 28.179688 216.5 27.632812 224.710938 27.632812 224.710938 " fill-opacity="1" fill-rule="nonzero"/></g></g></g><g clip-path="url(#id101)"><g clip-path="url(#id102)"><g clip-path="url(#id103)"><path fill="rgb(100%, 100%, 100%)" d="M 25.628906 201.617188 C 25.628906 201.617188 16.066406 204.164062 15.675781 186.429688 C 15.371094 172.613281 13.0625 177.671875 20.089844 184.910156 C 29.035156 194.128906 25.628906 201.617188 25.628906 201.617188 " fill-opacity="1" fill-rule="nonzero"/></g></g></g><g clip-path="url(#id104)"><g clip-path="url(#id105)"><g clip-path="url(#id106)"><path fill="rgb(100%, 100%, 100%)" d="M 30.210938 178.375 C 30.210938 178.375 20.441406 179.972656 21.785156 162.285156 C 22.832031 148.503906 20.039062 153.316406 26.324219 161.210938 C 34.328125 171.257812 30.210938 178.375 30.210938 178.375 " fill-opacity="1" fill-rule="nonzero"/></g></g></g><g clip-path="url(#id107)"><g clip-path="url(#id108)"><g clip-path="url(#id109)"><path fill="rgb(100%, 100%, 100%)" d="M 40.191406 158.429688 C 40.191406 158.429688 34.246094 153.597656 43.609375 141.132812 C 51.90625 130.097656 47.183594 132.730469 47.972656 142.796875 C 48.976562 155.613281 40.191406 158.429688 40.191406 158.429688 " fill-opacity="1" fill-rule="nonzero"/></g></g></g></svg>