<?xml version="1.0" encoding="UTF-8"?><svg xmlns="http://www.w3.org/2000/svg" xmlns:xlink="http://www.w3.org/1999/xlink" width="375" zoomAndPan="magnify" viewBox="0 0 375 374.999991" height="374.999991" preserveAspectRatio="xMidYMid meet" version="1.0"><defs><clipPath id="clip-0"><path d="M 15.46875 0 L 359.71875 0 L 359.71875 375 L 15.46875 375 Z M 15.46875 0 " clip-rule="nonzero"/></clipPath><clipPath id="clip-1"><path d="M 17.0625 4.726562 L 357.5625 4.726562 L 357.5625 369.976562 L 17.0625 369.976562 Z M 17.0625 4.726562 " clip-rule="nonzero"/></clipPath><clipPath id="clip-2"><path d="M 21 5.867188 L 353.851562 5.867188 L 353.851562 368.867188 L 21 368.867188 Z M 21 5.867188 " clip-rule="nonzero"/></clipPath></defs><g clip-path="url(#clip-0)"><path fill="rgb(96.078491%, 46.669006%, 9.799194%)" d="M 355.621094 94.78125 L 191.472656 1.03125 C 189.0625 -0.34375 186.125 -0.34375 183.714844 1.03125 L 19.566406 94.78125 C 17.125 96.171875 15.625 98.765625 15.625 101.5625 L 15.625 273.4375 C 15.625 276.234375 17.125 278.828125 19.566406 280.21875 L 183.714844 373.96875 C 184.921875 374.65625 186.25 375 187.59375 375 C 188.9375 375 190.265625 374.65625 191.472656 373.96875 L 355.621094 280.21875 C 358.0625 278.828125 359.5625 276.234375 359.5625 273.4375 L 359.5625 101.5625 C 359.5625 98.765625 358.0625 96.171875 355.621094 94.78125 Z M 343.929688 268.90625 L 187.59375 358.1875 L 31.257812 268.90625 L 31.257812 106.09375 L 187.59375 16.8125 L 343.929688 106.09375 Z M 343.929688 268.90625 " fill-opacity="1" fill-rule="nonzero"/></g><g clip-path="url(#clip-1)"><path fill="rgb(96.078491%, 46.669006%, 9.799194%)" d="M 274.167969 104.113281 C 261.757812 104.097656 249.980469 106.800781 239.394531 111.65625 C 225.957031 117.820312 214.4375 127.460938 205.996094 139.429688 L 205.632812 139.949219 L 189.953125 160.976562 L 186.203125 166.011719 L 149.183594 215.667969 L 149.054688 215.570312 C 139.164062 231.535156 121.136719 242.222656 100.535156 242.222656 C 69.296875 242.222656 43.976562 217.667969 43.976562 187.371094 C 43.976562 157.078125 69.296875 132.519531 100.535156 132.519531 C 131.769531 132.519531 157.089844 157.078125 157.089844 187.371094 C 157.089844 189.480469 156.960938 191.5625 156.722656 193.609375 L 183.4375 157.769531 L 183.769531 157.324219 L 183.769531 4.742188 C 169.035156 4.742188 157.089844 16.6875 157.089844 31.429688 L 157.089844 126.292969 C 150.644531 120.320312 143.253906 115.355469 135.167969 111.648438 C 124.585938 106.796875 112.8125 104.097656 100.402344 104.113281 C 54.347656 104.183594 17.296875 141.304688 17.296875 187.371094 C 17.296875 233.351562 54.5625 270.632812 100.535156 270.632812 C 112.902344 270.632812 124.636719 267.929688 135.1875 263.089844 C 148.882812 256.804688 160.582031 246.914062 169.0625 234.632812 L 169.066406 234.636719 L 184.359375 214.535156 L 188.488281 209.109375 L 190.808594 206.058594 L 190.808594 206.054688 L 224.636719 160.675781 C 234.304688 143.878906 252.808594 132.519531 274.050781 132.519531 C 305.285156 132.519531 330.605469 157.078125 330.605469 187.371094 C 330.605469 217.667969 305.285156 242.222656 274.050781 242.222656 C 242.816406 242.222656 217.496094 217.667969 217.496094 187.371094 C 217.496094 185.503906 217.59375 183.652344 217.78125 181.832031 L 191.328125 217.414062 L 190.816406 218.105469 L 190.816406 370 C 205.554688 370 217.496094 358.054688 217.496094 343.316406 L 217.496094 248.449219 C 223.9375 254.421875 231.332031 259.386719 239.417969 263.097656 C 249.960938 267.929688 261.691406 270.632812 274.050781 270.632812 C 320.023438 270.632812 357.285156 233.351562 357.285156 187.371094 C 357.285156 141.296875 320.226562 104.175781 274.167969 104.113281 " fill-opacity="1" fill-rule="nonzero"/></g><g clip-path="url(#clip-2)"><path fill="rgb(96.078491%, 46.669006%, 9.799194%)" d="M 349.886719 97.617188 L 191.101562 6.867188 C 188.773438 5.535156 185.929688 5.535156 183.601562 6.867188 L 24.816406 97.617188 C 22.457031 98.960938 21.003906 101.472656 21.003906 104.179688 L 21.003906 270.554688 C 21.003906 273.261719 22.457031 275.773438 24.816406 277.117188 L 183.601562 367.867188 C 184.765625 368.535156 186.050781 368.867188 187.351562 368.867188 C 188.652344 368.867188 189.9375 368.535156 191.101562 367.867188 L 349.886719 277.117188 C 352.246094 275.773438 353.699219 273.261719 353.699219 270.554688 L 353.699219 104.179688 C 353.699219 101.472656 352.246094 98.960938 349.886719 97.617188 Z M 338.578125 266.167969 L 187.351562 352.59375 L 36.128906 266.167969 L 36.128906 108.566406 L 187.351562 22.140625 L 338.578125 108.566406 Z M 338.578125 266.167969 " fill-opacity="1" fill-rule="nonzero"/></g></svg>