<svg xmlns="http://www.w3.org/2000/svg" xmlns:xlink="http://www.w3.org/1999/xlink" width="500" zoomAndPan="magnify" viewBox="0 0 375 374.999991" height="500" preserveAspectRatio="xMidYMid meet" version="1.0"><defs><clipPath id="id1"><path d="M 17.199219 1.886719 L 357.699219 1.886719 L 357.699219 373.136719 L 17.199219 373.136719 Z M 17.199219 1.886719 " clip-rule="nonzero"/></clipPath><clipPath id="id2"><path d="M 19 6.566406 L 356 6.566406 L 356 368.066406 L 19 368.066406 Z M 19 6.566406 " clip-rule="nonzero"/></clipPath><clipPath id="id3"><path d="M 22.527344 7.695312 L 352.527344 7.695312 L 352.527344 366.945312 L 22.527344 366.945312 Z M 22.527344 7.695312 " clip-rule="nonzero"/></clipPath></defs><g clip-path="url(#id1)"><path fill="rgb(100%, 100%, 100%)" d="M 353.648438 95.71875 L 191.285156 2.90625 C 188.902344 1.546875 185.996094 1.546875 183.613281 2.90625 L 21.253906 95.71875 C 18.839844 97.097656 17.355469 99.664062 17.355469 102.433594 L 17.355469 272.589844 C 17.355469 275.359375 18.839844 277.925781 21.253906 279.304688 L 183.613281 372.117188 C 184.804688 372.796875 186.121094 373.136719 187.449219 373.136719 C 188.78125 373.136719 190.09375 372.796875 191.285156 372.117188 L 353.648438 279.304688 C 356.058594 277.925781 357.542969 275.359375 357.542969 272.589844 L 357.542969 102.433594 C 357.542969 99.664062 356.058594 97.097656 353.648438 95.71875 Z M 342.082031 268.105469 L 187.449219 356.492188 L 32.820312 268.105469 L 32.820312 106.917969 L 187.449219 18.53125 L 342.082031 106.917969 Z M 342.082031 268.105469 " fill-opacity="1" fill-rule="nonzero"/></g><g clip-path="url(#id2)"><path fill="rgb(100%, 100%, 100%)" d="M 273.613281 104.933594 C 261.3125 104.914062 249.644531 107.59375 239.152344 112.398438 C 225.832031 118.5 214.414062 128.042969 206.046875 139.886719 L 205.683594 140.398438 L 190.144531 161.210938 L 186.425781 166.195312 L 149.738281 215.34375 L 149.605469 215.242188 C 139.804688 231.046875 121.9375 241.625 101.515625 241.625 C 70.554688 241.625 45.460938 217.320312 45.460938 187.335938 C 45.460938 157.351562 70.554688 133.046875 101.515625 133.046875 C 132.472656 133.046875 157.570312 157.351562 157.570312 187.335938 C 157.570312 189.421875 157.445312 191.484375 157.207031 193.507812 L 183.6875 158.039062 L 184.015625 157.597656 L 184.015625 6.582031 C 169.410156 6.582031 157.570312 18.40625 157.570312 32.996094 L 157.570312 126.886719 C 151.183594 120.972656 143.859375 116.0625 135.84375 112.386719 C 125.355469 107.585938 113.683594 104.914062 101.386719 104.933594 C 55.738281 105 19.015625 141.742188 19.015625 187.335938 C 19.015625 232.84375 55.953125 269.742188 101.515625 269.742188 C 113.773438 269.742188 125.40625 267.070312 135.863281 262.277344 C 149.4375 256.054688 161.03125 246.269531 169.4375 234.113281 L 169.441406 234.113281 L 184.601562 214.21875 L 188.691406 208.851562 L 190.992188 205.832031 L 190.992188 205.824219 L 224.523438 160.914062 C 234.105469 144.292969 252.445312 133.046875 273.5 133.046875 C 304.457031 133.046875 329.554688 157.351562 329.554688 187.335938 C 329.554688 217.320312 304.457031 241.625 273.5 241.625 C 242.542969 241.625 217.445312 217.320312 217.445312 187.335938 C 217.445312 185.488281 217.539062 183.65625 217.726562 181.851562 L 191.507812 217.070312 L 191 217.753906 L 191 368.089844 C 205.605469 368.089844 217.445312 356.265625 217.445312 341.679688 L 217.445312 247.785156 C 223.828125 253.699219 231.15625 258.613281 239.171875 262.285156 C 249.621094 267.070312 261.246094 269.742188 273.5 269.742188 C 319.066406 269.742188 356 232.84375 356 187.335938 C 356 141.734375 319.269531 104.992188 273.613281 104.933594 " fill-opacity="1" fill-rule="nonzero"/></g><g clip-path="url(#id3)"><path fill="rgb(100%, 100%, 100%)" d="M 348.597656 98.496094 L 191.246094 8.683594 C 188.9375 7.367188 186.121094 7.367188 183.8125 8.683594 L 26.457031 98.496094 C 24.121094 99.828125 22.683594 102.3125 22.683594 104.992188 L 22.683594 269.648438 C 22.683594 272.328125 24.121094 274.8125 26.457031 276.144531 L 183.8125 365.957031 C 184.964844 366.617188 186.242188 366.945312 187.527344 366.945312 C 188.816406 366.945312 190.089844 366.617188 191.246094 365.957031 L 348.597656 276.144531 C 350.9375 274.8125 352.375 272.328125 352.375 269.648438 L 352.375 104.992188 C 352.375 102.3125 350.9375 99.828125 348.597656 98.496094 Z M 337.390625 265.308594 L 187.527344 350.839844 L 37.667969 265.308594 L 37.667969 109.332031 L 187.527344 23.800781 L 337.390625 109.332031 Z M 337.390625 265.308594 " fill-opacity="1" fill-rule="nonzero"/></g></svg>