<?xml version="1.0" encoding="UTF-8"?><svg xmlns="http://www.w3.org/2000/svg" xmlns:xlink="http://www.w3.org/1999/xlink" contentScriptType="text/ecmascript" width="375" zoomAndPan="magnify" contentStyleType="text/css" viewBox="0 0 375 374.999991" height="374.999991" preserveAspectRatio="xMidYMid meet" version="1.0"><defs><clipPath id="clip-0"><path d="M 0 37.5 L 375 37.5 L 375 337.5 L 0 337.5 Z M 0 37.5 " clip-rule="nonzero"/></clipPath></defs><g clip-path="url(#clip-0)"><path fill="rgb(100%, 63.139343%, 0%)" d="M 0 318.75 C 13.125 333.75 33.75 337.5 46.875 337.5 C 60 337.5 80.625 333.75 93.75 318.75 C 106.875 333.75 127.5 337.5 140.625 337.5 C 153.75 337.5 174.375 333.75 187.5 318.75 C 200.625 333.75 221.25 337.5 234.375 337.5 C 247.5 337.5 268.125 333.75 281.25 318.75 C 294.375 333.75 315 337.5 328.125 337.5 C 341.25 337.5 361.875 333.75 375 318.75 L 375 281.25 C 361.875 296.25 341.25 300 328.125 300 C 315 300 294.375 296.25 281.25 281.25 C 268.125 296.25 247.5 300 234.375 300 C 221.25 300 200.625 296.25 187.5 281.25 C 174.375 296.25 153.75 300 140.625 300 C 127.5 300 106.875 296.25 93.75 281.25 C 80.625 296.25 60 300 46.875 300 C 33.75 300 13.125 296.25 0 281.25 Z M 0 243.75 C 13.125 258.75 33.75 262.5 46.875 262.5 C 60 262.5 80.625 258.75 93.75 243.75 C 106.875 258.75 127.5 262.5 140.625 262.5 C 153.75 262.5 174.375 258.75 187.5 243.75 C 200.625 258.75 221.25 262.5 234.375 262.5 C 247.5 262.5 268.125 258.75 281.25 243.75 C 294.375 258.75 315 262.5 328.125 262.5 C 341.25 262.5 361.875 258.75 375 243.75 L 375 206.25 C 361.875 221.25 341.25 225 328.125 225 C 315 225 294.375 221.25 281.25 206.25 C 268.125 221.25 247.5 225 234.375 225 C 221.25 225 200.625 221.25 187.5 206.25 C 174.375 221.25 153.75 225 140.625 225 C 127.5 225 106.875 221.25 93.75 206.25 C 80.625 221.25 60 225 46.875 225 C 33.75 225 13.125 221.25 0 206.25 Z M 75 150 L 75 196.875 C 76.875 195 78.75 195 80.625 193.125 L 93.75 180 L 106.875 193.125 C 108.75 195 110.625 196.875 112.5 196.875 L 112.5 150 C 112.5 108.75 146.25 75 187.5 75 C 228.75 75 262.5 108.75 262.5 150 L 262.5 196.875 C 264.375 195 266.25 195 268.125 193.125 L 281.25 180 L 294.375 193.125 C 296.25 195 298.125 196.875 300 196.875 L 300 150 C 300 108.75 333.75 75 375 75 L 375 37.5 L 0 37.5 L 0 75 C 41.25 75 75 108.75 75 150 Z M 75 150 " fill-opacity="1" fill-rule="nonzero"/></g></svg>