<svg xmlns="http://www.w3.org/2000/svg" xmlns:xlink="http://www.w3.org/1999/xlink" width="500" zoomAndPan="magnify" viewBox="0 0 375 374.999991" height="500" preserveAspectRatio="xMidYMid meet" version="1.0"><defs><clipPath id="id1"><path d="M 0 106 L 257 106 L 257 373.640625 L 0 373.640625 Z M 0 106 " clip-rule="nonzero"/></clipPath><clipPath id="id2"><path d="M 99 1.640625 L 373 1.640625 L 373 276 L 99 276 Z M 99 1.640625 " clip-rule="nonzero"/></clipPath></defs><g clip-path="url(#id1)"><path fill="rgb(100%, 63.139343%, 0%)" d="M 235.191406 151.6875 L 149.125 110.5625 C 143.34375 107.800781 135.726562 106.421875 128.105469 106.421875 C 120.484375 106.421875 112.867188 107.800781 107.085938 110.5625 L 21.019531 151.6875 C 9.457031 157.210938 0 172.21875 0 185.039062 L 0 284.089844 C 0 296.910156 9.113281 312.582031 20.253906 318.914062 L 107.851562 368.722656 C 113.421875 371.886719 120.765625 373.472656 128.105469 373.472656 C 135.445312 373.472656 142.789062 371.886719 148.359375 368.722656 L 235.957031 318.914062 C 247.097656 312.582031 256.210938 296.910156 256.210938 284.089844 L 256.210938 185.039062 C 256.210938 172.21875 246.753906 157.210938 235.191406 151.6875 Z M 128.105469 154.910156 C 139.359375 154.910156 148.484375 160.128906 148.484375 166.566406 C 148.484375 173 139.359375 178.21875 128.105469 178.21875 C 116.851562 178.21875 107.726562 173 107.726562 166.566406 C 107.726562 160.128906 116.851562 154.910156 128.105469 154.910156 Z M 45.96875 303.566406 C 44.722656 304.183594 43.398438 304.480469 42.035156 304.480469 C 36.082031 304.480469 29.417969 298.855469 25.769531 290.101562 C 21.28125 279.34375 23.058594 267.925781 29.730469 264.601562 C 30.972656 263.984375 32.300781 263.6875 33.664062 263.6875 C 39.617188 263.6875 46.285156 269.3125 49.929688 278.0625 C 54.414062 288.824219 52.640625 300.238281 45.96875 303.566406 Z M 45.96875 239.464844 C 44.722656 240.082031 43.398438 240.378906 42.035156 240.378906 C 36.082031 240.378906 29.417969 234.753906 25.769531 226 C 21.28125 215.242188 23.058594 203.828125 29.730469 200.5 C 30.972656 199.882812 32.300781 199.585938 33.664062 199.585938 C 39.617188 199.585938 46.285156 205.210938 49.929688 213.964844 C 54.414062 224.722656 52.640625 236.136719 45.96875 239.464844 Z M 104.195312 335.617188 C 102.953125 336.234375 101.628906 336.53125 100.265625 336.53125 C 94.3125 336.53125 87.644531 330.90625 84 322.152344 C 79.511719 311.394531 81.289062 299.976562 87.957031 296.652344 C 89.203125 296.03125 90.53125 295.738281 91.890625 295.738281 C 97.847656 295.738281 104.515625 301.359375 108.160156 310.113281 C 112.644531 320.875 110.871094 332.289062 104.195312 335.617188 Z M 104.195312 271.515625 C 102.953125 272.132812 101.628906 272.429688 100.265625 272.429688 C 94.3125 272.429688 87.644531 266.804688 84 258.050781 C 79.511719 247.292969 81.289062 235.878906 87.957031 232.550781 C 89.203125 231.933594 90.53125 231.636719 91.890625 231.636719 C 97.847656 231.636719 104.515625 237.261719 108.160156 246.015625 C 112.644531 256.773438 110.871094 268.1875 104.195312 271.515625 Z M 172.214844 322.152344 C 168.566406 330.90625 161.898438 336.53125 155.945312 336.53125 C 154.582031 336.53125 153.257812 336.234375 152.015625 335.617188 C 145.339844 332.289062 143.566406 320.875 148.050781 310.113281 C 151.699219 301.359375 158.363281 295.738281 164.320312 295.738281 C 165.683594 295.738281 167.007812 296.03125 168.253906 296.652344 C 174.921875 299.976562 176.699219 311.394531 172.214844 322.152344 Z M 172.214844 258.050781 C 168.566406 266.804688 161.898438 272.429688 155.945312 272.429688 C 154.582031 272.429688 153.257812 272.132812 152.015625 271.515625 C 145.339844 268.1875 143.566406 256.773438 148.050781 246.015625 C 151.699219 237.261719 158.363281 231.636719 164.320312 231.636719 C 165.683594 231.636719 167.007812 231.933594 168.253906 232.550781 C 174.921875 235.878906 176.699219 247.292969 172.214844 258.050781 Z M 230.441406 290.101562 C 226.796875 298.855469 220.128906 304.480469 214.175781 304.480469 C 212.8125 304.480469 211.488281 304.183594 210.246094 303.566406 C 203.570312 300.238281 201.796875 288.824219 206.28125 278.0625 C 209.925781 269.3125 216.59375 263.6875 222.546875 263.6875 C 223.910156 263.6875 225.238281 263.984375 226.480469 264.601562 C 233.152344 267.925781 234.929688 279.34375 230.441406 290.101562 Z M 230.441406 226 C 226.796875 234.753906 220.128906 240.378906 214.175781 240.378906 C 212.8125 240.378906 211.488281 240.082031 210.246094 239.464844 C 203.570312 236.136719 201.796875 224.722656 206.28125 213.964844 C 209.925781 205.210938 216.59375 199.585938 222.546875 199.585938 C 223.910156 199.585938 225.238281 199.882812 226.480469 200.5 C 233.152344 203.828125 234.929688 215.242188 230.441406 226 Z M 239.007812 177.140625 L 133.929688 235.074219 L 133.929688 356.925781 C 133.929688 360.144531 131.320312 362.753906 128.105469 362.753906 C 124.890625 362.753906 122.28125 360.144531 122.28125 356.925781 L 122.28125 235.515625 L 16.359375 176.28125 C 13.546875 174.714844 12.539062 171.167969 14.101562 168.355469 C 15.667969 165.546875 19.210938 164.535156 22.023438 166.097656 L 127.707031 225.199219 L 233.375 166.9375 C 236.195312 165.386719 239.734375 166.40625 241.289062 169.21875 C 242.84375 172.039062 241.824219 175.582031 239.007812 177.140625 Z M 239.007812 177.140625 " fill-opacity="1" fill-rule="nonzero"/></g><g clip-path="url(#id2)"><path fill="rgb(100%, 63.139343%, 0%)" d="M 338.71875 65.179688 C 334.449219 53.09375 321.070312 39.710938 308.992188 35.433594 L 218.5 3.402344 C 215.175781 2.226562 211.464844 1.667969 207.636719 1.667969 C 197.535156 1.667969 186.636719 5.539062 180.070312 12.109375 L 109.636719 82.597656 C 105.042969 87.195312 101.59375 93.976562 99.75 101.15625 L 102.070312 100.046875 C 109.195312 96.640625 118.441406 94.765625 128.105469 94.765625 C 128.972656 94.765625 129.828125 94.800781 130.6875 94.828125 C 134.105469 91.113281 138.070312 88.867188 141.730469 88.867188 C 142.707031 88.867188 143.65625 89.019531 144.570312 89.347656 C 148.09375 90.597656 150.332031 94.121094 151.09375 98.742188 C 152.144531 99.148438 153.167969 99.582031 154.144531 100.046875 L 190.890625 117.605469 C 194.847656 110.765625 200.617188 106.347656 205.785156 106.347656 C 206.761719 106.347656 207.710938 106.503906 208.625 106.828125 C 214.929688 109.066406 217.152344 118.554688 214.0625 128.675781 L 229.222656 135.917969 L 232.21875 132.894531 L 200.601562 19.84375 C 199.726562 16.75 201.527344 13.527344 204.625 12.65625 C 207.726562 11.785156 210.9375 13.585938 211.808594 16.679688 L 243.742188 130.855469 L 357.070312 163.199219 C 360.164062 164.085938 361.953125 167.308594 361.070312 170.40625 C 360.339844 172.964844 358.007812 174.632812 355.476562 174.632812 C 355 174.632812 262.707031 148.367188 243.320312 142.847656 C 249.832031 146.738281 255.601562 152.675781 259.90625 159.535156 C 263.5625 160.550781 266.308594 162.609375 267.375 165.625 C 268.304688 168.246094 267.839844 171.1875 266.300781 174.058594 C 267.292969 177.722656 267.855469 181.425781 267.855469 185.039062 L 267.855469 275.585938 C 276.855469 274.289062 285.894531 270.390625 291.589844 264.6875 L 362.023438 194.203125 C 371.082031 185.136719 374.996094 167.832031 370.726562 155.746094 Z M 195.753906 69.308594 C 192.058594 77.476562 184.828125 83.039062 178.53125 83.039062 C 177.554688 83.039062 176.605469 82.90625 175.691406 82.628906 C 168.878906 80.554688 166.824219 71.230469 171.09375 61.800781 C 174.789062 53.640625 182.019531 48.074219 188.316406 48.074219 C 189.289062 48.074219 190.242188 48.207031 191.15625 48.484375 C 197.96875 50.558594 200.027344 59.882812 195.753906 69.308594 Z M 297.574219 109.871094 C 296.015625 111.433594 293.828125 112.175781 291.300781 112.175781 C 286.074219 112.175781 279.390625 109.011719 273.75 103.367188 C 265.375 94.984375 262.464844 84.304688 267.246094 79.519531 C 268.8125 77.953125 271 77.210938 273.535156 77.210938 C 278.757812 77.210938 285.4375 80.375 291.078125 86.019531 C 299.457031 94.402344 302.367188 105.078125 297.574219 109.871094 Z M 315.90625 203.1875 C 312.027344 204.695312 308.164062 205.414062 304.679688 205.414062 C 298.296875 205.414062 293.191406 202.996094 291.628906 198.585938 C 289.214844 191.765625 296.160156 182.777344 307.152344 178.503906 C 311.03125 176.996094 314.894531 176.277344 318.378906 176.277344 C 324.761719 176.277344 329.867188 178.699219 331.429688 183.109375 C 333.847656 189.921875 326.898438 198.914062 315.90625 203.1875 Z M 315.90625 203.1875 " fill-opacity="1" fill-rule="nonzero"/></g></svg>