<svg xmlns="http://www.w3.org/2000/svg" xmlns:xlink="http://www.w3.org/1999/xlink" width="500" zoomAndPan="magnify" viewBox="0 0 375 374.999991" height="500" preserveAspectRatio="xMidYMid meet" version="1.0"><defs><clipPath id="id1"><path d="M 0 0.0585938 L 374.96875 0.0585938 L 374.96875 374.933594 L 0 374.933594 Z M 0 0.0585938 " clip-rule="nonzero"/></clipPath></defs><g clip-path="url(#id1)"><path fill="#ffa100" d="M 223.730469 216.472656 L 151.238281 216.472656 C 135.136719 216.472656 122.082031 203.417969 122.082031 187.3125 L 252.886719 187.3125 C 252.886719 203.417969 239.832031 216.472656 223.730469 216.472656 Z M 228.082031 250.488281 L 146.886719 250.488281 L 146.886719 228.21875 L 228.082031 228.21875 Z M 187.484375 0.0625 C 185.152344 0.0625 182.832031 0.117188 180.519531 0.203125 C 178.152344 7.117188 185.640625 19.628906 189.757812 26.203125 C 200.285156 43.003906 207.832031 60.09375 205.957031 79.832031 C 211.753906 73.265625 211.023438 63.265625 208.855469 54.777344 C 206.6875 46.289062 206.703125 32.496094 219.050781 27.171875 C 206.945312 38.792969 217.609375 59.292969 221.230469 74.378906 C 225.585938 92.535156 220.386719 105.511719 211.71875 118.378906 C 218.785156 113.550781 224.132812 107.855469 229.210938 98.320312 C 229.472656 120.675781 237.839844 138.890625 233.648438 154.511719 C 229.816406 168.785156 218.582031 179.417969 199.199219 182.792969 C 211.605469 174.679688 221.023438 151.5 217.113281 134.417969 C 206.21875 153.542969 204.246094 150.148438 200.410156 153.058594 C 207.128906 144.648438 208.15625 134.902344 202.167969 119.484375 C 198.269531 109.453125 190.242188 99.796875 196.992188 87.640625 C 190.660156 90.988281 188.273438 98.984375 188.425781 106.140625 C 188.578125 113.304688 192.582031 124.59375 192.421875 131.753906 C 192.261719 138.914062 187.03125 153.234375 180.316406 155.71875 C 171.269531 149.695312 168.9375 125.703125 180.851562 106.40625 C 171.238281 116.355469 160.859375 130.308594 159.738281 144.101562 C 158.621094 157.890625 161.917969 172.179688 174.640625 182.792969 C 166.128906 181.703125 141.097656 169.277344 140.183594 139.867188 C 139.828125 128.523438 142.28125 116.949219 148.703125 107.589844 C 153.234375 100.992188 159.164062 92.066406 159.011719 84.0625 C 163.488281 89.457031 162.664062 100.207031 159.742188 106.574219 C 156.820312 112.945312 152.507812 118.871094 151.488281 125.804688 C 155.070312 119.699219 160.390625 114.832031 164.882812 109.363281 C 169.371094 103.890625 173.199219 97.269531 172.839844 90.199219 C 172.335938 80.300781 164.011719 72.671875 160.785156 63.304688 C 156.476562 50.78125 162.964844 35.511719 174.976562 29.929688 C 167.964844 36.363281 165.683594 47.429688 169.578125 56.113281 C 171.933594 61.363281 176.148438 65.496094 179.753906 69.980469 C 183.355469 74.464844 186.53125 79.832031 186.136719 85.570312 C 192.9375 68.863281 192.429688 49.332031 184.777344 32.996094 C 180.503906 23.871094 173.105469 15.601562 180.492188 0.203125 C 80.1875 3.886719 0 86.34375 0 187.546875 C 0 279.023438 65.515625 355.183594 152.183594 371.699219 L 152.183594 288.457031 C 152.183594 282.417969 157.078125 277.523438 163.117188 277.523438 L 163.117188 373.453125 C 169.226562 374.25 175.433594 374.746094 181.714844 374.933594 L 181.714844 269.625 L 158.429688 269.625 C 152.054688 269.625 146.886719 264.457031 146.886719 258.085938 L 228.082031 258.085938 C 228.082031 264.457031 222.914062 269.625 216.542969 269.625 L 193.253906 269.625 L 193.253906 374.933594 C 198.914062 374.765625 204.507812 374.339844 210.03125 373.675781 L 210.03125 277.523438 C 216.070312 277.523438 220.964844 282.417969 220.964844 288.457031 L 220.964844 372.046875 C 308.535156 356.261719 374.96875 279.664062 374.96875 187.546875 C 374.96875 84 291.03125 0.0625 187.484375 0.0625 " fill-opacity="1" fill-rule="nonzero"/></g></svg>