<?xml version="1.0" encoding="UTF-8"?><svg xmlns="http://www.w3.org/2000/svg" xmlns:xlink="http://www.w3.org/1999/xlink" width="375" zoomAndPan="magnify" viewBox="0 0 375 374.999991" height="374.999991" preserveAspectRatio="xMidYMid meet" version="1.0"><path fill="rgb(100%, 63.139343%, 0%)" d="M 13.964844 167.632812 L 366.269531 167.632812 C 372.085938 167.632812 374.917969 160.601562 370.699219 156.640625 L 215.519531 10.78125 C 211.394531 6.90625 204.59375 9.84375 204.652344 15.472656 L 205.582031 103.429688 L 13.964844 103.429688 C 7.511719 103.429688 2.28125 108.667969 2.28125 115.125 L 2.28125 155.941406 C 2.28125 162.398438 7.511719 167.632812 13.964844 167.632812 " fill-opacity="1" fill-rule="nonzero"/><path fill="rgb(100%, 63.139343%, 0%)" d="M 361.035156 207.671875 L 8.730469 207.671875 C 2.914062 207.671875 0.0820312 214.703125 4.300781 218.667969 L 159.480469 364.523438 C 163.605469 368.402344 170.40625 365.464844 170.34375 359.835938 L 169.417969 271.875 L 361.035156 271.875 C 367.488281 271.875 372.71875 266.640625 372.71875 260.179688 L 372.71875 219.367188 C 372.71875 212.910156 367.488281 207.671875 361.035156 207.671875 " fill-opacity="1" fill-rule="nonzero"/></svg>