<?xml version="1.0" encoding="UTF-8"?><svg xmlns="http://www.w3.org/2000/svg" xmlns:xlink="http://www.w3.org/1999/xlink" width="375" zoomAndPan="magnify" viewBox="0 0 375 374.999991" height="374.999991" preserveAspectRatio="xMidYMid meet" version="1.0"><defs><clipPath id="clip-0"><path d="M 0 16.023438 L 373 16.023438 L 373 358.773438 L 0 358.773438 Z M 0 16.023438 " clip-rule="nonzero"/></clipPath></defs><g clip-path="url(#clip-0)"><path fill="rgb(100%, 63.139343%, 0%)" d="M 270.816406 358.773438 L 50.738281 358.773438 C 22.367188 349.597656 2.714844 332.589844 0.296875 300.097656 C 1.984375 292.746094 3.464844 285.21875 3.953125 276.847656 C 6.589844 269.585938 1.554688 271.296875 3.554688 264.375 C 5.203125 260.371094 17.679688 243.867188 20.878906 233.328125 C 23.152344 225.835938 26.914062 218.550781 29.335938 210.375 C 30.207031 207.449219 28.386719 198.695312 29.335938 195.789062 C 30.820312 191.265625 35.742188 188.527344 37.292969 183.972656 C 43.527344 171.867188 47.003906 160.667969 50.738281 149.890625 C 52.726562 144.144531 49.933594 137.628906 50.738281 131.027344 C 53.175781 124.949219 61.316406 121.152344 63.925781 115.230469 C 66.578125 109.207031 70.078125 101.371094 72.359375 95.414062 C 74.011719 91.097656 75.109375 87.542969 75.625 82.453125 C 77.96875 76.527344 74.007812 70.972656 75.625 67.011719 C 77.871094 61.5 83.675781 57.496094 86.183594 52.355469 C 90.949219 42.585938 94.054688 33.597656 99.378906 25.148438 C 102.308594 20.5 105.832031 18.558594 111.816406 16.027344 C 120.113281 17.707031 128.332031 18.121094 136.40625 16.027344 L 309.429688 16.027344 C 338.5625 20.789062 341.726562 41.304688 331.03125 70.226562 L 270.625 271.917969 C 261.910156 295.46875 256.671875 301.203125 231.515625 301.738281 L 34.359375 301.738281 C 14.117188 303.914062 31.226562 334.039062 56.644531 329.945312 L 264.703125 329.945312 C 276.894531 330.050781 284.425781 324.21875 286.660156 311.625 L 353.300781 91.886719 L 353.300781 84.820312 C 366.097656 89.671875 374.699219 99.382812 371.597656 118.574219 C 358.914062 165.726562 330.90625 254.710938 309.429688 326.753906 C 300.097656 344.839844 287.039062 355.117188 270.816406 358.769531 Z M 113.101562 261.019531 C 116.417969 260.859375 193.171875 261.335938 181.710938 261.035156 C 180.65625 261.007812 182.191406 253.734375 181.710938 254.011719 C 165.636719 263.316406 213.96875 126.445312 214.203125 125.566406 C 215.371094 121.15625 211.972656 119.320312 210.242188 119.257812 C 202.226562 118.960938 177.289062 118.722656 166.4375 119.257812 C 164.335938 119.363281 153.355469 119.460938 151.113281 119.359375 C 151.128906 119.292969 151.128906 119.257812 151.117188 119.257812 C 150.550781 119.304688 150.613281 119.335938 151.113281 119.359375 C 150.882812 120.484375 147.019531 130.550781 147.320312 130.445312 C 181.207031 118.992188 124.582031 260.65625 115.277344 254.015625 C 113.316406 252.617188 113.816406 260.585938 113.101562 261.023438 C 112.988281 261.027344 112.960938 261.035156 113.023438 261.042969 C 113.050781 261.042969 113.078125 261.039062 113.101562 261.023438 Z M 218.292969 101.976562 C 203.449219 102.15625 190.082031 101.960938 176.296875 101.976562 C 172.664062 101.976562 168.644531 98.960938 169.722656 95.316406 C 174.082031 80.589844 175.890625 75.839844 181.101562 59.410156 C 182.441406 55.183594 185.171875 53.128906 187.671875 53.125 C 203.355469 53.105469 216.238281 53.058594 229.667969 53.125 C 232.5625 53.136719 235.082031 54.277344 234.285156 58.171875 C 231.046875 74.054688 227.339844 81.644531 222.910156 98.175781 C 222.207031 100.796875 221.050781 101.941406 218.292969 101.976562 Z M 218.292969 101.976562 " fill-opacity="1" fill-rule="evenodd"/></g></svg>