<?xml version="1.0" encoding="UTF-8"?><svg xmlns="http://www.w3.org/2000/svg" xmlns:xlink="http://www.w3.org/1999/xlink" contentScriptType="text/ecmascript" width="375" zoomAndPan="magnify" contentStyleType="text/css" viewBox="0 0 375 374.999991" height="374.999991" preserveAspectRatio="xMidYMid meet" version="1.0"><defs><clipPath id="clip-0"><path d="M 7 7 L 369 7 L 369 372 L 7 372 Z M 7 7 " clip-rule="nonzero"/></clipPath><clipPath id="clip-1"><path d="M -21.488281 91.667969 L 284.476562 -74.132812 L 470.289062 268.761719 L 164.324219 434.558594 Z M -21.488281 91.667969 " clip-rule="nonzero"/></clipPath><clipPath id="clip-2"><path d="M -21.488281 91.667969 L 284.476562 -74.132812 L 470.289062 268.761719 L 164.324219 434.558594 Z M -21.488281 91.667969 " clip-rule="nonzero"/></clipPath></defs><g clip-path="url(#clip-0)"><g clip-path="url(#clip-1)"><g clip-path="url(#clip-2)"><path fill="rgb(100%, 63.139343%, 0%)" d="M 292.09375 356.832031 C 290.554688 362.214844 286.988281 366.65625 282.082031 369.335938 C 277.175781 372.019531 271.539062 372.640625 266.171875 371.046875 L 229.59375 360.183594 C 234.894531 338.402344 222.402344 316.054688 200.65625 309.582031 C 178.933594 303.144531 156.25 315.027344 148.808594 336.183594 L 112.203125 325.3125 C 106.75 323.691406 102.230469 319.976562 99.476562 314.890625 C 96.730469 309.828125 96.089844 304.105469 97.644531 298.710938 L 172.96875 37.5625 C 174.5 32.207031 178.085938 27.757812 182.992188 25.074219 C 187.898438 22.394531 193.546875 21.789062 198.902344 23.367188 L 235.488281 34.25 C 230.179688 56.007812 242.683594 78.375 264.425781 84.851562 C 286.160156 91.257812 308.839844 79.375 316.296875 58.234375 L 352.898438 69.109375 C 363.695312 72.316406 370.558594 84.851562 367.457031 95.710938 Z M 229.339844 210.488281 L 254.507812 235.03125 L 258.683594 200.125 L 289.804688 183.769531 L 257.894531 169.015625 L 251.960938 134.367188 L 228.066406 160.15625 L 193.273438 155.09375 L 210.414062 185.789062 L 194.847656 217.3125 Z M 101.867188 261.644531 L 10.125 95.546875 C 7.902344 91.550781 7.402344 86.886719 8.695312 82.484375 C 9.984375 78.078125 12.914062 74.453125 16.9375 72.257812 L 44.492188 57.339844 C 54.039062 73.050781 74.28125 78.773438 90.660156 69.910156 C 106.996094 61.019531 113.265625 40.957031 105.320312 24.363281 L 132.878906 9.429688 C 141.007812 5.023438 152.269531 8.316406 156.773438 16.417969 L 167.171875 35.25 L 142.734375 119.972656 L 135.726562 122.550781 L 112.167969 105.882812 L 113.265625 134.71875 L 90.132812 151.976562 L 117.898438 159.839844 L 125.101562 181.097656 Z M 101.867188 261.644531 " fill-opacity="1" fill-rule="nonzero"/></g></g></g></svg>