<?xml version="1.0" encoding="UTF-8"?><svg xmlns="http://www.w3.org/2000/svg" xmlns:xlink="http://www.w3.org/1999/xlink" width="375" zoomAndPan="magnify" viewBox="0 0 375 374.999991" height="374.999991" preserveAspectRatio="xMidYMid meet" version="1.0"><path fill="rgb(95.289612%, 72.938538%, 18.429565%)" d="M 114.671875 157.578125 L 187.5 84.75 L 260.363281 157.609375 L 302.734375 115.234375 L 187.5 0 L 72.300781 115.199219 L 114.671875 157.574219 M 0 187.5 L 42.375 145.117188 L 84.75 187.492188 L 42.375 229.867188 Z M 114.671875 217.425781 L 187.5 290.25 L 260.359375 217.390625 L 302.757812 259.746094 L 302.734375 259.765625 L 187.5 375 L 72.238281 259.738281 L 114.675781 217.421875 M 290.25 187.519531 L 332.625 145.140625 L 375 187.515625 L 332.625 229.890625 Z M 290.25 187.519531 " fill-opacity="1" fill-rule="nonzero"/><path fill="rgb(95.289612%, 72.938538%, 18.429565%)" d="M 230.476562 187.476562 L 230.496094 187.476562 L 187.5 144.480469 L 155.71875 176.25 L 152.066406 179.902344 L 144.539062 187.433594 L 144.476562 187.492188 L 144.539062 187.554688 L 187.5 230.519531 L 230.5 187.523438 L 230.519531 187.5 L 230.480469 187.476562 " fill-opacity="1" fill-rule="nonzero"/></svg>