<?xml version="1.0" encoding="UTF-8"?><svg xmlns="http://www.w3.org/2000/svg" xmlns:xlink="http://www.w3.org/1999/xlink" width="375" zoomAndPan="magnify" viewBox="0 0 375 374.999991" height="374.999991" preserveAspectRatio="xMidYMid meet" version="1.0"><path fill="rgb(95.289612%, 72.938538%, 18.429565%)" d="M 283.203125 123.472656 C 276.367188 119.566406 267.578125 119.566406 259.765625 123.472656 L 205.078125 155.679688 L 167.96875 176.175781 L 114.257812 208.382812 C 107.421875 212.285156 98.632812 212.285156 90.820312 208.382812 L 48.828125 183.003906 C 41.992188 179.101562 37.109375 171.292969 37.109375 162.511719 L 37.109375 113.710938 C 37.109375 105.902344 41.015625 98.09375 48.828125 93.214844 L 90.820312 68.816406 C 97.65625 64.910156 106.445312 64.910156 114.257812 68.816406 L 156.25 94.191406 C 163.085938 98.09375 167.96875 105.902344 167.96875 114.6875 L 167.96875 146.894531 L 205.078125 125.421875 L 205.078125 92.238281 C 205.078125 84.429688 201.171875 76.625 193.359375 71.742188 L 115.234375 25.871094 C 108.398438 21.96875 99.609375 21.96875 91.796875 25.871094 L 11.71875 72.71875 C 3.90625 76.625 0 84.429688 0 92.238281 L 0 183.980469 C 0 191.789062 3.90625 199.597656 11.71875 204.476562 L 90.820312 250.347656 C 97.65625 254.253906 106.445312 254.253906 114.257812 250.347656 L 167.96875 219.117188 L 205.078125 197.644531 L 258.789062 166.414062 C 265.625 162.511719 274.414062 162.511719 282.226562 166.414062 L 324.21875 190.8125 C 331.054688 194.71875 335.9375 202.527344 335.9375 211.308594 L 335.9375 260.109375 C 335.9375 267.917969 332.03125 275.722656 324.21875 280.605469 L 283.203125 305.003906 C 276.367188 308.90625 267.578125 308.90625 259.765625 305.003906 L 217.773438 280.605469 C 210.9375 276.699219 206.054688 268.890625 206.054688 260.109375 L 206.054688 228.878906 L 168.945312 250.347656 L 168.945312 282.554688 C 168.945312 290.363281 172.851562 298.171875 180.664062 303.050781 L 259.765625 348.921875 C 266.601562 352.828125 275.390625 352.828125 283.203125 348.921875 L 362.304688 303.050781 C 369.140625 299.148438 374.023438 291.339844 374.023438 282.554688 L 374.023438 189.835938 C 374.023438 182.03125 370.117188 174.222656 362.304688 169.34375 Z M 283.203125 123.472656 " fill-opacity="1" fill-rule="nonzero"/></svg>