<?xml version="1.0" encoding="UTF-8"?><svg xmlns="http://www.w3.org/2000/svg" xmlns:xlink="http://www.w3.org/1999/xlink" width="375" zoomAndPan="magnify" viewBox="0 0 375 374.999991" height="374.999991" preserveAspectRatio="xMidYMid meet" version="1.0"><defs><clipPath id="clip-0"><path d="M 184 0 L 302.636719 0 L 302.636719 259 L 184 259 Z M 184 0 " clip-rule="nonzero"/></clipPath><clipPath id="clip-1"><path d="M 72.386719 0 L 188 0 L 188 259 L 72.386719 259 Z M 72.386719 0 " clip-rule="nonzero"/></clipPath><clipPath id="clip-2"><path d="M 186 212 L 302.636719 212 L 302.636719 375 L 186 375 Z M 186 212 " clip-rule="nonzero"/></clipPath><clipPath id="clip-3"><path d="M 72.386719 212 L 188 212 L 188 375 L 72.386719 375 Z M 72.386719 212 " clip-rule="nonzero"/></clipPath><clipPath id="clip-4"><path d="M 187 138 L 302.636719 138 L 302.636719 259 L 187 259 Z M 187 138 " clip-rule="nonzero"/></clipPath><clipPath id="clip-5"><path d="M 72.386719 138 L 188 138 L 188 259 L 72.386719 259 Z M 72.386719 138 " clip-rule="nonzero"/></clipPath></defs><g clip-path="url(#clip-0)"><path fill="rgb(79.60968%, 57.249451%, 3.919983%)" d="M 187.476562 0.03125 L 184.960938 8.574219 L 184.960938 256.488281 L 187.476562 259 L 302.566406 190.976562 Z M 187.476562 0.03125 " fill-opacity="1" fill-rule="nonzero"/></g><g clip-path="url(#clip-1)"><path fill="rgb(95.289612%, 72.938538%, 18.429565%)" d="M 187.476562 0.03125 L 72.386719 190.976562 L 187.476562 259 Z M 187.476562 0.03125 " fill-opacity="1" fill-rule="nonzero"/></g><g clip-path="url(#clip-2)"><path fill="rgb(89.408875%, 68.238831%, 16.468811%)" d="M 187.476562 280.789062 L 186.058594 282.515625 L 186.058594 370.828125 L 187.476562 374.964844 L 302.636719 212.800781 Z M 187.476562 280.789062 " fill-opacity="1" fill-rule="nonzero"/></g><g clip-path="url(#clip-3)"><path fill="rgb(95.289612%, 72.938538%, 18.429565%)" d="M 187.476562 374.964844 L 187.476562 280.789062 L 72.386719 212.800781 Z M 187.476562 374.964844 " fill-opacity="1" fill-rule="nonzero"/></g><g clip-path="url(#clip-4)"><path fill="rgb(65.879822%, 46.669006%, 0%)" d="M 187.476562 259 L 302.566406 190.976562 L 187.476562 138.667969 Z M 187.476562 259 " fill-opacity="1" fill-rule="nonzero"/></g><g clip-path="url(#clip-5)"><path fill="rgb(85.879517%, 63.919067%, 10.978699%)" d="M 72.386719 190.976562 L 187.476562 259 L 187.476562 138.667969 Z M 72.386719 190.976562 " fill-opacity="1" fill-rule="nonzero"/></g></svg>