<?xml version="1.0" encoding="UTF-8"?><svg xmlns="http://www.w3.org/2000/svg" xmlns:xlink="http://www.w3.org/1999/xlink" width="375" zoomAndPan="magnify" viewBox="0 0 375 374.999991" height="374.999991" preserveAspectRatio="xMidYMid meet" version="1.0"><path fill="rgb(95.289612%, 72.938538%, 18.429565%)" d="M 75.417969 65.246094 L 97.917969 65.246094 L 97.917969 308.210938 L 75.417969 308.210938 Z M 75.417969 65.246094 " fill-opacity="1" fill-rule="nonzero"/><path fill="rgb(95.289612%, 72.938538%, 18.429565%)" d="M 276.648438 65.792969 L 299.148438 65.792969 L 299.148438 308.753906 L 276.648438 308.753906 Z M 276.648438 65.792969 " fill-opacity="1" fill-rule="nonzero"/><path fill="rgb(95.289612%, 72.938538%, 18.429565%)" d="M 175.988281 125.507812 L 198.488281 125.507812 L 198.488281 249.992188 L 175.988281 249.992188 Z M 175.988281 125.507812 " fill-opacity="1" fill-rule="nonzero"/><path fill="rgb(95.289612%, 72.938538%, 18.429565%)" d="M 288.03125 290.378906 L 299.304688 309.851562 L 187.027344 374.847656 L 175.753906 355.375 Z M 288.03125 290.378906 " fill-opacity="1" fill-rule="nonzero"/><path fill="rgb(95.289612%, 72.938538%, 18.429565%)" d="M 288.03125 173.859375 L 299.304688 193.332031 L 187.027344 258.328125 L 175.753906 238.855469 Z M 288.03125 173.859375 " fill-opacity="1" fill-rule="nonzero"/><path fill="rgb(95.289612%, 72.938538%, 18.429565%)" d="M 288.023438 57.394531 L 299.296875 76.867188 L 98.113281 193.328125 L 86.839844 173.855469 Z M 288.023438 57.394531 " fill-opacity="1" fill-rule="nonzero"/><path fill="rgb(95.289612%, 72.938538%, 18.429565%)" d="M 175.996094 18.988281 L 187.308594 -0.460938 L 299.457031 64.757812 L 288.144531 84.207031 Z M 175.996094 18.988281 " fill-opacity="1" fill-rule="nonzero"/><path fill="rgb(95.289612%, 72.938538%, 18.429565%)" d="M 75.425781 308.71875 L 86.738281 289.265625 L 198.886719 354.484375 L 187.574219 373.9375 Z M 75.425781 308.71875 " fill-opacity="1" fill-rule="nonzero"/><path fill="rgb(95.289612%, 72.938538%, 18.429565%)" d="M 75.425781 193.59375 L 86.738281 174.144531 L 198.886719 239.363281 L 187.574219 258.8125 Z M 75.425781 193.59375 " fill-opacity="1" fill-rule="nonzero"/><path fill="rgb(95.289612%, 72.938538%, 18.429565%)" d="M 75.433594 77.125 L 86.746094 57.675781 L 287.050781 174.160156 L 275.738281 193.609375 Z M 75.433594 77.125 " fill-opacity="1" fill-rule="nonzero"/><path fill="rgb(95.289612%, 72.938538%, 18.429565%)" d="M 187.394531 0.128906 L 198.699219 19.582031 L 86.519531 84.75 L 75.21875 65.292969 Z M 187.394531 0.128906 " fill-opacity="1" fill-rule="nonzero"/></svg>