<svg
          width="233"
          height="40"
          viewBox="0 0 233 40"
          fill="none"
          xmlns="http://www.w3.org/2000/svg"
        >
          <g clipPath="url(#clip0)">
            <path
              d="M41.8838 19.3925C41.8514 18.5044 41.9998 17.6189 42.3202 16.7892C42.6406 15.9595 43.1263 15.2028 43.7482 14.5645C44.3702 13.9262 45.1154 13.4194 45.9392 13.0747C46.763 12.7299 47.6484 12.5543 48.5422 12.5583C51.9101 12.5583 53.9034 14.5232 54.5048 16.8297L52.3913 17.5387C52.2053 16.6788 51.7137 15.9143 51.0068 15.3855C50.2998 14.8567 49.4248 14.5991 48.5422 14.6598C46.36 14.6598 44.1777 16.2402 44.1777 19.4352C44.1777 22.6302 46.3084 24.1508 48.568 24.1508C49.4554 24.1764 50.3258 23.9049 51.0394 23.3797C51.7529 22.8545 52.2684 22.1062 52.5029 21.2548L54.5563 21.9212C54.2048 23.221 53.4165 24.362 52.3224 25.1546C51.2283 25.9472 49.8943 26.3436 48.5422 26.278C47.6404 26.2948 46.7448 26.1261 45.9116 25.7825C45.0784 25.4389 44.3256 24.9279 43.7004 24.2814C43.0753 23.6349 42.5912 22.8669 42.2786 22.0256C41.966 21.1843 41.8316 20.2879 41.8838 19.3925Z"
              fill="#375BD2"
            />
            <path
              d="M58.6288 25.9619H56.4637V12.5241H58.6288V17.795C58.9441 17.4242 59.3398 17.1294 59.7862 16.9326C60.2327 16.7358 60.7182 16.6422 61.2062 16.6588C63.4486 16.6588 64.5311 18.2563 64.5311 20.2468V25.9619H62.4262V20.6141C62.4657 20.354 62.4457 20.0883 62.3677 19.8369C62.2898 19.5855 62.1558 19.3548 61.9759 19.1619C61.7959 18.9691 61.5746 18.819 61.3283 18.7228C61.082 18.6267 60.8171 18.5869 60.5533 18.6066C60.2914 18.6068 60.0325 18.6611 59.7928 18.766C59.5532 18.871 59.3381 19.0243 59.1612 19.2163C58.9843 19.4082 58.8495 19.6346 58.7652 19.8812C58.6809 20.1277 58.6491 20.3889 58.6717 20.6483L58.6288 25.9619Z"
              fill="#375BD2"
            />
            <path
              d="M69.3682 20.785L71.6965 20.4262C72.2206 20.3578 72.3666 20.093 72.3666 19.7769C72.3666 19.0166 71.8511 18.4016 70.6483 18.4016C70.4164 18.3817 70.1828 18.409 69.9618 18.4816C69.7407 18.5543 69.5369 18.6709 69.3625 18.8242C69.1882 18.9776 69.047 19.1646 68.9475 19.3739C68.8481 19.5832 68.7924 19.8104 68.784 20.0418L66.8079 19.5975C66.9712 18.0342 68.3974 16.6418 70.6312 16.6418C73.432 16.6418 74.4973 18.2222 74.4973 20.0588V24.5438C74.4924 25.0302 74.5297 25.5161 74.609 25.996H72.59C72.5207 25.6157 72.4919 25.2291 72.5041 24.8428C72.2025 25.3024 71.7855 25.6758 71.2943 25.926C70.803 26.1763 70.2546 26.2946 69.7033 26.2694C69.3189 26.3008 68.9321 26.2544 68.5662 26.133C68.2004 26.0116 67.8631 25.8176 67.5748 25.5629C67.2865 25.3082 67.0531 24.9979 66.8888 24.651C66.7245 24.304 66.6327 23.9275 66.6189 23.5443C66.6189 21.8955 67.8131 21.0071 69.3682 20.785ZM72.3666 22.2372V21.8272L69.9954 22.1774C69.6731 22.1884 69.3675 22.3223 69.142 22.5514C68.9164 22.7804 68.7882 23.087 68.784 23.4076C68.7867 23.5731 68.8239 23.7362 68.8933 23.8866C68.9627 24.0371 69.0628 24.1715 69.1872 24.2816C69.3115 24.3916 69.4575 24.4747 69.6158 24.5257C69.7742 24.5767 69.9415 24.5945 70.1071 24.578C70.42 24.6097 70.736 24.5701 71.0312 24.4622C71.3265 24.3544 71.5931 24.1811 71.8109 23.9554C72.0287 23.7298 72.1919 23.4578 72.2882 23.1601C72.3845 22.8624 72.4113 22.5468 72.3666 22.2372Z"
              fill="#375BD2"
            />
            <path
              d="M78.1745 12.3362C78.3621 12.3339 78.5483 12.3687 78.7223 12.4385C78.8963 12.5084 79.0546 12.6118 79.188 12.743C79.3215 12.8741 79.4274 13.0302 79.4998 13.2024C79.5721 13.3745 79.6093 13.5592 79.6093 13.7457C79.6093 14.1173 79.4608 14.4737 79.1966 14.7364C78.9324 14.9991 78.574 15.1468 78.2003 15.1468C77.8266 15.1468 77.4682 14.9991 77.204 14.7364C76.9397 14.4737 76.7913 14.1173 76.7913 13.7457C76.7912 13.3778 76.9358 13.0243 77.1942 12.7609C77.4527 12.4976 77.8045 12.3451 78.1745 12.3362ZM77.1177 26.0046V16.9236H79.257V25.9619L77.1177 26.0046Z"
              fill="#375BD2"
            />
            <path
              d="M84.223 25.9619H82.0579V16.9236H84.1714V18.1282C84.4457 17.6658 84.8402 17.2853 85.3134 17.0268C85.7865 16.7682 86.321 16.6411 86.8606 16.6588C89.0772 16.6588 90.1426 18.2563 90.1426 20.2468V25.9619H87.9775V20.6141C87.9775 19.5035 87.4706 18.6066 86.1131 18.6066C85.8429 18.6082 85.5761 18.6666 85.3303 18.7781C85.0844 18.8895 84.865 19.0513 84.6865 19.253C84.508 19.4547 84.3744 19.6917 84.2945 19.9483C84.2147 20.205 84.1903 20.4756 84.223 20.7422V25.9619Z"
              fill="#375BD2"
            />
            <path
              d="M92.7802 25.9619V12.5241H94.9452V25.9619H92.7802Z"
              fill="#375BD2"
            />
            <path
              d="M98.8114 12.3362C99.1874 12.3362 99.5479 12.4847 99.8138 12.7491C100.08 13.0134 100.229 13.3719 100.229 13.7458C100.227 14.0221 100.143 14.2918 99.988 14.5209C99.8325 14.75 99.6124 14.9282 99.3553 15.0332C99.0981 15.1382 98.8155 15.1652 98.543 15.1109C98.2705 15.0565 98.0202 14.9233 97.8237 14.7279C97.6272 14.5324 97.4931 14.2836 97.4385 14.0126C97.3839 13.7416 97.411 13.4607 97.5166 13.205C97.6222 12.9494 97.8015 12.7305 98.0319 12.5759C98.2622 12.4213 98.5335 12.3379 98.8114 12.3362ZM97.7461 26.0046V16.9237H99.8939V25.9619L97.7461 26.0046Z"
              fill="#375BD2"
            />
            <path
              d="M104.86 25.9619H102.695V16.9236H104.8V18.1282C105.075 17.667 105.47 17.2876 105.943 17.0292C106.416 16.7708 106.95 16.6429 107.489 16.6588C109.714 16.6588 110.779 18.2563 110.779 20.2468V25.9619H108.614V20.6141C108.654 20.354 108.634 20.0883 108.556 19.8369C108.478 19.5855 108.344 19.3548 108.164 19.1619C107.984 18.969 107.763 18.819 107.516 18.7228C107.27 18.6267 107.005 18.5869 106.741 18.6066C106.472 18.608 106.205 18.6665 105.96 18.778C105.714 18.8895 105.495 19.0515 105.317 19.2534C105.139 19.4552 105.007 19.6923 104.928 19.949C104.849 20.2056 104.826 20.476 104.86 20.7422V25.9619Z"
              fill="#375BD2"
            />
            <path
              d="M118.185 20.7423L122 25.9619H119.345L116.673 22.2372L115.556 23.4076V25.9704H113.408V12.5241H115.556V20.5799L119.045 16.9236H121.923L118.185 20.7423Z"
              fill="#375BD2"
            />
            <path
              d="M16.2294 8.89348L25.5942 14.2412V24.9794L16.2552 30.3614L6.89042 25.0222V14.2839L16.2294 8.89348ZM16.2294 1L12.7928 2.98191L3.43662 8.37238L0 10.3543V14.301V25.0307V28.9774L3.43662 30.9423L12.8014 36.29L16.238 38.2548L19.6747 36.2729L29.0137 30.8825L32.4503 28.9091V24.9624V14.2241V10.2774L29.0137 8.31258L19.6489 2.96483L16.2123 1H16.2294Z"
              fill="#375BD2"
            />
          </g>
          <rect x="132" y="10" width="1" height="20" rx="0.5" fill="#DFE7FB" />
          <path
            d="M143.037 18.8505V14.769H145.356C146.766 14.769 147.619 15.5668 147.619 16.8283C147.619 18.0713 146.766 18.8505 145.356 18.8505H143.037ZM145.69 20.8171C148.213 20.8171 149.883 19.1288 149.883 16.8098C149.883 14.5093 148.213 12.8024 145.69 12.8024H140.811V25.9562H143.037V20.8171H145.69Z"
            fill="#375BD2"
          />
          <path
            d="M152.636 20.4461C152.71 19.4813 153.489 18.4424 154.844 18.4424C156.328 18.4424 157.033 19.3886 157.07 20.4461H152.636ZM157.311 22.8022C157.014 23.6927 156.347 24.3792 155.048 24.3792C153.712 24.3792 152.636 23.3959 152.58 22.023H159.185C159.204 21.9859 159.241 21.6891 159.241 21.3366C159.241 18.4795 157.608 16.6428 154.825 16.6428C152.543 16.6428 150.428 18.5352 150.428 21.3922C150.428 24.4534 152.599 26.2344 155.048 26.2344C157.218 26.2344 158.647 24.9543 159.129 23.3774L157.311 22.8022Z"
            fill="#375BD2"
          />
          <path
            d="M160.648 26.4571C160.889 28.2752 162.559 29.7594 164.952 29.7594C168.347 29.7594 169.59 27.5146 169.59 25.1027V16.9211H167.512V18.0713C167.123 17.3292 166.251 16.7541 164.841 16.7541C162.355 16.7541 160.667 18.7392 160.667 21.1511C160.667 23.6927 162.429 25.548 164.841 25.548C166.158 25.548 167.067 24.9358 167.457 24.2308V25.1769C167.457 27.0136 166.603 27.8856 164.896 27.8856C163.653 27.8856 162.781 27.0507 162.633 25.9376L160.648 26.4571ZM165.193 23.7113C163.783 23.7113 162.837 22.728 162.837 21.1511C162.837 19.6112 163.82 18.6094 165.193 18.6094C166.529 18.6094 167.512 19.6112 167.512 21.1511C167.512 22.7095 166.566 23.7113 165.193 23.7113Z"
            fill="#375BD2"
          />
          <path
            d="M181.053 15.8821C180.756 14.4165 179.55 12.5241 176.452 12.5241C174.003 12.5241 171.981 14.3423 171.981 16.55C171.981 18.5166 173.317 19.8338 175.321 20.242L177.176 20.6316C178.307 20.8728 178.938 21.5592 178.938 22.4126C178.938 23.433 178.122 24.2308 176.545 24.2308C174.653 24.2308 173.669 22.9692 173.539 21.5963L171.462 22.19C171.666 24.0823 173.206 26.2344 176.545 26.2344C179.55 26.2344 181.202 24.2864 181.202 22.2457C181.202 20.3904 179.959 18.9248 177.64 18.4609L175.747 18.0713C174.727 17.8487 174.207 17.2179 174.207 16.3831C174.207 15.3812 175.135 14.4907 176.471 14.4907C178.233 14.4907 178.92 15.6966 179.05 16.5129L181.053 15.8821Z"
            fill="#375BD2"
          />
          <path
            d="M188.141 16.9211L186.007 23.1733L184.171 16.9211H181.87L184.801 25.9562H187.009L189.198 19.4628L191.443 25.9562H193.595L196.49 16.9211H194.3L192.501 23.1733L190.367 16.9211H188.141Z"
            fill="#375BD2"
          />
          <path
            d="M197.52 23.5072C197.52 24.9358 198.688 26.2344 200.581 26.2344C202.046 26.2344 202.937 25.4923 203.364 24.8059C203.364 25.5294 203.438 25.9005 203.456 25.9562H205.46C205.442 25.8634 205.349 25.3254 205.349 24.5091V20.0194C205.349 18.2198 204.291 16.6428 201.508 16.6428C199.282 16.6428 197.872 18.0342 197.705 19.5926L199.672 20.0379C199.764 19.1288 200.395 18.4053 201.527 18.4053C202.714 18.4053 203.234 19.0175 203.234 19.7782C203.234 20.0936 203.085 20.3533 202.566 20.4275L200.247 20.78C198.707 21.0026 197.52 21.8932 197.52 23.5072ZM200.989 24.5462C200.136 24.5462 199.672 23.9896 199.672 23.3774C199.672 22.6353 200.21 22.2642 200.878 22.1529L203.234 21.8004V22.2085C203.234 23.971 202.195 24.5462 200.989 24.5462Z"
            fill="#375BD2"
          />
          <path
            d="M210.084 29.4811V24.9358C210.548 25.6222 211.531 26.1788 212.83 26.1788C215.427 26.1788 217.078 24.138 217.078 21.4293C217.078 18.7578 215.575 16.717 212.904 16.717C211.512 16.717 210.473 17.3663 210.028 18.1455V16.9211H207.95V29.4811H210.084ZM214.926 21.4293C214.926 23.1547 213.924 24.2679 212.496 24.2679C211.086 24.2679 210.065 23.1547 210.065 21.4293C210.065 19.7411 211.086 18.6279 212.496 18.6279C213.943 18.6279 214.926 19.7411 214.926 21.4293Z"
            fill="#375BD2"
          />
        </svg>
