<svg xmlns="http://www.w3.org/2000/svg" xmlns:xlink="http://www.w3.org/1999/xlink" width="500" zoomAndPan="magnify" viewBox="0 0 375 374.999991" height="500" preserveAspectRatio="xMidYMid meet" version="1.0"><defs><clipPath id="id1"><path d="M 10.277344 86.703125 L 365.027344 86.703125 L 365.027344 288.453125 L 10.277344 288.453125 Z M 10.277344 86.703125 " clip-rule="nonzero"/></clipPath></defs><path fill="#000000" d="M 33.5 -0.257812 L 340.675781 -0.257812 C 341.78125 -0.257812 342.886719 -0.203125 343.984375 -0.09375 C 345.085938 0.0117188 346.179688 0.175781 347.261719 0.390625 C 348.347656 0.605469 349.417969 0.875 350.476562 1.195312 C 351.535156 1.515625 352.574219 1.890625 353.59375 2.3125 C 354.617188 2.734375 355.613281 3.207031 356.589844 3.726562 C 357.566406 4.25 358.511719 4.816406 359.429688 5.429688 C 360.351562 6.046875 361.238281 6.703125 362.09375 7.40625 C 362.945312 8.105469 363.765625 8.847656 364.546875 9.628906 C 365.328125 10.410156 366.070312 11.230469 366.773438 12.085938 C 367.472656 12.9375 368.132812 13.824219 368.746094 14.746094 C 369.359375 15.664062 369.925781 16.613281 370.449219 17.585938 C 370.96875 18.5625 371.441406 19.558594 371.863281 20.582031 C 372.289062 21.601562 372.660156 22.644531 372.980469 23.699219 C 373.300781 24.757812 373.570312 25.832031 373.785156 26.914062 C 374 28 374.164062 29.089844 374.273438 30.191406 C 374.378906 31.292969 374.433594 32.394531 374.433594 33.5 L 374.433594 340.675781 C 374.433594 341.78125 374.378906 342.886719 374.273438 343.984375 C 374.164062 345.085938 374 346.179688 373.785156 347.261719 C 373.570312 348.347656 373.300781 349.417969 372.980469 350.476562 C 372.660156 351.535156 372.289062 352.574219 371.863281 353.59375 C 371.441406 354.617188 370.96875 355.613281 370.449219 356.589844 C 369.925781 357.566406 369.359375 358.511719 368.746094 359.429688 C 368.132812 360.351562 367.472656 361.238281 366.773438 362.09375 C 366.070312 362.945312 365.328125 363.765625 364.546875 364.546875 C 363.765625 365.328125 362.945312 366.070312 362.09375 366.773438 C 361.238281 367.472656 360.351562 368.132812 359.429688 368.746094 C 358.511719 369.359375 357.566406 369.925781 356.589844 370.449219 C 355.613281 370.96875 354.617188 371.441406 353.59375 371.863281 C 352.574219 372.289062 351.535156 372.660156 350.476562 372.980469 C 349.417969 373.300781 348.347656 373.570312 347.261719 373.785156 C 346.179688 374 345.085938 374.164062 343.984375 374.273438 C 342.886719 374.378906 341.78125 374.433594 340.675781 374.433594 L 33.5 374.433594 C 32.394531 374.433594 31.292969 374.378906 30.191406 374.273438 C 29.089844 374.164062 28 374 26.914062 373.785156 C 25.832031 373.570312 24.757812 373.300781 23.699219 372.980469 C 22.644531 372.660156 21.601562 372.289062 20.582031 371.863281 C 19.558594 371.441406 18.5625 370.96875 17.585938 370.449219 C 16.613281 369.925781 15.664062 369.359375 14.746094 368.746094 C 13.824219 368.132812 12.9375 367.472656 12.085938 366.773438 C 11.230469 366.070312 10.410156 365.328125 9.628906 364.546875 C 8.847656 363.765625 8.105469 362.945312 7.40625 362.09375 C 6.703125 361.238281 6.046875 360.351562 5.429688 359.429688 C 4.816406 358.511719 4.25 357.566406 3.726562 356.589844 C 3.207031 355.613281 2.734375 354.617188 2.3125 353.59375 C 1.890625 352.574219 1.515625 351.535156 1.195312 350.476562 C 0.875 349.417969 0.605469 348.347656 0.390625 347.261719 C 0.175781 346.179688 0.0117188 345.085938 -0.09375 343.984375 C -0.203125 342.886719 -0.257812 341.78125 -0.257812 340.675781 L -0.257812 33.5 C -0.257812 32.394531 -0.203125 31.292969 -0.09375 30.191406 C 0.0117188 29.089844 0.175781 28 0.390625 26.914062 C 0.605469 25.832031 0.875 24.757812 1.195312 23.699219 C 1.515625 22.644531 1.890625 21.601562 2.3125 20.582031 C 2.734375 19.558594 3.207031 18.5625 3.726562 17.585938 C 4.25 16.613281 4.816406 15.664062 5.429688 14.746094 C 6.046875 13.824219 6.703125 12.9375 7.40625 12.085938 C 8.105469 11.230469 8.847656 10.410156 9.628906 9.628906 C 10.410156 8.847656 11.230469 8.105469 12.085938 7.40625 C 12.9375 6.703125 13.824219 6.046875 14.746094 5.429688 C 15.664062 4.816406 16.613281 4.25 17.585938 3.726562 C 18.5625 3.207031 19.558594 2.734375 20.582031 2.3125 C 21.601562 1.890625 22.644531 1.515625 23.699219 1.195312 C 24.757812 0.875 25.832031 0.605469 26.914062 0.390625 C 28 0.175781 29.089844 0.0117188 30.191406 -0.09375 C 31.292969 -0.203125 32.394531 -0.257812 33.5 -0.257812 Z M 33.5 -0.257812 " fill-opacity="1" fill-rule="nonzero"/><g clip-path="url(#id1)"><path fill="#ffffff" d="M 110.328125 86.851562 C 165.585938 86.851562 210.378906 131.953125 210.378906 187.578125 C 210.378906 243.210938 165.585938 288.308594 110.328125 288.308594 C 55.070312 288.308594 10.277344 243.210938 10.277344 187.578125 C 10.277344 131.953125 55.070312 86.851562 110.328125 86.851562 Z M 270.105469 92.753906 C 297.734375 92.753906 320.128906 135.203125 320.128906 187.578125 C 320.21875 200.203125 314.855469 282.414062 270.109375 282.414062 C 242.480469 282.414062 220.078125 239.941406 220.078125 187.578125 C 220.078125 135.214844 242.480469 92.753906 270.105469 92.753906 Z M 347.433594 102.625 C 357.148438 102.625 365.027344 140.664062 365.027344 187.578125 C 365.027344 234.484375 357.148438 272.53125 347.433594 272.53125 C 337.714844 272.53125 329.84375 234.496094 329.84375 187.578125 C 329.84375 140.667969 337.722656 102.625 347.433594 102.625 Z M 347.433594 102.625 " fill-opacity="1" fill-rule="nonzero"/></g></svg>