<svg xmlns="http://www.w3.org/2000/svg" xmlns:xlink="http://www.w3.org/1999/xlink" width="500" zoomAndPan="magnify" viewBox="0 0 375 374.999991" height="500" preserveAspectRatio="xMidYMid meet" version="1.0"><defs><clipPath id="id1"><path d="M 185 24.019531 L 288.132812 24.019531 L 288.132812 250 L 185 250 Z M 185 24.019531 " clip-rule="nonzero"/></clipPath><clipPath id="id2"><path d="M 87.132812 24.019531 L 188 24.019531 L 188 250 L 87.132812 250 Z M 87.132812 24.019531 " clip-rule="nonzero"/></clipPath><clipPath id="id3"><path d="M 186 209 L 288.132812 209 L 288.132812 351 L 186 351 Z M 186 209 " clip-rule="nonzero"/></clipPath><clipPath id="id4"><path d="M 87.132812 209 L 188 209 L 188 351 L 87.132812 351 Z M 87.132812 209 " clip-rule="nonzero"/></clipPath><clipPath id="id5"><path d="M 187 144 L 288.132812 144 L 288.132812 250 L 187 250 Z M 187 144 " clip-rule="nonzero"/></clipPath><clipPath id="id6"><path d="M 87.132812 144 L 188 144 L 188 250 L 87.132812 250 Z M 87.132812 144 " clip-rule="nonzero"/></clipPath></defs><path fill="rgb(23.919678%, 23.919678%, 23.919678%)" d="M 187.5 0 C 83.945312 0 0 83.945312 0 187.5 C 0 291.054688 83.945312 375 187.5 375 C 291.054688 375 375 291.054688 375 187.5 C 375 83.945312 291.054688 0 187.5 0 " fill-opacity="1" fill-rule="nonzero"/><g clip-path="url(#id1)"><path fill="rgb(50.19989%, 50.19989%, 50.19989%)" d="M 187.605469 24.046875 L 185.40625 31.496094 L 185.40625 247.679688 L 187.605469 249.867188 L 288.070312 190.550781 Z M 187.605469 24.046875 " fill-opacity="1" fill-rule="nonzero"/></g><g clip-path="url(#id2)"><path fill="rgb(93.728638%, 93.728638%, 93.728638%)" d="M 187.605469 24.046875 L 87.132812 190.550781 L 187.605469 249.867188 Z M 187.605469 24.046875 " fill-opacity="1" fill-rule="nonzero"/></g><g clip-path="url(#id3)"><path fill="rgb(73.329163%, 73.329163%, 73.329163%)" d="M 187.605469 268.867188 L 186.367188 270.375 L 186.367188 347.382812 L 187.605469 350.992188 L 288.132812 209.582031 Z M 187.605469 268.867188 " fill-opacity="1" fill-rule="nonzero"/></g><g clip-path="url(#id4)"><path fill="rgb(93.728638%, 93.728638%, 93.728638%)" d="M 187.605469 350.992188 L 187.605469 268.867188 L 87.132812 209.582031 Z M 187.605469 350.992188 " fill-opacity="1" fill-rule="nonzero"/></g><g clip-path="url(#id5)"><path fill="rgb(30.198669%, 30.198669%, 30.198669%)" d="M 187.605469 249.867188 L 288.070312 190.550781 L 187.605469 144.9375 Z M 187.605469 249.867188 " fill-opacity="1" fill-rule="nonzero"/></g><g clip-path="url(#id6)"><path fill="rgb(50.979614%, 50.979614%, 50.979614%)" d="M 87.132812 190.550781 L 187.605469 249.867188 L 187.605469 144.9375 Z M 87.132812 190.550781 " fill-opacity="1" fill-rule="nonzero"/></g></svg>